<?xml version="1.0" standalone="no"?>
<!DOCTYPE svg PUBLIC "-//W3C//DTD SVG 1.1//EN" "http://www.w3.org/Graphics/SVG/1.1/DTD/svg11.dtd" >
<svg xmlns="http://www.w3.org/2000/svg">
<metadata>
Created by FontPrep 20130207 at Tue Jun 10 12:59:47 2014
 By Hans Philip Eide
(c) 1990, 1992, 1996, 2000, 2001 Adobe Systems Incorporated. All rights reserved.
</metadata>
<defs>
<font id="09ec7fcf3550cc6d857e9fb1a17c52a9" horiz-adv-x='1024' >
  <font-face 
    font-family="ACaslonPro-Bold"
    font-weight="700"
    font-stretch="normal"
    units-per-em="2048"
    panose-1="2 0 8 3 0 0 0 0 0 0"
    ascent="1505"
    descent="-543"
    x-height="866"
    cap-height="1456"
    bbox="-213 -563 2392 1942"
    underline-thickness="102"
    underline-position="-102"
    unicode-range="U+0020-00FF"
  />
<missing-glyph 
 />
    <glyph glyph-name=".notdef" 
 />
    <glyph glyph-name=".null" horiz-adv-x="0" 
 />
    <glyph glyph-name="nonmarkingreturn" horiz-adv-x="681" 
 />
    <glyph glyph-name="space" unicode=" " horiz-adv-x="409" 
 />
    <glyph glyph-name="exclam" unicode="!" horiz-adv-x="532" 
d="M266 1399q158 0 158 -150q0 -59 -62 -389t-67 -424q0 -14 -14 -14h-37q-14 0 -15 20q-12 137 -61 420q-51 330 -51 355q-1 182 149 182zM260 -29q-66 0 -108 39q-41 38 -41 96t36 103q39 45 110 45t111 -41t40 -101t-39 -104q-43 -37 -109 -37z" />
    <glyph glyph-name="quotedbl" unicode="&#x22;" horiz-adv-x="768" 
d="M440 1371q0 42 31 76t91 34t89 -34t29 -75t-37 -218t-49 -271h-68q-12 98 -49 272t-37 216zM88 1371q0 42 33 76t91 34t87 -34t29 -73t-36 -216t-48 -275h-70q-12 98 -49 272t-37 216z" />
    <glyph glyph-name="numbersign" unicode="#" 
d="M254 -31h-133q-14 0 -8 29l86 371h-207q-16 0 -12 18l24 158q2 14 23 14h206l58 256h-189q-20 0 -24 4q-8 0 -4 10l24 162q2 14 27 15h197l88 374q4 18 16 19h131q18 0 8 -23l-82 -370h181l81 370q10 23 21 23h131q16 0 10 -23l-84 -370h209q24 0 19 -15l-27 -162
q-2 -14 -31 -14h-198l-58 -256h203q25 0 23 -16l-27 -164q-4 -10 -31 -10h-205l-82 -375q-6 -25 -20 -25h-133q-14 0 -8 23l82 377h-181l-84 -367q-6 -33 -20 -33zM573 559l60 256h-180l-60 -256h180z" />
    <glyph glyph-name="dollar" unicode="$" 
d="M741 348q0 55 -28 107q-25 51 -84 80l-13 -410q125 45 125 223zM453 586l-15 -463q31 -12 107 -8l12 442q-27 8 -53 15q-26 6 -38 10q-11 4 -13 4zM287 1040q0 -123 98 -170l8 367q-106 -45 -106 -197zM561 819l12 426q-55 20 -104 10l-12 -411q14 -9 104 -25zM596 -82
h-41q-14 0 -14 21l2 100q-63 -6 -107 8l-4 -110q0 -18 -14 -19h-45q-14 0 -15 21l4 120q-78 25 -131 55t-67 31q-14 0 -35 -39q-6 -10 -29 -10t-18 35q10 94 17 188t16 162q0 14 14 15l45 -2q12 0 12 -15q10 -125 41 -198q51 -82 138 -131l14 452q-113 27 -189 94
q-104 94 -104 268t135 283q68 55 174 72l4 115q0 18 15 18h45q14 0 14 -18l-2 -107q55 4 104 -4l3 109q0 20 14 20h45q14 0 14 -18l-4 -121q47 -10 121 -33q23 -6 37 6l22 25q7 8 25 8t18 -25q0 -207 7 -329q0 -14 -11 -15l-43 -6q-8 0 -12 6q-43 145 -72 185q-55 70 -90 86
l-16 -418q161 -45 235 -131t74 -238t-86 -256t-242 -131l-2 -108q0 -21 -16 -21z" />
    <glyph glyph-name="percent" unicode="%" horiz-adv-x="1634" 
d="M1284 840q309 0 309 -447q0 -180 -84 -299q-83 -112 -249 -112q-96 0 -160 45q-108 76 -142 252q-12 59 -12 114q0 183 83 315t255 132zM1268 59q63 0 84 74q12 43 12 336t-86 293q-53 0 -76 -68q-28 -80 -28 -282t13 -254t35 -76t46 -23zM354 541q-90 0 -161 45
q-107 80 -140 250q-12 61 -12 116q0 184 84 318q84 129 254 129q86 0 158 -39q66 -47 94 -111q57 -109 57 -295t-83 -300t-251 -113zM1290 1344q0 -8 -8 -21l-827 -1337q-18 -28 -35 -11l-55 39q-13 10 -13 16t13 27l821 1325q15 24 35 11l61 -35q8 -6 8 -14zM362 618
q61 0 84 74q12 43 12 336t-85 293q-53 0 -76 -68q-29 -79 -29 -283t14 -256t35 -71q20 -25 45 -25z" />
    <glyph glyph-name="ampersand" unicode="&#x26;" horiz-adv-x="1884" 
d="M643 1364q-143 0 -143 -213q0 -63 53 -117q45 -51 119 -88q96 66 96 225q0 78 -35 134q-31 59 -90 59zM630 127q89 0 152 29q68 24 107 56t82 79q-72 119 -202 262t-243 207q-61 -39 -112 -142q-54 -102 -52 -221t90 -195t178 -75zM1645 891q0 -14 -15 -14h-35
q-90 0 -125 -54l-20 -32q-20 -37 -34 -59t-60 -97q-97 -142 -142 -197q4 -2 76 -83t94 -103q119 -119 228 -119q59 1 102 27q42 26 48 32t24 23q14 17 16 21l23 32q10 12 16 6l41 -28q23 -16 -133 -172q-135 -105 -301 -105q-168 0 -252 72q-49 33 -106 89t-72 83l-45 -45
q-51 -51 -121 -107q-51 -33 -84 -49q-117 -43 -217 -43q-203 0 -340 113q-135 117 -135 242q0 197 172 348q106 94 209 143q-201 131 -205 285q4 126 126 238t276 112t248 -86q95 -86 93 -199q-4 -86 -77 -157q-76 -80 -168 -113q207 -90 403 -381q47 59 88 150
q33 88 33 131q0 80 -64 82h-26q-14 0 -15 14v49q0 10 15 10l135 -4q35 -2 92 -2t92 2l127 4q14 0 15 -16v-43z" />
    <glyph glyph-name="quotesingle" unicode="'" horiz-adv-x="409" 
d="M86 1367q0 46 34 80t91 34t84 -35q31 -31 31 -75t-36 -223t-46 -265h-70q-8 59 -47 256q-41 182 -41 228z" />
    <glyph glyph-name="parenleft" unicode="(" horiz-adv-x="669" 
d="M563 -354q-14 0 -35 16q-184 143 -321 378t-137 540t157 573q119 205 303 360q28 28 64 7q14 -8 14 -20t-16 -36q-258 -309 -258 -876q0 -258 68 -490t190 -385q16 -23 16 -34t-14 -23q-17 -10 -31 -10z" />
    <glyph glyph-name="parenright" unicode=")" horiz-adv-x="669" 
d="M106 1530q14 0 35 -17q183 -143 321 -377t138 -540q0 -305 -158 -573q-119 -205 -303 -361q-15 -16 -31 -16t-31 9q-28 17 1 56q258 322 258 879q0 260 -70 489q-66 229 -188 383q-16 23 -16 34t14 24q16 10 30 10z" />
    <glyph glyph-name="asterisk" unicode="*" horiz-adv-x="671" 
d="M422 1407q0 -48 -74 -221l10 -8q129 158 150 165q70 37 108 -32q16 -37 8 -69t-32 -43q-22 -11 -112 -27t-113 -15v-10q199 -33 229 -46t35 -48q12 -29 -8 -72q-18 -29 -54 -39q-39 -6 -70 19t-110 124l-31 37l-10 -6l21 -47q53 -129 53 -165t-21 -62q-24 -25 -64 -25
t-64 24t-23 61t51 159l21 53l-9 6q-12 -12 -72 -85t-85 -89q-59 -37 -107 35q-20 35 -8 72q17 35 37 44t78 21t78 16q22 4 31 6q9 1 19 4t15 3h4v10q-12 0 -113 19t-110 24q-78 29 -37 109q37 78 109 37q25 -14 81 -80q27 -27 54 -58l28 -28l9 6q0 4 -37 87t-37 124
q0 84 86 84t86 -74z" />
    <glyph glyph-name="plus" unicode="+" 
d="M598 72h-168v346h-321v155h321v338h168v-338h320v-155h-320v-346z" />
    <glyph glyph-name="comma" unicode="," horiz-adv-x="573" 
d="M123 -381q-29 0 -29 21q0 10 21 30q154 137 153 258q0 51 -53 64q-6 2 -12 5t-19 7q-12 8 -19 12t-13 13q-8 4 -23 26q-14 21 -14 39q-4 10 -4 31q0 68 41 118q40 50 118 50q78 1 136 -75t59 -170q0 -94 -35 -171q-39 -70 -88 -117q-106 -102 -176 -133q-14 -8 -43 -8z
" />
    <glyph glyph-name="hyphen" unicode="-" horiz-adv-x="819" 
d="M102 483v131q0 14 19 15h571q25 0 25 -23v-119q0 -14 -21 -14h-577q-17 0 -17 10z" />
    <glyph glyph-name="period" unicode="." horiz-adv-x="573" 
d="M292 -29q-69 0 -120 45q-47 52 -47 112t43 110t118 51q75 0 115 -47q47 -41 47 -113t-43 -115q-44 -43 -113 -43z" />
    <glyph glyph-name="slash" unicode="/" horiz-adv-x="768" 
d="M18 53l600 1420q8 18 27 12l103 -43q14 -6 2 -35l-603 -1419q-10 -27 -26 -17l-101 45q-16 10 -2 37z" />
    <glyph glyph-name="zero" unicode="0" 
d="M530 1315q-98 0 -127 -135q-57 -256 -57 -556t29 -400q29 -101 63 -136t86 -35q102 0 130 136t28 552q0 574 -152 574zM520 1399q449 0 449 -703q0 -350 -113 -540q-117 -186 -334 -187q-125 0 -223 64q-162 116 -217 381q-25 104 -25 213q0 350 120 561t343 211z" />
    <glyph glyph-name="one" unicode="1" 
d="M818 -4l-269 4h-115l-244 -6q-16 0 -16 14v55q0 14 29 15h53q92 0 118 17t29 93q3 29 3 385v447q0 94 -48 94q-43 0 -92 -14l-100 -29q-18 -4 -23 6l-14 41q-6 16 12 25l498 243q27 12 39 13q18 0 18 -31v-43q-4 -28 -4 -100v-297q-2 -59 -2 -162v-86q0 -133 2 -272v-209
q4 -84 21 -101q14 -20 92 -20h74q20 0 20 -17v-53q0 -14 -22 -14h-9z" />
    <glyph glyph-name="two" unicode="2" 
d="M195 0q-134 0 -158 -8h-8q-16 0 -23 12q-12 29 12 49q238 217 398 420q211 264 202 498q-2 111 -68 183t-169 67q-147 -8 -240 -160q-12 -18 -24 -12l-35 14q-10 6 5 42q29 71 114 169q53 57 137 91t184 34q164 0 277 -110t112 -263q0 -266 -309 -555q-31 -31 -119 -109
t-155 -137v-8h354q62 0 110 27t70 51q37 53 51 78q16 25 37 12q33 -14 25 -33l-146 -379q-10 -23 -29 -23t-28 21q-12 29 -133 29h-444z" />
    <glyph glyph-name="three" unicode="3" 
d="M369 -31q-168 0 -244 51q-76 50 -76 100t25 81q27 31 61 35q84 0 135 -107q35 -72 136 -72t168 84t67 199q0 283 -289 348q-33 10 -37 17q-10 4 -10 22t6 27q10 10 29 12q260 49 260 276q0 80 -49 140t-137 59q-156 0 -232 -192q-10 -30 -24 -25l-41 12q-14 2 -8 31
q29 129 132 230t275 101t263 -85q91 -86 98 -195q0 -203 -263 -344v-4q132 -23 232 -121t100 -227q0 -184 -164 -318t-413 -135z" />
    <glyph glyph-name="four" unicode="4" 
d="M233 508h357v453q0 29 -21 20q-8 -2 -18 -16l-332 -416q-14 -13 -10 -27t24 -14zM821 0h-209q-14 0 -19 4t-5 19v299h-529q-61 0 -61 36t37 82l733 926q26 33 54 33t28 -70v-821h129q25 0 25 -19v-147q0 -20 -33 -20h-121v-293q0 -17 -6 -23t-23 -6z" />
    <glyph glyph-name="five" unicode="5" 
d="M33 84q0 76 68 70q36 -4 106 -50q51 -30 147 -30t180 68q82 68 82 212q0 96 -44 161q-102 151 -373 153q-17 0 -27 7t-6 23l76 637q4 21 9 27t23 6h455q49 0 69 20t54 82q10 18 41 7q25 -6 18 -31l-77 -275q-8 -27 -22 -35t-62 -8h-433l-34 -225q39 2 139 -13t164 -38
q119 -45 192 -143q76 -94 76 -244q0 -207 -168 -351t-403 -145q-99 0 -175 34t-75 81z" />
    <glyph glyph-name="six" unicode="6" 
d="M680 385q0 133 -45 231t-131 98t-118 -31q-32 -32 -38 -90t-6 -148q0 -91 8 -147t22 -114t50 -98q35 -41 76 -41t64 8t61 41q31 37 41 99q16 59 16 192zM487 -31q-201 0 -303 135q-125 164 -125 404q0 188 76 356q82 170 191 279q166 166 401 237q90 27 115 13
q10 -10 10 -19q0 -31 -47 -49q-133 -49 -265 -211t-173 -340l12 -6q33 32 97 56t128 24q178 0 267 -114t90 -267q0 -242 -134 -365q-73 -68 -149 -100t-191 -33z" />
    <glyph glyph-name="seven" unicode="7" 
d="M360 -31q-60 0 -94 37q-35 38 -35 106t91 226q33 57 211 349t276 448h-473q-102 0 -150 -48q-23 -23 -55 -65q-13 -20 -35 -8t-23 15t3 20l129 381q1 14 25 14t29 -8t2 -30t17 -30t101 -8h616q47 0 -16 -98q-39 -59 -117 -213t-110 -235t-60 -150q-64 -180 -92 -273
q-27 -94 -27 -98l-47 -174q-18 -68 -62 -113t-104 -45z" />
    <glyph glyph-name="eight" unicode="8" 
d="M352 1068q0 -91 52 -145t184 -128q139 96 139 268q0 109 -51 174q-49 70 -138 69q-90 -1 -138 -74t-48 -164zM517 49q83 0 138 62q51 63 51 163t-60 166q-62 66 -214 150q-135 -106 -135 -289q0 -119 68 -186q69 -66 152 -66zM506 -31q-203 0 -305 86q-101 86 -101 208
t68 208q68 92 192 168q-88 61 -114 86q-31 23 -74 68t-66 100q-14 57 -14 113q0 139 125 268q127 125 344 125q156 0 262 -83q107 -83 107 -201t-58 -195q-55 -80 -204 -166q150 -78 220 -173t70 -235t-124 -260q-125 -117 -328 -117z" />
    <glyph glyph-name="nine" unicode="9" 
d="M514 1323q-88 0 -137 -82q-45 -85 -45 -229t55 -245t134 -101t120 41q31 35 31 258q0 358 -158 358zM508 1399q123 0 203 -35t141 -117q115 -156 115 -321q0 -213 -86 -425t-243 -342t-331 -179q-37 -10 -63 -11q-33 0 -33 31q0 23 27 35q131 49 258 211q119 160 149 360
h-14q-77 -59 -233 -59t-244 115q-88 114 -88 238t45 226q41 104 102 160q131 113 295 113z" />
    <glyph glyph-name="colon" unicode=":" horiz-adv-x="573" 
d="M284 889q72 0 118 -46t46 -116t-43 -113q-44 -43 -115 -43t-118 45q-47 46 -47 108t43 116q43 49 116 49zM292 -29q-69 0 -120 45q-47 52 -47 112t43 110t118 51q75 0 115 -47q47 -41 47 -113t-43 -115q-44 -43 -113 -43z" />
    <glyph glyph-name="semicolon" unicode=";" horiz-adv-x="573" 
d="M284 889q72 0 118 -46t46 -116t-43 -113q-44 -43 -115 -43t-118 45q-47 46 -47 108t43 116q43 49 116 49zM111 104q0 68 41 118q40 50 118 50t136 -76t59 -170q0 -94 -35 -169q-39 -70 -88 -117q-106 -102 -176 -133q-14 -8 -43 -8t-29 20q0 10 21 31q154 137 153 258
q0 50 -53 63q-47 16 -63 37q-13 6 -25 31q-12 24 -12 35q-4 10 -4 30z" />
    <glyph glyph-name="less" unicode="&#x3c;" 
d="M799 72l-629 374v93l629 372v-170l-426 -239v-8l426 -248v-174z" />
    <glyph glyph-name="equal" unicode="=" 
d="M106 438h814v-155h-814v155zM106 748h814v-156h-814v156z" />
    <glyph glyph-name="greater" unicode="&#x3e;" 
d="M225 911l629 -374v-93l-629 -372v170l426 239v8l-426 248v174z" />
    <glyph glyph-name="question" unicode="?" horiz-adv-x="778" 
d="M121 102q0 55 39 99q45 41 110 41t109 -37q43 -41 43 -103t-39 -96q-39 -35 -115 -35q-147 4 -147 131zM297 553v-158q0 -14 -14 -14h-52q-14 0 -14 14v410q0 33 34 27t118 -7q84 0 143 33q57 35 57 109q0 37 -32 77q-33 39 -82 60q-109 43 -191 43t-133 33
q-43 37 -43 94t34 91t93 34q150 0 326 -180t176 -365q0 -113 -43 -166q-25 -31 -44 -50q-18 -20 -64 -34t-66 -22q-33 -13 -127 -13h-60q-16 0 -16 -16z" />
    <glyph glyph-name="at" unicode="@" horiz-adv-x="1644" 
d="M1114 492q0 -41 53 -41t152 118q45 59 76 161t30 226q-1 221 -115 331t-320 110t-384 -123q-178 -131 -270 -316q-98 -188 -98 -387q0 -238 143 -374q150 -135 377 -135t366 71q14 6 19 0l20 -39q8 -14 -8 -24q-66 -41 -192 -74q-127 -27 -240 -27q-330 0 -511 157
t-181 406q0 248 138 468t360 350t497 131q276 -1 432 -145t156 -402q0 -135 -72 -266t-219 -217q-143 -90 -334 -91q-41 0 -63 21q-27 20 -27 47q0 80 51 213l-10 4q-16 -23 -38 -53t-32 -44q-10 -16 -68 -75t-118 -84q-56 -29 -118 -29t-101 33q-37 37 -37 103
q0 120 89 276t220 268q137 109 248 109q82 0 105 -72l26 39q9 14 21 14h149q27 0 10 -34q-33 -76 -122 -342q-59 -188 -60 -262zM1024 981q0 96 -66 96q-98 1 -193 -195t-95 -321q0 -68 51 -67q41 0 135 131q102 137 127 198q41 105 41 158z" />
    <glyph glyph-name="A" unicode="A" horiz-adv-x="1484" 
d="M653 1231q-16 0 -24 -27q-140 -364 -203 -561h403l-153 543q-12 45 -23 45zM1145 0l-222 -4l-44 -2h-17q-23 0 -22 26v39q0 18 12 19h57q39 0 56 16q14 18 6 58q-41 165 -123 409h-449q-117 -307 -117 -395t80 -88h72q23 0 23 -17v-45q0 -23 -19 -22q-20 0 -43 2l-235 4
h-115l-108 -6q-14 0 -15 26v39q0 18 15 19h53q80 0 139 90q12 18 104 231q107 266 183 458t155 427q14 47 2 70q-14 16 -14 27t21 18q63 14 136 46t92 53t28 22q12 0 26 -48t100 -304t134 -402q37 -131 112 -338q72 -213 98 -261t58 -67q33 -23 59 -22h70q14 0 14 -19v-39
q0 -27 -18 -26q-20 0 -43 2z" />
    <glyph glyph-name="B" unicode="B" horiz-adv-x="1411" 
d="M553 737v-405q0 -147 37 -209q33 -66 117 -66q125 0 203 76t79 252q0 119 -48 201t-139 116t-249 35zM553 963v-156q76 -6 155 7t119 50q99 86 99 234t-84 215q-46 37 -106 55t-87 18q-86 0 -90 -34q-6 -61 -6 -389zM182 -2q-31 0 -43 -2h-28q-6 -2 -17 -2q-23 0 -22 22
v45q0 16 20 17h72q45 0 57 18q17 16 25 85t8 468v242q0 260 -4 348q-4 89 -26 111t-83 22h-65q-10 0 -12 2t-3 17v47q1 18 19 18t45 -2l272 -4q61 0 138 4l190 2q254 0 350 -55q158 -86 158 -279q0 -111 -74 -196q-68 -88 -225 -142v-4q199 -53 293 -149t94 -256
q0 -90 -46 -184t-114 -128q-145 -76 -481 -75q-25 0 -53 2l-238 10h-129q-47 -2 -78 -2z" />
    <glyph glyph-name="C" unicode="C" horiz-adv-x="1540" 
d="M872 -31q-190 0 -313 46q-123 47 -231 143t-164 250q-59 150 -60 297q0 332 211 555q205 221 541 221q254 0 412 -86q37 -18 43 2l16 51q4 12 33 12t35 -5t6 -35t19 -218t28 -223q2 -25 -10 -27l-45 -12q-14 -6 -25 23q-39 145 -164 274q-156 154 -358 154t-314 -166
q-106 -168 -104 -410q0 -127 43 -279t139 -255q152 -154 320 -154q168 1 296 65t187 154q14 27 31 16l35 -30q12 -8 0 -25q-234 -338 -607 -338z" />
    <glyph glyph-name="D" unicode="D" horiz-adv-x="1722" 
d="M557 887v-146q0 -162 4 -501q0 -59 35 -113q34 -49 148 -49t219 49q104 53 180 152q145 195 145 466q0 129 -47 244q-85 243 -313 338q-115 51 -205 51t-126 -17t-38 -81t-2 -393zM676 -4l-326 4h-143l-146 -6q-14 0 -14 18v54q0 12 16 12h107q59 0 66 49q14 94 14 659
v154q0 289 -10 375q-6 57 -68 57h-102q-16 0 -17 14v60q1 10 17 10t43 -2l276 -4l226 4l79 2q236 0 399 -37t296 -149q229 -190 229 -520q0 -170 -50 -299t-153 -240q-199 -217 -678 -217h-8z" />
    <glyph glyph-name="E" unicode="E" horiz-adv-x="1423" 
d="M131 1454l266 -4l719 2l82 4q12 0 14 -6l8 -24q5 -17 29 -125t49 -185q6 -14 -6 -20l-32 -17q-14 -8 -26 10t-110 111q-102 100 -131 117q-86 53 -155 55l-271 8l-6 -596q160 0 210 12t93 64q47 66 47 127q0 18 17 19l55 -7q20 -4 16 -16q-6 -35 -6 -176t13 -270
q4 -12 -17 -17l-49 -10q-6 -2 -9 1t-9 31t-39 89q-35 59 -115 71t-207 13v-123l10 -346q1 -134 49 -154t160 -20t186 7q72 7 148 67t207 219q12 12 20 6l35 -21q12 -6 8 -16l-92 -309q-10 -31 -45 -31q-8 0 -20 2h-64q-31 2 -124 2t-248 2h-535q-39 -2 -74 -2l-78 -2l-10 -2
q-18 0 -18 22v43q0 18 20 19h62q72 0 86 16q16 12 16 70v686q0 381 -6 436q-6 54 -24 70t-60 16h-80q-10 0 -10 21v49q0 14 14 14h4z" />
    <glyph glyph-name="F" unicode="F" horiz-adv-x="1288" 
d="M426 1450l476 4l190 2q14 0 63 4l37 2l6 2q14 0 21 -34l79 -334q4 -12 -6 -17l-41 -22q-10 -4 -28 20q-84 109 -160 189q-63 74 -137 93t-365 19v-243q-2 -162 -2 -316v-96q125 0 191 9q66 10 107 64q42 54 56 122q4 16 17 16l47 -4q12 0 12 -15q-4 -45 -4 -189t10 -257
q0 -14 -14 -16l-45 -11q-11 -7 -16 17q-40 151 -140 180q-72 14 -221 14v-78q0 -100 2 -229v-203q0 -66 49 -65h121q18 0 19 -12v-56q0 -16 -16 -16t-42 2l-274 4h-158l-151 -6q-12 0 -13 18v56q0 10 15 10h71q57 0 62 41q8 145 8 651v143l-4 400q0 59 -84 59h-84
q-18 0 -19 12v60q1 12 15 12t39 -2z" />
    <glyph glyph-name="G" unicode="G" horiz-adv-x="1720" 
d="M1649 559q0 -16 -15 -16h-59q-64 0 -64 -74v-270l9 -66q0 -20 -33 -33q-256 -131 -600 -131q-176 0 -334 60q-156 53 -260 174q-188 213 -189 563q0 145 64 278q63 141 174 236q231 201 580 201q272 0 428 -101q33 -18 51 6l20 33q14 20 27 21q29 0 29 -37l30 -422
q2 -33 -8 -37l-57 -12q-14 -2 -25 20q-63 201 -186 312q-133 127 -319 127t-314 -154q-164 -199 -164 -467q0 -176 46 -326t127 -232q81 -81 150 -113q69 -31 191 -31t209 41q31 14 39 56t8 136v148q0 51 -15 72t-56 22h-86q-14 0 -15 18v51q0 14 15 15l149 -4q48 -2 154 -2
t149 2l131 4q18 0 19 -17v-51z" />
    <glyph glyph-name="H" unicode="H" horiz-adv-x="1779" 
d="M653 -4l-247 4h-166l-105 -4q-25 -2 -47 -2t-22 22v54q8 8 20 8h94q57 0 58 94q6 289 6 547v88l-4 432q0 82 -15 104q-14 29 -55 29h-84q-25 0 -25 21v39q0 25 23 24q23 0 45 -2l260 -4l262 4q25 2 45 2t24 -5t3 -17v-43q0 -18 -25 -19h-49q-51 0 -69 -26
q-33 -47 -33 -500v-31q0 -16 33 -16h612q20 0 33 4q8 6 8 22v21q0 148 -6 254t-6 125v32l-2 11q-2 104 -48 104h-84q-20 0 -20 21v45q0 18 18 18h5l32 -2l262 -4l240 4q26 2 48 2t22 -22v-39q0 -23 -27 -23h-61q-42 0 -54 -22t-12 -82l-4 -451v-69q0 -229 6 -568
q0 -57 18 -80t64 -22h70q18 0 18 -19v-45q0 -20 -22 -20t-43 2l-244 4l-256 -4l-47 -2h-19q-27 0 -26 20v45q0 18 22 19h90q33 0 45 22q8 23 13 68q8 172 8 491v25q0 25 -45 25h-613q-29 0 -28 -25v-31q0 -203 14 -506q2 -70 68 -69h57q18 0 19 -17v-49q0 -18 -19 -18h-4z
" />
    <glyph glyph-name="I" unicode="I" horiz-adv-x="849" 
d="M586 1319l-4 -334v-69l-2 -81v-184l2 -84v-161q4 -164 4 -232t16 -82t53 -14h84q16 0 17 -15v-57q0 -12 -18 -12t-42 2l-260 4h-170l-155 -6q-16 0 -17 16v56q0 12 17 12h59q84 0 92 55q10 86 10 582v143q0 348 -8 445q-6 70 -67 69h-99q-16 0 -16 12v60q0 12 17 12
t44 -2l283 -4l262 4q25 2 40 2t15 -18v-52q0 -14 -16 -14h-59q-82 0 -82 -53z" />
    <glyph glyph-name="J" unicode="J" horiz-adv-x="733" 
d="M229 139l-4 450l-2 91v143q0 397 -6 480q-10 31 -14 39t-25 22q-25 8 -51 8h-70q-14 0 -14 10v60q0 14 15 14t38 -2l285 -4l260 4q23 2 41 2t18 -16v-51q0 -16 -16 -17h-72q-72 0 -75 -55q-6 -98 -7 -543v-94q0 -154 -2 -229l-6 -279q0 -323 -289 -532q-129 -88 -292 -89
q-51 0 -105 37q-49 38 -49 100t34 102q33 40 95 40t104 -43q43 -55 74 -123q31 0 64 33q31 37 51 108q20 72 20 334z" />
    <glyph glyph-name="K" unicode="K" horiz-adv-x="1515" 
d="M246 874l-4 305v60l-2 72v12q0 49 -62 49h-51q-16 0 -16 14v58q0 12 16 12t37 -2l233 -4l234 4q23 2 39 2t16 -16v-54q0 -14 -14 -14h-49q-68 0 -68 -59v-10l-2 -64v-125q-4 -129 -4 -252v-76h35q28 0 56 25t185 221q121 145 211 264q26 36 10 58t-51 22h-34
q-10 0 -11 15v51q0 14 16 14t38 -2l229 -4l150 4h20l22 2h5q14 0 14 -14v-56q0 -14 -17 -14h-32q-59 0 -128 -41t-219 -205t-221 -258q81 -101 280 -373q198 -271 275 -366q45 -51 111 -51h25q14 0 14 -15v-55q0 -14 -15 -14t-38 2l-256 4h-138l-141 -6q-12 0 -12 16v53
q0 12 12 13h31q25 0 31 19t-7 45t-176 266q-163 248 -189 276t-56 27h-29v-154q0 -346 6 -432q2 -45 47 -45h64q16 0 16 -12v-58q0 -14 -14 -14t-35 2l-240 4h-147l-125 -6q-14 0 -15 14v58q0 12 15 12h63q45 0 56 37q6 55 6 641v118z" />
    <glyph glyph-name="L" unicode="L" horiz-adv-x="1357" 
d="M555 817v-176q0 -477 6 -559h117q176 0 299 10q72 6 160 127t120 205q8 23 25 12l41 -16q6 -4 4 -19q-18 -41 -100 -407q-80 6 -832 6h-157l-105 -4q-23 -2 -40 -2t-17 18v51q0 14 14 15h64q88 0 88 51q0 106 4 305l2 369v115q0 283 -5 352q-5 70 -17 86t-46 16h-76
q-14 0 -14 21v49q0 14 14 14t39 -2l244 -4l305 4q25 2 41 2t17 -20v-47q0 -16 -21 -17h-96q-45 0 -59 -14t-13 -62l-4 -301q-2 -78 -2 -178z" />
    <glyph glyph-name="M" unicode="M" horiz-adv-x="2027" 
d="M387 1450l141 4h18l23 2h2q37 0 50 -35q45 -123 185 -469t208 -526q10 16 36 80t59 138q32 74 48 118l47 112q0 9 79 194q79 186 95 230t25 64q8 20 12 32t8 19q4 8 4 12q6 25 95 25l370 4q27 2 40 2t14 -18v-47q0 -18 -17 -19h-90q-53 0 -53 -80q0 -463 4 -679
q4 -217 4 -287v-105l2 -33q0 -111 47 -110h99q14 0 14 -15v-51q0 -18 -19 -18q-12 0 -30 2l-273 4h-164l-151 -6q-16 0 -16 18v51q0 14 16 15h115q29 0 41 13t18 79t6 518v625h-12q-40 -80 -162 -374q-121 -294 -126 -303t-29 -69t-72 -169q-47 -108 -71 -170
q-23 -62 -37 -95t-19 -47q-6 -14 -6 -16q-29 -47 -51 -47t-35 36q-260 601 -287 675t-131 322t-115 267q-12 -43 -12 -449t14 -606q6 -66 33 -129q31 -61 74 -61h80q14 0 14 -15v-55q-1 -14 -17 -14t-34 2l-195 4h-139l-125 -6l-14 2q-4 4 -5 16v54q0 12 13 12h84
q76 0 98 160q13 96 25 355t12 310l-2 314q0 78 -25 116q-20 39 -88 39h-67q-14 0 -15 14v58q-1 12 13 12t34 -2z" />
    <glyph glyph-name="N" unicode="N" horiz-adv-x="1658" 
d="M272 0l-141 -4l-47 -2h-17q-9 0 -10 18v54q0 12 13 12h71q72 0 88 203q18 350 19 669v185q0 98 -51 163q-47 70 -125 74l-52 2q-12 0 -12 15v55q0 12 10 12t25 -2h43q111 -4 213 -4l156 4q35 0 59 -27l475 -581l350 -436h9v186q0 578 -23 686q-10 47 -43 70
q-35 20 -68 20h-65q-12 0 -12 19v51q0 14 17 14t36 -2l205 -4l166 4q14 2 31 2t18 -16v-49q0 -18 -11 -19h-57q-51 0 -64 -120q-12 -120 -28 -409q-16 -288 -16 -450v-350q0 -68 -31 -68q-47 0 -80 33q-74 68 -258 287l-350 416q-12 12 -77 94q-66 82 -166 207t-122 159h-16
v-413q0 -150 10 -319t10 -181q6 -180 127 -180h51q16 0 17 -19v-49q0 -16 -17 -16l-90 2q-123 4 -170 4z" />
    <glyph glyph-name="O" unicode="O" horiz-adv-x="1775" 
d="M432 748q0 -160 49 -304t125 -222q150 -156 297 -156q111 0 195 51t128 120t77 160q33 106 36 164q11 57 11 171t-47 251t-123 223q-157 178 -297 178h-52l-24 -4q-16 -4 -35 -8q-44 -8 -94 -46t-64 -52q-86 -82 -134 -224t-48 -302zM868 -31q-246 0 -462 133
q-125 76 -211 238q-90 162 -91 371q0 281 191 510q211 260 596 260q150 0 262 -35q115 -29 243 -131t197 -252q78 -154 78 -356q0 -244 -153 -449q-112 -139 -258 -214t-392 -75z" />
    <glyph glyph-name="P" unicode="P" horiz-adv-x="1310" 
d="M662 686q60 0 122 41q63 41 101 96q49 77 49 197q0 221 -115 299q-94 63 -174 63q-45 0 -96 -10v-674q53 -12 113 -12zM715 612q-84 0 -166 6v-75q0 -334 5 -400t56 -65h105q16 0 16 -15v-53q0 -16 -18 -16t-41 2l-291 4h-143l-101 -4q-23 -2 -39 -2t-16 14v55
q0 14 12 15h53q51 0 69 11t24 67t6 561v235q0 309 -4 375q-4 29 -17 37q-14 8 -49 8h-96q-12 0 -12 17v53q0 14 14 14t37 -2l272 -4q43 0 101 4l124 2q188 0 296 -21q205 -40 305 -227q39 -88 38 -182q0 -188 -143 -301t-397 -113z" />
    <glyph glyph-name="Q" unicode="Q" horiz-adv-x="1783" 
d="M899 57q106 0 187 48q80 48 130 120q104 151 127 324q12 74 13 133q0 174 -53 313q-49 139 -127 234q-125 156 -308 155q-111 0 -258 -116q-180 -178 -180 -477q0 -340 201 -596q45 -57 130 -97t138 -41zM2187 -272q88 0 148 59q12 12 24 4l29 -24q8 -6 0 -25
q-41 -66 -139 -154t-181 -88q-199 0 -544 119t-758 338l-88 23q-84 22 -192 78t-187 143q-88 90 -141 226t-54 298q0 334 238 555q114 102 258 154t281 47q387 6 596 -213t202 -523q4 -160 -57 -301q-51 -135 -154 -237q-158 -158 -366 -221v-4q221 -90 483 -156
q406 -98 602 -98z" />
    <glyph glyph-name="R" unicode="R" horiz-adv-x="1505" 
d="M642 709q74 0 144 39q108 61 156 219q14 61 14 96q0 152 -77 229q-102 90 -228 90q-57 0 -73 -13t-27 -60l-10 -598q27 -2 101 -2zM112 -6q-15 0 -16 20v47q0 16 10 17h62q82 0 82 65q4 271 4 590v199q0 301 -2 338q-4 102 -57 102h-82q-12 0 -13 14v56q0 14 12 14t33 -2
l273 -4q109 0 200 4l179 2q219 0 362 -135q117 -109 117 -223q0 -180 -110 -278t-265 -115v-15q97 -33 180 -176q25 -35 60 -92t43 -67q8 -11 59 -88t113 -146q14 -19 62 -31t87 -12q16 0 17 -17v-49q0 -18 -17 -18q-10 0 -26 2l-201 4q-16 0 -195 -6q-74 59 -223 354
q-68 135 -127 213t-125 78h-69v-104q0 -301 9 -379t52 -78h84q16 0 16 -17v-49q0 -8 -4 -16h-10q-10 -2 -18 -2h-4q-6 0 -13 2h-57q-12 4 -47 4h-309l-95 -4q-16 -2 -31 -2z" />
    <glyph glyph-name="S" unicode="S" horiz-adv-x="1175" 
d="M569 66q90 0 173 58t83 177t-51 180q-56 57 -232 123t-313 187q-102 90 -102 290q0 100 34 170t120 131q133 98 295 98t272 -40q29 -12 47 10l27 27q12 12 28 12t23 -35l33 -350q0 -8 -11 -12l-45 -15q-18 -6 -26 15q-47 127 -127 213q-77 86 -191 86q-114 -1 -172 -65
t-59 -122q0 -135 53 -188q76 -78 270 -133q136 -41 256 -149t120 -306q0 -199 -126 -329q-125 -130 -342 -130t-348 88q-35 23 -46 23q-12 0 -30 -30t-41 -30q-31 0 -28 33l32 389q3 15 17 15l53 -4q14 0 14 -17q6 -113 82 -231q90 -139 258 -139z" />
    <glyph glyph-name="T" unicode="T" horiz-adv-x="1511" 
d="M397 57q0 20 15 21h104q62 0 68 60t6 712v506h-72q-184 0 -274 -33q-49 -35 -187 -231q-10 -18 -20 -15l-45 17q-12 2 -8 18q80 301 98 397q10 35 31 35q14 0 45 -38t129 -44q217 -12 407 -12h119q139 0 397 12q29 2 84 17q51 21 74 43t40 22t24 -33l61 -407
q4 -16 -8 -19l-43 -16q-8 -2 -21 18q-90 147 -176 230q-63 39 -280 39h-68v-563q0 -612 2 -633q6 -82 70 -82h92q20 0 20 -21v-47q0 -16 -20 -16q-12 0 -35 2l-278 4h-173l-159 -6q-18 0 -19 24v39z" />
    <glyph glyph-name="U" unicode="U" horiz-adv-x="1495" 
d="M1468 1456q20 0 21 -18v-45q0 -20 -12 -21h-64q-45 0 -74 -33q-8 -21 -13 -51q-5 -31 -5 -342t-10 -459q-19 -254 -169 -386t-358 -132t-323 51q-164 72 -238 271q-43 108 -43 493v484q0 104 -57 104h-96q-14 0 -15 19v49q0 16 18 16t44 -2l293 -4l258 4q27 2 44 2
t17 -16v-54q0 -14 -16 -14h-70q-51 0 -76 -24q-28 -20 -32 -68t-5 -254v-135q0 -70 11 -434q2 -166 65 -244q96 -115 256 -115q61 0 133 29t109 61q129 117 129 334v316q0 276 -29 444q-6 33 -26 66q-25 25 -50 24h-65q-14 0 -14 17v53q0 14 16 14t39 -2l213 -4l164 4
q18 2 30 2z" />
    <glyph glyph-name="V" unicode="V" horiz-adv-x="1396" 
d="M559 1372q-88 0 -88 -60q0 -102 143 -495l156 -457h8q100 233 187 467q71 180 113 297t42 181q0 25 -22 45q-18 23 -62 22h-63q-10 1 -10 19v51q0 14 14 14t37 -2l211 -4l231 4q18 2 30 2t13 -18v-52q0 -14 -14 -14h-47q-90 0 -152 -106q-46 -77 -136 -294
q-92 -216 -108 -251t-158 -361t-163 -366q-23 -35 -47 -35t-53 60q-28 60 -116 283q-87 223 -160 408t-119 312t-103 283q-27 68 -88 67h-53q-10 0 -11 21v49q1 14 15 14t34 -2l299 -4q119 0 170 2l113 2q27 2 41 2q20 0 21 -18v-47q0 -18 -17 -19h-88z" />
    <glyph glyph-name="W" unicode="W" horiz-adv-x="2150" 
d="M2178 1456q14 0 13 -18v-52q0 -14 -14 -14h-39q-70 0 -96 -74q-8 -25 -80 -211q-137 -373 -161 -437t-122 -330t-114 -297q-27 -63 -62 -64q-28 0 -51 55l-367 1028h-12l-389 -1032q-18 -51 -51 -51q-27 0 -43 41l-461 1298q-27 74 -84 74h-51q-12 0 -12 17v53
q0 14 14 14t33 -2l260 -4l215 4q20 2 36 2t17 -16v-51q0 -16 -16 -17h-45q-25 0 -37 -20t-4 -49l280 -893h13q0 2 6 16t18 50t65 180t142 401q39 129 39 147q0 78 -33 123t-67 45h-41q-12 0 -13 17v53q0 14 14 14t35 -2l236 -4l233 4q23 2 37 2t15 -18v-52q0 -14 -15 -14
h-61q-25 0 -37 -28t-4 -52l282 -882h13q279 768 278 909q0 18 -18 37q-23 16 -47 16h-60q-14 0 -14 19v51q0 14 16 14t35 -2l185 -4l161 4q16 2 30 2z" />
    <glyph glyph-name="X" unicode="X" horiz-adv-x="1419" 
d="M1392 1456q16 0 17 -18v-47q0 -18 -12 -19h-56q-82 0 -129 -35q-70 -53 -399 -524q322 -537 426 -684q37 -51 111 -51h67q17 -1 17 -15v-53q0 -16 -17 -16l-33 2l-288 4h-142l-147 -6q-16 0 -16 18v51q0 14 12 15h31q63 0 63 34t-258 482h-8q-283 -424 -283 -463
q0 -25 14 -39t37 -14h60q16 0 16 -12v-54q0 -18 -15 -18t-38 2l-229 4h-105l-117 -6q-12 0 -12 22v47q0 14 12 15h49q78 0 154 63q20 18 62 60q100 119 184 237q84 117 172 240q-33 49 -133 223q-128 207 -180 297q-80 126 -108 150t-89 24h-70q-10 0 -10 17v51q0 16 10 16
q16 0 41 -2l281 -4l272 4q23 2 38 2t15 -18v-47q0 -18 -18 -19h-49q-57 0 -57 -45q0 -25 93 -195t134 -237h8q33 49 57 88q31 41 63 94t65 104q33 50 57 93q16 39 16 51q0 47 -57 47h-51q-12 0 -13 19v51q-1 14 15 14t41 -2l223 -4l172 4q18 2 34 2z" />
    <glyph glyph-name="Y" unicode="Y" horiz-adv-x="1255" 
d="M1350 1456q14 0 14 -16v-49q0 -18 -16 -19h-37q-78 0 -110 -40t-205 -326t-232 -398v-227q0 -166 5 -220q5 -55 23 -69t50 -14h59q14 0 14 -15v-51q0 -18 -16 -18t-39 2l-256 4h-162l-102 -4q-20 -2 -34 -2t-13 20v49q0 14 14 15h72q68 0 72 47q6 86 6 381v88
q-68 131 -211 381q-158 291 -201 350q-37 47 -106 47h-31q-14 0 -14 14v58q0 12 15 12t40 -2l256 -4l268 4q23 2 37 2t14 -14v-51q0 -18 -14 -19h-47q-49 0 -49 -53q0 -31 143 -315q143 -283 156 -310q39 59 116 208q76 149 99 188q92 184 92 211t-25 49t-53 22h-55
q-14 0 -15 19v53q0 12 14 12t40 -2l217 -4l178 4q15 2 29 2z" />
    <glyph glyph-name="Z" unicode="Z" horiz-adv-x="1439" 
d="M571 1376q-61 0 -107 -34t-140 -138t-118 -135q-24 -32 -36 -27l-35 19q-8 4 -6 18l129 365q10 23 29 22q1 0 71 -8t338 -8t502 6q104 6 140 6t42 -16q12 -16 -1 -32q-47 -56 -703 -980q-213 -295 -254 -352h493q97 0 145 19t152 126q111 106 144 150q12 12 26 6l35 -18
q10 -10 -5 -35t-146 -338q-8 -20 -22 -20t-56 5q-184 23 -623 23h-479q-39 0 -39 16q-1 24 23 60t202 286t502 703l223 311h-426z" />
    <glyph glyph-name="bracketleft" unicode="[" horiz-adv-x="716" 
d="M182 1530h441q12 0 12 -12v-50q0 -16 -17 -16h-204q-20 0 -21 -22v-1678q0 -29 15 -28h231q16 0 16 -19v-43q0 -16 -18 -16h-453q-23 0 -22 22v1843q0 19 20 19z" />
    <glyph glyph-name="backslash" unicode="\" horiz-adv-x="768" 
d="M25 1458l106 43q10 6 21 -10l600 -1442q8 -25 -4 -29l-111 -45q-6 -4 -10 0t-15 25l-596 1430q-5 20 9 28z" />
    <glyph glyph-name="bracketright" unicode="]" horiz-adv-x="716" 
d="M532 -354h-452q-18 0 -19 16v43q0 18 17 19h233q12 0 13 24v1682q0 23 -19 22h-207q-16 0 -16 16v50q0 12 12 12h441q20 0 20 -19v-1843q0 -22 -23 -22z" />
    <glyph glyph-name="asciicircum" unicode="^" 
d="M29 512l436 856h96l436 -856h-180l-301 606h-10l-303 -606h-174z" />
    <glyph glyph-name="underscore" unicode="_" 
d="M0 -256v102h1024v-102h-1024z" />
    <glyph glyph-name="grave" unicode="`" horiz-adv-x="471" 
d="M162 1354q51 0 94 -70l152 -250q6 -10 0 -16l-29 -23q-6 -6 -14 2l-259 181q-39 26 -44 70t24 75q25 31 76 31z" />
    <glyph glyph-name="a" unicode="a" horiz-adv-x="933" 
d="M522 172v291q-14 -4 -35 -21q-47 -18 -94 -61q-12 -17 -25 -31q-14 -14 -22 -43t-8 -87q0 -57 27 -85q23 -33 61 -37q36 2 66 31t30 43zM168 520q-51 0 -74 21q-27 20 -26 53q0 94 57 143q170 152 393 152q90 0 133 -12q45 -18 76 -48q57 -51 57 -174l4 -407
q4 -90 12 -115t41 -25q32 0 54 37q10 16 20 11l29 -17q14 -8 6 -28q-22 -51 -72 -95t-135 -45q-143 0 -194 125h-10q-72 -66 -177 -106q-51 -18 -147 -19q-53 0 -96 54q-39 55 -39 135q0 164 176 250q219 104 264 135v108q0 84 -29 111t-89 27t-107 -33q-14 -8 -16 -23
l10 -98q0 -53 -35 -85t-86 -32z" />
    <glyph glyph-name="b" unicode="b" horiz-adv-x="1075" 
d="M733 254q7 33 4 86v43q0 188 -63 274t-156 86q-70 1 -127 -38v-269q0 -231 15 -274q2 -8 10 -25q45 -88 119 -88q121 0 170 107q4 10 16 39t12 59zM406 1424q0 -26 -6 -151q-6 -126 -7 -249l-4 -233q98 98 275 98q96 0 167 -51q74 -49 123 -123q60 -96 60 -264t-138 -324
t-331 -156q-152 1 -281 54l-84 -52q-10 -8 -24 -4l-29 11q-10 4 -6 24t4 344v764q0 96 -19 133q-23 33 -71 47l-29 8q-27 8 -26 17v24q0 10 22 21q150 41 311 117q57 31 72 30q25 0 25 -34v-9q-4 -16 -4 -42z" />
    <glyph glyph-name="c" unicode="c" horiz-adv-x="892" 
d="M520 889q172 -1 249 -65t77 -134q0 -40 -28 -68t-79 -28q-113 0 -147 108q-35 98 -121 99q-47 0 -90 -60q-45 -57 -45 -149v-125q2 -31 19 -103t46 -120q63 -119 220 -119q69 0 111 15t93 50q16 10 23 3l29 -29q8 -8 -3 -27q-34 -57 -146 -111t-241 -55q-221 0 -323 127
t-103 281q0 248 154 389q133 121 305 121z" />
    <glyph glyph-name="d" unicode="d" horiz-adv-x="1101" 
d="M488 809q-56 0 -95 -57q-65 -90 -65 -252t67 -279q68 -115 164 -115q57 0 98 41q21 21 21 99l-6 372q0 66 -20 103t-64 63t-100 25zM518 1407v39q0 12 17 16q289 25 343 36t56 11q20 0 18 -36q-12 -154 -12 -689v-452q0 -156 20 -188t93 -23q29 4 32 -15l7 -30
q4 -16 -15 -23l-307 -78q-18 -6 -29 19l-32 102q-47 -55 -128 -90t-154 -35q-73 1 -117 15t-120 84q-129 117 -129 290q0 128 31 218t113 180q119 131 303 131q98 0 166 -27l-8 414q-2 47 -29 73t-105 44q-14 2 -14 14z" />
    <glyph glyph-name="e" unicode="e" horiz-adv-x="923" 
d="M526 588q66 0 66 41q0 68 -27 125q-31 53 -73 53q-139 0 -162 -219h196zM797 510h-469v-55q0 -154 76 -236t194 -82q154 0 223 113q6 14 21 6l35 -18q16 -10 -5 -50q-37 -76 -136 -146t-226 -71q-217 1 -303 93t-114 164t-32 192q0 166 93 301q113 168 356 168
q88 0 164 -33q70 -37 104 -80q61 -89 78 -186q4 -41 4 -55q0 -13 -13 -19t-50 -6z" />
    <glyph glyph-name="f" unicode="f" horiz-adv-x="667" 
d="M35 12v45q0 14 20 15h68q55 0 55 67l-6 613h-131q-16 0 -12 22l10 72q2 14 24 14h109v62q0 283 172 446q154 141 346 141q94 0 152 -39t59 -95q0 -56 -38 -84t-75 -27q-90 0 -132 69t-78 70q-61 0 -103 -66q-17 -31 -24 -110v-174q2 -43 2 -107v-86h237q16 0 15 -20
l-11 -78q-3 -10 -26 -10h-215v-179q0 -68 -2 -139v-172q-4 -66 -1 -128t60 -62h74q23 0 22 -17v-41q0 -20 -14 -20q-6 0 -14 2h-89q-20 4 -79 4h-224l-135 -6q-16 0 -16 18z" />
    <glyph glyph-name="g" unicode="g" horiz-adv-x="1028" 
d="M233 -285q0 -86 74 -139q73 -53 191 -53t200 50t82 124q0 178 -266 166l-178 -8q-41 -9 -72 -51t-31 -89zM482 811q-62 -1 -106 -63t-44 -198t40 -182t99 -46q121 0 121 294q0 104 -19 138q-29 57 -91 57zM442 -557q-221 0 -324 60t-104 163q0 129 211 215v10
q-141 43 -141 167t182 214v7q-180 104 -180 311q0 117 98 209q100 90 292 90t296 -115q88 72 180 72q113 0 113 -107q0 -35 -29 -61q-26 -27 -64 -27t-58 33t-50 33t-49 -19q25 -43 25 -133q0 -131 -98 -225t-271 -94q-70 0 -121 6q-76 -45 -76 -95q0 -51 52 -63t200 -8
q150 4 225 -11t148 -71q100 -80 100 -207t-118 -227q-66 -53 -181 -90t-258 -37z" />
    <glyph glyph-name="h" unicode="h" horiz-adv-x="1146" 
d="M424 598v-442q0 -84 31 -84h41q16 0 16 -17v-39q0 -22 -14 -22t-39 2l-193 4h-119l-120 -6q-14 0 -15 20v41q0 16 31 17h33q59 0 69 34q10 41 11 136l-4 852q0 152 -97 188l-37 12q-16 10 -16 19v26q0 14 35 25q135 39 309 125q43 20 66 20q22 0 16 -52t-6 -570v-123h14
q80 125 262 125q113 0 209 -80q15 -11 27 -27t21 -27t15 -29t12 -27q5 -10 5 -27q4 -16 4 -33l4 -33v-237l-4 -267q0 -31 66 -30h39q23 0 22 -15v-43q0 -20 -13 -20t-32 2l-194 4h-117l-117 -6q-18 0 -18 22v39q0 16 14 17h27q43 0 49 39q6 86 6 198v236l-6 73q-4 25 -4 35
q-6 11 -8 23t-7 21q-32 73 -118 73q-55 0 -121 -72q-35 -45 -35 -100z" />
    <glyph glyph-name="i" unicode="i" horiz-adv-x="593" 
d="M27 14v41q0 16 20 17h76q35 0 39 41q4 82 4 182l-4 287q0 50 -20 78t-79 51q-25 10 -24 28v23q0 6 22 16l306 99q35 12 57 12t18 -35t-4 -334v-219q0 -162 2 -176q6 -53 37 -53h74q20 0 20 -19v-39q0 -20 -16 -20t-39 2l-252 4h-100l-121 -6q-16 0 -16 20zM434 1195
q0 -54 -40 -100q-40 -45 -112 -49t-116 41q-43 45 -43 101t47 97q47 42 116 42t107 -41q41 -37 41 -91z" />
    <glyph glyph-name="j" unicode="j" horiz-adv-x="552" 
d="M430 1195q0 -54 -40 -100q-40 -45 -112 -49t-116 41q-43 45 -43 101t47 97q47 42 116 42t107 -41q41 -37 41 -91zM432 496v-256q0 -310 -29 -448t-157 -245q-129 -104 -266 -104q-74 0 -127 33q-51 35 -51 83t30 87q31 39 74 39q74 0 114 -78q31 -57 79 -57t55 118
q8 199 6 482l-6 411q-4 65 -22 89t-81 48l-20 9q-12 6 -13 14v29q0 10 17 16l323 111q36 12 62 12t19 -34t-7 -359z" />
    <glyph glyph-name="k" unicode="k" horiz-adv-x="1073" 
d="M51 14v39q0 18 21 19h39q21 0 33 16t12 33v1057q0 63 -21 92q-20 35 -90 55q-29 10 -29 21v36q0 14 27 21q117 20 297 80q53 27 80 26q23 0 18 -34q-8 -84 -10 -674l-2 -299q33 0 68 30q70 63 124 132q58 62 58 84q1 40 -47 40q-16 0 -17 19v43q0 16 14 16t29 -2l191 -4
l164 4q14 2 25 2t12 -18v-43q0 -16 -13 -17h-24q-94 0 -248 -124q-86 -74 -131 -119l51 -62q30 -35 58 -69t88 -107l85 -102q74 -84 107 -109t100 -24q16 0 17 -19v-41q0 -18 -19 -18q-10 0 -28 2l-213 4h-105l-119 -6q-14 0 -14 24v33q0 16 12 17h15q20 0 20 26t-219 312
q-20 25 -45 24v-305q0 -53 39 -53h39q18 0 18 -17v-43q0 -18 -16 -18q-10 0 -29 2l-182 4h-117l-113 -6q-10 0 -10 20z" />
    <glyph glyph-name="l" unicode="l" horiz-adv-x="593" 
d="M14 53q0 18 27 19h61q55 0 56 88v651q0 295 -4 365q-2 84 -113 118l-37 13q-16 6 -16 22v31q0 12 18 16q63 14 182 52q120 38 166 59q46 22 62 22q23 0 18 -36q-4 -299 -4 -680v-383q0 -217 6 -275q2 -63 51 -63h70q23 0 23 -19v-39q0 -20 -14 -20t-34 2l-231 4h-139
l-133 -6q-14 0 -15 24v35z" />
    <glyph glyph-name="m" unicode="m" horiz-adv-x="1685" 
d="M43 12v41q0 8 4 17h6q8 2 15 2h57q37 0 39 51q2 23 2 139v258q0 70 -14 98q-12 35 -52 56l-41 24q-14 8 -14 17v24q0 13 12 19l265 116q31 14 47 15q23 0 28 -27l17 -117h10q47 66 122 105t168 39t148 -37q51 -31 101 -107h10q117 137 274 138q63 0 113 -15
q72 -37 137 -118q37 -56 37 -226v-147q0 -72 -8 -225q-2 -80 59 -80h41q23 0 23 -19v-39q0 -20 -15 -20q-10 0 -28 2l-76 2q-35 2 -117 2h-102l-109 -6q-16 0 -16 24v35q0 18 12 19h19q33 0 40 39q10 129 11 196v197q0 166 -33 198q-92 104 -223 -16q-31 -35 -31 -129v-405
q0 -80 35 -80h37q23 0 22 -19v-37q0 -23 -14 -22q-10 0 -25 2l-168 4h-123l-110 -6q-14 0 -14 20v37q0 4 2 10v7q8 4 18 4h29q49 0 49 145v303q0 172 -45 211q-24 25 -94 25t-115 -64q-35 -59 -33 -166v-329q0 -125 43 -125h19l18 -2l2 -17v-37q0 -23 -16 -22q-12 0 -31 2
l-188 4h-111l-109 -6q-16 0 -16 18z" />
    <glyph glyph-name="n" unicode="n" horiz-adv-x="1157" 
d="M70 -6q-12 0 -13 18v41q0 18 21 19h31q57 0 57 41v454q0 80 -82 119l-18 8q-14 6 -15 23v18q0 10 19 21l262 118q37 14 47 15q23 0 29 -25l22 -88h16q33 39 101 76t155 37q152 -1 212 -59t76 -102t16 -130v-217q0 -109 -9 -238q-4 -72 50 -71h55q23 0 22 -19v-37
q0 -23 -16 -22q-10 0 -31 2l-211 4h-108l-107 -6q-16 0 -16 22v37q0 18 27 19h22q31 0 37 47q12 80 12 213v219q0 207 -149 207q-47 0 -105 -41q-41 -31 -41 -158l-4 -420q0 -20 8 -49q12 -18 25 -18h27q20 0 20 -21v-39q0 -18 -12 -18t-29 2l-178 4h-115l-80 -4
q-18 -2 -30 -2z" />
    <glyph glyph-name="o" unicode="o" horiz-adv-x="1075" 
d="M535 57q88 0 128 109q39 109 39 282t-50 264t-123 91t-109 -55q-68 -104 -68 -299q0 -392 183 -392zM526 -29q-121 0 -198 33q-80 29 -158 117q-109 121 -109 323q0 82 47 180t130 160q133 104 314 104t320 -128q142 -126 142 -316t-134 -332t-354 -141z" />
    <glyph glyph-name="p" unicode="p" horiz-adv-x="1103" 
d="M422 217q0 -74 57 -120t123 -46t115 68q45 68 45 205q0 424 -213 424q-82 -1 -127 -56v-475zM46 -563q-16 0 -17 20v41q0 16 24 17h47q46 0 52 57t6 219l-2 756q0 55 -12 84t-56 49l-47 25q-14 8 -14 18v27q0 8 14 14l266 104q49 20 64 21q14 0 24 -43l15 -76h8
q40 49 114 84t146 35q158 0 254 -105q68 -74 90 -138t20 -146q2 -227 -133 -378t-334 -151q-96 0 -153 33l2 -313q4 -121 17 -149t55 -27h51q18 0 18 -21v-39q0 -18 -18 -18q-6 0 -15 2h-77q-20 4 -74 4h-96l-205 -4q-18 -2 -34 -2z" />
    <glyph glyph-name="q" unicode="q" horiz-adv-x="1093" 
d="M682 631q0 61 -51 123q-55 61 -111 61q-90 -4 -134 -93q-44 -88 -47 -164t-3 -161q8 -126 92 -227q59 -72 117 -72q86 0 137 43v490zM560 -563q-16 0 -15 22v41q0 14 22 15h54q51 0 53 39q8 109 8 278l2 211h-12q-94 -72 -244 -72q-150 1 -258 101q-109 100 -109 297
q0 254 185 417q115 102 286 103q114 0 218 -47l190 51q12 4 21 -4l16 -17q6 -6 0 -32q-22 -92 -23 -447v-454q0 -319 8 -371t46 -53h43q20 0 20 -13v-49q0 -16 -14 -16t-37 2l-223 4l-203 -4q-18 -2 -34 -2z" />
    <glyph glyph-name="r" unicode="r" horiz-adv-x="749" 
d="M25 14v39q0 18 22 19h59q47 0 54 49q4 78 4 231v170q0 61 -17 101q-18 31 -65 59l-35 20q-16 10 -16 19v18q0 10 16 17l287 125q23 8 33 8q23 0 24 -25l19 -159h14q92 197 244 196q48 0 78 -33t30 -81t-40 -85q-40 -36 -89 -36t-73 16t-58 16q-35 0 -49 -36
q-35 -74 -35 -121v-385q0 -84 64 -84h84q14 0 14 -19v-41q0 -18 -10 -18l-35 2l-256 4h-129l-127 -6q-12 0 -12 20z" />
    <glyph glyph-name="s" unicode="s" horiz-adv-x="794" 
d="M402 809q-58 0 -94 -31t-35 -83t34 -77q39 -25 135 -49t139 -47q44 -23 83 -63q66 -66 65 -174q0 -137 -100 -225t-267 -89q-78 0 -148 22t-85 33q-16 11 -18 31l-27 197q0 14 14 16l37 11q8 2 15 -9l81 -120q72 -104 179 -105q53 0 87 34t33 91q0 57 -43 86
q-37 29 -151 63t-181 95q-66 61 -67 166q0 158 104 232t231 75q126 0 212 -43q33 -14 37 -39l28 -152q2 -10 -8 -18l-37 -16q-8 -6 -20 6l-115 123q-60 59 -118 59z" />
    <glyph glyph-name="t" unicode="t" horiz-adv-x="698" 
d="M51 737q-33 0 -33 30q0 29 49 51t148 112q102 86 164 157q18 20 39 21q27 0 26 -31l-8 -217h260q8 0 14 -6t1 -12l-21 -88q-4 -16 -18 -17h-240q-4 -110 -4 -276v-162q0 -205 113 -205q63 0 106 25q8 8 19 -8l14 -31q8 -14 -8 -27q-115 -82 -287 -82q-96 0 -164 58
q-63 61 -63 133l4 305l2 270h-113z" />
    <glyph glyph-name="u" unicode="u" horiz-adv-x="1120" 
d="M410 401q-4 -84 4 -139q0 -39 12 -69q6 -31 23 -54q27 -43 92 -43h8q57 0 110 66q33 35 33 74l-2 481q0 66 -88 71q-35 4 -35 15v39q0 14 4 14q2 4 21 4h305q6 0 35 4h14q6 2 10 2q20 0 19 -20q-12 -111 -12 -279v-151q0 -186 5 -247t36 -60q42 0 66 6t26 -9l6 -38
q4 -13 -10 -17l-287 -71q-73 -26 -80 16l-12 110h-13q-33 -57 -110 -94q-74 -41 -148 -41t-90 4q-25 0 -65 25q-54 26 -94 98q-7 18 -17 30t-17 34q-7 23 -7 26l-9 33q0 16 -4 33v37q-2 16 -2 37v94l2 90q0 174 -2 206q-1 32 -25 50t-56 23t-33 12v41q0 16 22 16h299
q8 0 29 4h12q6 2 10 2q27 0 23 -24q-8 -66 -8 -277v-164z" />
    <glyph glyph-name="v" unicode="v" horiz-adv-x="970" 
d="M671 864l175 -4l145 4q16 2 29 2l16 -2l2 -16v-39q0 -20 -10 -21h-35q-69 0 -101 -36t-167 -316l-199 -426q-22 -41 -52 -41t-52 39q-22 38 -110 228t-148 339q-59 149 -109 199q-23 14 -45 14h-41q-12 1 -12 21v41q-1 16 17 16t34 -2l242 -4l184 4q16 2 34 2t17 -16v-41
q0 -20 -14 -21h-27q-53 0 -53 -34q0 -47 76 -238l88 -221h12q84 184 164 401q12 35 -5 64t-46 28h-37q-8 0 -8 21v41q0 16 12 16h4z" />
    <glyph glyph-name="w" unicode="w" horiz-adv-x="1396" 
d="M1272 860l124 4h19l6 2q14 0 15 -18v-43q0 -16 -15 -17h-20q-61 0 -82 -41t-155 -366q-134 -324 -163 -385q-13 -27 -37 -27q-24 1 -32 9t-23 40l-207 527h-12l-229 -543q-14 -33 -44 -33t-46 41l-297 723q-23 55 -72 55h-25q-14 1 -14 19v43q0 16 14 16t31 -2l211 -4
l151 4h23l8 2q16 0 17 -16v-45q0 -16 -17 -17h-26q-35 0 -19 -47l140 -424h12l125 320q8 20 2 60t-21 61q-16 18 -53 18h-14q-16 0 -17 17v45q0 16 19 16q12 0 31 -2l180 -4q68 0 94 2l61 2q15 2 29 2t14 -12v-45q0 -20 -12 -21h-28q-12 0 -25 -14q-8 -18 -2 -31l145 -403h8
l111 311q29 80 12 115q-12 35 -57 34h-29q-12 0 -12 17v47q0 14 12 14t29 -2z" />
    <glyph glyph-name="x" unicode="x" horiz-adv-x="880" 
d="M561 864l156 -4l123 4q12 2 22 2q18 0 19 -20v-41q0 -16 -17 -17h-24q-61 0 -88 -30l-29 -31q-39 -39 -55 -59q-34 -29 -138 -170q10 -12 114 -168t148 -206q46 -52 82 -52h33q11 -1 11 -17v-45q0 -16 -14 -16t-27 2l-209 4h-99l-106 -6q-16 0 -17 18v39q0 20 17 21h6
q15 0 23 18t-5 41l-114 188q-55 -61 -137 -198q-12 -18 -7 -35q12 -14 43 -14h25q10 0 10 -17v-45q0 -16 -14 -16t-29 2l-143 4h-84l-82 -6q-18 0 -18 22v37q0 18 16 19h33q43 0 84 28q42 28 138 144t118 149q-160 256 -256 367q-29 29 -70 28h-29q-14 0 -14 15v45
q0 18 16 18q10 0 29 -2l211 -4l156 4q20 2 33 2t14 -18v-39q0 -18 -10 -18h-15q-16 0 -16 -23t14 -43l96 -160l99 135q25 33 18 62q-6 29 -37 29h-24q-12 0 -13 16v43q0 16 11 16h2z" />
    <glyph glyph-name="y" unicode="y" horiz-adv-x="905" 
d="M629 864l153 -4l138 4h18l8 2q12 0 12 -20v-39q0 -18 -10 -19h-22q-45 0 -83 -50t-280 -572q-241 -521 -277 -581t-44 -68q-8 -18 -54 -46t-100 -28q-55 0 -88 33q-37 31 -37 84t31 84q54 65 156 12q39 -23 65 -8q15 8 75 132t77 177q-8 37 -117 315t-170 428
q-33 88 -72 88h-33q-16 0 -16 19v45q0 14 14 14t31 -2l217 -4l176 4q21 2 37 2t17 -18v-43q0 -16 -13 -17h-28q-43 0 -37 -47q0 -6 14 -56t57 -201q42 -150 64 -218h10q8 20 88 214t89 232t-7 54q-12 23 -47 22h-33q-14 0 -14 17v45q0 16 12 16h4z" />
    <glyph glyph-name="z" unicode="z" horiz-adv-x="929" 
d="M78 0q-43 0 -8 53l475 735h-144q-88 0 -146 -38t-175 -185q-8 -12 -25 -2l-24 17q-10 6 -4 20l114 295q81 -19 145 -27t253 -8h317q16 0 22 -13t-4 -28l-487 -745h184q131 0 312 211q16 18 26 10l27 -21q12 -10 4 -20l-137 -279q-74 25 -486 25h-239z" />
    <glyph glyph-name="braceleft" unicode="{" horiz-adv-x="716" 
d="M244 606q0 -18 34 -33q174 -81 173 -270q0 -53 -25 -164q-27 -97 -25 -201t62 -163q59 -66 178 -66q27 0 27 -35q0 -16 -10 -22t-37 -6q-254 0 -353 84q-102 80 -102 241q0 101 41 229t41 181q0 182 -135 192q-41 4 -41 35q0 39 41 39q79 0 107 44q28 43 28 115t-41 202
t-41 198q0 158 103 241t354 83q45 0 45 -29q0 -35 -25 -35q-119 0 -181 -59t-62 -151t25 -190q26 -99 26 -165q0 -65 -35 -135t-86 -96q-6 -2 -22 -12t-25 -12q-39 -15 -39 -40z" />
    <glyph glyph-name="bar" unicode="|" horiz-adv-x="716" 
d="M424 -532h-127q-12 0 -12 20v2054q0 18 12 19h123q14 0 14 -25v-2048q0 -20 -10 -20z" />
    <glyph glyph-name="braceright" unicode="}" horiz-adv-x="716" 
d="M266 913q0 70 27 162q25 109 24 166q-4 105 -64 165t-177 60q-27 0 -27 35q0 17 8 23t39 6q254 0 353 -84q102 -80 102 -242q0 -74 -41 -190t-41 -178q0 -184 135 -193q41 -4 41 -35q0 -39 -41 -39q-80 0 -108 -44q-28 -45 -27 -113q0 -68 41 -208t41 -235
q1 -159 -103 -241t-354 -82q-45 0 -45 28q0 35 25 35q119 -1 181 59t62 163q1 103 -25 214t-26 175t35 132q35 67 86 93q15 8 33 16t26 17q8 2 18 11t9 23q1 14 -39 33q-40 20 -49 29q-119 86 -119 239z" />
    <glyph glyph-name="asciitilde" unicode="~" 
d="M918 674q0 -180 -58 -264q-59 -82 -148 -82t-177 57l-80 49q-82 49 -122 49t-65 -44t-22 -130h-140q0 172 64 260t150 88t157 -45l90 -57q82 -55 127 -55q90 0 84 174h140z" />
    <glyph glyph-name="uni00A0" unicode="&#xa0;" horiz-adv-x="409" 
 />
    <glyph glyph-name="exclamdown" unicode="&#xa1;" horiz-adv-x="532" 
d="M262 -557q-82 0 -119 44t-37 138q0 37 62 357q59 328 65 424q0 14 15 14h37q14 0 14 -21q8 -103 61 -423t54 -351q0 -182 -152 -182zM279 889q69 0 109 -42q40 -41 40 -103t-39 -101q-43 -37 -109 -37t-108 37q-41 37 -41 94t37 107q41 45 111 45z" />
    <glyph glyph-name="cent" unicode="&#xa2;" 
d="M498 -25q-10 0 -11 11l11 239q-111 6 -178 35q-67 30 -131 102t-86 140t-21 151q0 162 123 310q125 143 334 167l8 197q0 12 12 12h64q10 0 10 -10l-8 -194q167 -5 237 -65t70 -128q-2 -100 -104 -100t-132 84q-30 96 -75 110l-33 -671q53 -4 57 -5q135 0 244 84
q16 10 18 2l33 -32q10 -8 -6 -25q-133 -160 -352 -166l-11 -237q0 -10 -10 -11h-63zM504 391l31 658q-70 -4 -122 -81q-53 -77 -53 -238t89 -288q24 -31 55 -51z" />
    <glyph glyph-name="sterling" unicode="&#xa3;" 
d="M760 45q47 0 67 59q8 37 -28 37q-47 0 -75 23q-28 22 -28 66t35 82t87 38t96 -44t44 -124t-68 -151q-68 -72 -217 -72q-150 0 -216 29q-66 23 -164 121l-60 59q-20 20 -45 25h-14q-12 -45 -57 -115q-55 -88 -137 -88q-59 0 -60 51q0 59 62 127q59 70 120 82
q41 41 105 233h-146q-18 0 -18 15v59q0 12 14 12h174q7 6 27 76q99 337 125 404q53 147 182 248t271 101t204 -52q63 -53 64 -123q0 -41 -27 -68q-31 -25 -71 -25q-96 0 -134 76q-20 81 -36 101q-18 14 -47 14t-48 -59q-18 -43 -68 -247t-218 -446h293q18 0 18 -12v-59
q0 -14 -21 -15h-350q-80 -121 -194 -219v-4l82 6q25 4 71 0t60 -2t34 -9t40 -17t50 -30t34 -25t24 -21q22 -20 32 -30t17 -14q6 -5 8 -7q76 -66 107 -66z" />
    <glyph glyph-name="currency" unicode="&#xa4;" 
d="M519 465q95 0 145 61q53 60 53 162t-53 164q-50 63 -148 63t-151 -63q-53 -70 -53 -163t57 -157q55 -67 150 -67zM905 696q0 -137 -80 -223l172 -166q6 -8 -2 -22l-67 -72q-10 -16 -29 0l-176 166q-76 -57 -213 -57t-219 63l-168 -174q-10 -12 -25 2l-67 76q-12 12 2 24
l168 162q-76 80 -80 207q10 150 86 233l-170 152q-20 18 -4 35l69 74q10 12 25 -2l180 -170q82 55 209 55t209 -55l172 167q12 12 23 0l67 -67q14 -14 4 -25l-164 -153q78 -93 78 -230z" />
    <glyph glyph-name="yen" unicode="&#xa5;" 
d="M1102 1374q14 0 14 -12v-49q0 -18 -16 -19h-37q-43 0 -96 -49q-35 -31 -328 -594h276q12 0 13 -10v-63q0 -10 -15 -11h-288v-127h290q12 0 13 -10v-63q0 -10 -17 -11h-286v-47q0 -82 4 -159t73 -76h70q14 -1 14 -15v-47q0 -18 -16 -18t-37 2l-219 4h-156l-96 -4
q-23 -2 -36 -2t-13 16v49q0 14 14 15h80q63 0 66 51q2 18 2 180v51h-285q-10 0 -10 11v63q0 10 10 10h285v127h-287q-8 0 -8 11v63q0 10 14 10h254q-4 8 -17 37t-65 135q-63 141 -127 267q-47 104 -75 154t-93 50h-30q-14 0 -15 15v53q0 12 16 12t38 -2l198 -4l228 4
q22 2 36 2t15 -10v-51q0 -18 -15 -19h-30q-57 0 -58 -47q0 -23 88 -231q51 -129 133 -318h5q8 20 118 269t111 266q0 61 -70 61h-49q-14 0 -14 19v49q0 12 14 12l72 -2q98 -4 133 -4l178 4q15 2 29 2z" />
    <glyph glyph-name="brokenbar" unicode="&#xa6;" horiz-adv-x="716" 
d="M416 666h-119q-12 0 -12 20v678q0 18 12 18h123q14 0 14 -24v-672q0 -20 -18 -20zM416 -358h-119q-12 0 -12 20v676q0 20 18 20h119q12 0 12 -20v-676q0 -20 -18 -20z" />
    <glyph glyph-name="section" unicode="&#xa7;" horiz-adv-x="1105" 
d="M285 788q0 -90 110 -188q43 -33 153 -114q110 -82 138 -104t43 -44q37 12 69 56t13 122q-2 16 -35 62q-55 65 -201 157l-88 60q-112 75 -139 123q-63 -40 -63 -130zM471 -276q-123 0 -192 34q-74 31 -74 97q0 98 98 98q82 0 127 -74q48 -74 104 -74t97 45q41 44 41 102
q0 109 -74 175q-27 25 -76 66q-25 14 -98 69q-55 37 -102 76q-190 150 -191 356q0 88 53 170q57 76 131 109q-66 66 -65 211q0 98 82 188q59 66 135 88t179 21q103 0 181 -39q70 -45 70 -101q0 -94 -115 -94q-46 0 -68 22t-52 68q-40 66 -94 67t-97 -48q-45 -45 -45 -125
q0 -25 4 -35q0 -23 16 -43q16 -19 21 -29q21 -34 101 -83q79 -49 118 -75t47 -30q131 -84 189 -166t55 -195q2 -205 -199 -294q88 -103 88 -233t-95 -227t-300 -97z" />
    <glyph glyph-name="dieresis" unicode="&#xa8;" horiz-adv-x="749" 
d="M61 1162q0 56 31 92q32 38 92 38t94 -34t33 -89q0 -55 -32 -88q-37 -31 -87 -31t-90 28t-41 84zM440 1162q0 54 32 92t91 38t92 -33t33 -90t-33 -88t-83 -31t-91 30q-41 28 -41 82z" />
    <glyph glyph-name="copyright" unicode="&#xa9;" horiz-adv-x="1689" 
d="M225 725q0 -147 41 -256q35 -106 103 -188q66 -72 147 -125q158 -90 327 -90t293 60t191 160t107 214q33 119 32 225q0 172 -60 305t-157 205q-86 70 -193 110t-210 39q-268 0 -445 -180q-176 -186 -176 -479zM96 723q0 324 217 541t539 217t532 -211t211 -539t-205 -545
t-545 -217t-542 215q-207 215 -207 539zM873 274q-220 0 -338 113q-137 137 -137 338t134 328q135 127 334 127q141 0 211 -56q20 -14 27 0l8 33q2 8 39 8q12 0 14 -20q8 -158 31 -266q2 -14 -8 -17l-31 -8q-12 -4 -18 10q-39 94 -103 160q-64 70 -164 70t-166 -96t-62 -260
q5 -164 79 -234q94 -94 192 -94q158 0 275 104q20 20 29 12l24 -20q8 -6 -2 -25q-148 -207 -368 -207z" />
    <glyph glyph-name="ordfeminine" unicode="&#xaa;" horiz-adv-x="747" 
d="M349 631q38 0 81 63l-4 162q-8 -4 -25 -11t-53 -28t-53 -50q-19 -29 -19 -65t15 -55q20 -16 58 -16zM618 760q0 -133 39 -133q25 0 45 45q6 10 17 4l26 -12q14 -2 5 -23q-45 -100 -172 -100q-100 0 -142 84q-74 -72 -143 -80q-33 -4 -88 -4t-90 41q-37 37 -37 86
q0 106 162 174l186 76l4 81q0 94 -115 95q-53 0 -71 -35q-4 -12 -4 -19l4 -55q0 -25 -28 -46t-79 -21q-72 0 -71 61q0 74 100 130t231 56q225 0 226 -182l-5 -174v-49z" />
    <glyph glyph-name="guillemotleft" unicode="&#xab;" horiz-adv-x="890" 
d="M744 94q-6 0 -13 10l-289 302q-16 20 -16 30t18 29l287 301q8 8 12 8t11 -6l49 -33q6 -6 6 -8l-137 -293l133 -282l4 -13q0 -4 -6 -8l-51 -35q-2 -2 -8 -2zM375 94q-6 0 -13 10l-288 302q-16 20 -17 30q0 10 19 29l286 301q8 8 12 8t11 -6l49 -33q6 -6 6 -8l-137 -293
l133 -282l4 -13q0 -4 -6 -8l-51 -35q-2 -2 -8 -2z" />
    <glyph glyph-name="logicalnot" unicode="&#xac;" 
d="M106 592v156h814v-498h-168v342h-646z" />
    <glyph glyph-name="uni00AD" unicode="&#xad;" horiz-adv-x="819" 
d="M102 483v131q0 14 19 15h571q25 0 25 -23v-119q0 -14 -21 -14h-577q-17 0 -17 10z" />
    <glyph glyph-name="registered" unicode="&#xae;" horiz-adv-x="1150" 
d="M522 1255v-231h17q66 -4 94 41q29 41 29 81t-35 79q-37 33 -68 32h-16q-9 -2 -21 -2zM795 1150q0 -58 -44 -96t-96 -50v-3q1 -6 7 -8t13 -6t19 -11q13 -7 55 -75q42 -69 70 -104q15 -17 29 -17t14 -8v-20q0 -6 -8 -7h-23q-47 6 -83 0h-35q-16 8 -37 43q-33 43 -71 123
t-66 80h-17v-45q0 -119 4 -135q0 -31 15 -31h37q6 0 6 -6v-22q0 -6 -11 -7h-73q-56 6 -117 0h-43q-8 0 -8 7v22q0 6 4 6h18q37 0 37 45v394q0 37 -37 36h-14q-6 0 -6 7v24q0 6 6 6l104 -4l140 4q121 0 174 -43q37 -41 37 -99zM592 612q92 0 173 38t120 100q80 113 82 262
q-4 135 -70 229q-109 168 -322 168q-175 0 -283 -109t-108 -288q0 -106 37 -186q68 -149 221 -191q58 -23 150 -23zM582 1481q210 0 344 -131q133 -133 133 -337t-134 -338q-133 -134 -351 -134t-350 132t-132 335t137 340q143 133 353 133z" />
    <glyph glyph-name="macron" unicode="&#xaf;" horiz-adv-x="608" 
d="M61 1063v121q0 14 17 14h450q18 0 19 -14v-121q0 -14 -23 -14h-446q-17 0 -17 14z" />
    <glyph glyph-name="degree" unicode="&#xb0;" horiz-adv-x="655" 
d="M329 1389q-50 0 -88 -39q-38 -38 -38 -94t39 -95t89 -39t87 39t37 94t-37 95q-39 39 -89 39zM324 1030q-111 0 -177 62q-65 62 -65 160q0 99 70 164t182 65q112 -1 176 -61q66 -60 66 -160t-71 -165q-70 -65 -181 -65z" />
    <glyph glyph-name="plusminus" unicode="&#xb1;" 
d="M106 166h814v-156h-814v156zM598 311h-168v285h-324v156h324v266h168v-266h322v-156h-322v-285z" />
    <glyph glyph-name="uni00B2" unicode="&#xb2;" horiz-adv-x="737" 
d="M387 1393q0 61 -35 102q-32 41 -104 41t-146 -78q-20 -20 -28 -10l-23 14q-8 2 2 26q31 75 148 138q75 37 177 37t177 -61q76 -57 76 -170q0 -150 -178 -297q-149 -125 -211 -156l-6 -4v-4h190q80 0 120 15t66 54q10 16 35 6t17 -26l-84 -213q-2 -12 -26 -12t-32 14
t-145 14h-258l-113 -4q-14 0 -16 15q-4 16 8 24q139 109 270 268q119 139 119 267z" />
    <glyph glyph-name="uni00B3" unicode="&#xb3;" horiz-adv-x="737" 
d="M655 1075q0 -123 -106 -197t-297 -73q-113 0 -164 40t-51 99q0 29 20 53q27 23 61 23t48 -20t24 -56q18 -74 95 -74q49 0 92 46t43 114q0 166 -148 195q-34 11 -34 35t28 28q61 10 92 54t31 94t-31 85q-31 34 -73 33q-76 0 -146 -94q-14 -20 -24 -16l-31 14q-10 6 -8 21
q20 63 98 123t199 61q121 0 176 -53q61 -49 61 -113q0 -147 -184 -209v-4q102 -12 164 -72q65 -55 65 -137z" />
    <glyph glyph-name="acute" unicode="&#xb4;" horiz-adv-x="471" 
d="M320 1354q62 0 84 -64t-39 -112l-259 -181q-8 -8 -14 -2l-29 23q-6 6 0 16l152 250q43 70 105 70z" />
    <glyph glyph-name="mu" unicode="&#xb5;" horiz-adv-x="1105" 
d="M950 684v-266q0 -211 2 -238q6 -84 45 -84q23 0 60 17q12 10 16 -7l17 -30q6 -10 -21 -37q-74 -68 -188 -68q-55 0 -107 41q-49 43 -65 103h-15q-31 -61 -88 -103q-64 -41 -132 -41t-107 37l-5 -4q0 -166 12 -307q12 -142 13 -154q0 -35 -29 -45l-149 -45
q-45 -10 -58 -10t-14 31l10 850v86q0 163 -6 248t-6 98l-4 71q0 33 33 33h201q41 0 41 -37v-426q-4 -43 0 -65q0 -37 4 -62q0 -39 12 -69q6 -29 22 -51q31 -52 101 -52t121 70q25 33 24 72l-8 395q-6 119 -6 123l-2 69q0 33 39 33h192q49 0 49 -41v-41q-4 -24 -4 -94z" />
    <glyph glyph-name="paragraph" unicode="&#xb6;" horiz-adv-x="1175" 
d="M743 -248q0 -29 -14 -28h-72q-14 0 -14 32v717q-147 6 -248 50q-100 44 -157 91q-59 53 -95 140q-41 82 -41 216q0 279 215 386q107 50 241 72t335 22h178q39 0 39 -14v-39q0 -14 -14 -17l-121 -4v-1636q0 -16 -14 -16h-72q-14 0 -15 30v1620q-76 0 -131 -8v-1614z" />
    <glyph glyph-name="periodcentered" unicode="&#xb7;" horiz-adv-x="573" 
d="M284 885q72 0 118 -46t46 -116t-43 -113q-44 -43 -115 -43t-118 45q-47 46 -47 108t43 116q43 49 116 49z" />
    <glyph glyph-name="cedilla" unicode="&#xb8;" horiz-adv-x="548" 
d="M487 -283q0 -94 -110 -147q-117 -53 -275 -53q-41 0 -41 41q1 28 63 28t109 29q45 31 46 82q0 70 -127 100l163 213h117l-119 -145q82 -16 128 -56t46 -92z" />
    <glyph glyph-name="uni00B9" unicode="&#xb9;" horiz-adv-x="737" 
d="M319 823q-78 0 -110 -4h-55q-12 0 -13 15v51q0 8 21 8h57q47 0 60 8q10 12 12 55l2 267v45q0 90 -4 142t-32 52t-60 -12l-62 -23q-16 -6 -22 7l-21 47q-2 8 8 14l377 156q35 12 37 12q16 0 16 -18l-2 -60v-143q-2 -59 -2 -158v-319q0 -49 10 -61t50 -11h49q12 0 12 -12
v-52q0 -10 -14 -10h-53q-36 4 -109 4h-152z" />
    <glyph glyph-name="ordmasculine" unicode="&#xba;" horiz-adv-x="808" 
d="M406 608q52 0 82 62t30 172q0 112 -31 186q-35 70 -83 70t-72 -33q-47 -67 -47 -189t20 -196q23 -72 101 -72zM745 860q0 -143 -98 -231t-255 -88t-243 92t-86 230q-1 138 105 220t250 82q49 0 123 -22q70 -25 106 -56q98 -84 98 -227z" />
    <glyph glyph-name="guillemotright" unicode="&#xbb;" horiz-adv-x="890" 
d="M516 774q6 0 12 -10l289 -301q17 -21 17 -31t-19 -29l-287 -301q-8 -8 -12 -8t-10 6l-49 33q-6 6 -6 8l137 293l-133 283l-4 12q0 4 6 8l51 35q2 2 8 2zM147 774q6 0 13 -10l289 -301q16 -21 16 -31t-19 -29l-286 -301q-8 -8 -12 -8t-11 6l-49 33q-6 6 -6 8l137 293
l-133 283l-4 12q0 4 6 8l51 35q2 2 8 2z" />
    <glyph glyph-name="onequarter" unicode="&#xbc;" horiz-adv-x="1638" 
d="M1335 1344q0 -8 -8 -21l-827 -1337q-18 -28 -35 -11l-55 39q-12 10 -12 16t12 27l821 1325q15 24 35 11l61 -35q8 -6 8 -14zM252 958v46q0 90 -4 142t-33 52q-18 0 -59 -12l-62 -23q-16 -6 -22 6l-21 48q-2 8 8 14l377 155q35 12 37 13q16 0 16 -19l-2 -57v-147
q-2 -57 -2 -156v-320q2 -47 11 -61q14 -10 49 -10h49q12 0 12 -13v-51q0 -10 -16 -10t-51 2h-109q-39 2 -76 2t-75 -2h-111q-37 -2 -52 -2t-16 14v52q0 8 21 8h57q52 0 60 8t12 55v131q2 82 2 135zM1237 322v210q-4 14 -8 18t-15 3q-6 -4 -16 -14l-164 -187q-10 -12 -7 -21
t22 -9h188zM1409 0h-156q-16 0 -16 20v152h-369q-35 0 -34 29q0 14 28 53l492 559q27 27 43 27q29 0 28 -47v-471h105q14 0 14 -19v-110q0 -20 -20 -21h-99v-149q0 -23 -16 -23z" />
    <glyph glyph-name="onehalf" unicode="&#xbd;" horiz-adv-x="1638" 
d="M920 13q0 17 20 32q121 88 260 258q119 139 119 266q0 57 -33 103q-38 41 -108 41t-144 -78q-18 -20 -28 -10l-23 14q-8 1 2 25q32 76 148 139q74 37 175 37t179 -62q76 -57 76 -170q0 -139 -179 -297q-96 -76 -217 -159v-5h191q80 -1 120 15t66 55q10 16 35 6t16 -26
l-84 -213q-4 -12 -26 -12q-23 0 -31 14t-145 14h-258l-113 -4q-18 0 -18 17zM455 1176v-476q4 -53 11 -62t48 -9h49q12 0 12 -13v-51q0 -10 -16 -10t-51 2h-109q-39 2 -75 2t-76 -2h-113q-33 -2 -49 -2t-16 14v52q0 8 20 8h57q51 0 59 8q10 10 15 186v181q0 90 -4 142
t-33 52q-20 0 -59 -12l-62 -23q-16 -6 -22 6l-21 48q-2 8 9 14l377 155q33 12 36 13q16 0 17 -19v-57q-4 -40 -4 -147zM340 30q0 6 12 27l822 1325q16 25 34 11l62 -35q8 -6 8 -14t-8 -21l-828 -1337q-17 -28 -34 -11l-56 39q-12 10 -12 16z" />
    <glyph glyph-name="threequarters" unicode="&#xbe;" horiz-adv-x="1638" 
d="M1257 322v210q-4 14 -8 18t-14 3q-6 -4 -16 -14l-164 -187q-10 -12 -7 -21t21 -9h188zM1430 0h-156q-16 0 -17 20v152h-368q-35 0 -35 29q0 14 29 53l491 559q27 27 43 27q29 0 29 -47v-471h104q14 0 15 -19v-110q0 -20 -21 -21h-98v-149q0 -23 -16 -23zM262 541
q-113 0 -164 40t-51 86t23 66q18 23 55 23t52 -22t24 -54q18 -74 94 -74q49 0 90 45q41 51 41 115q0 168 -143 195q-35 10 -35 30q0 29 28 33q59 10 93 53q31 45 31 94t-31 84t-76 35q-80 0 -150 -94q-14 -20 -24 -16l-31 14q-10 6 -8 20q23 66 96 125q76 59 199 59t186 -50
q61 -55 61 -122t-52 -121t-134 -81v-4q96 -12 166 -70q66 -61 66 -139q0 -121 -107 -197q-111 -73 -299 -73zM1339 1344q0 -8 -8 -21l-827 -1337q-18 -28 -35 -11l-55 39q-12 10 -12 16t12 27l821 1325q15 24 35 11l61 -35q8 -6 8 -14z" />
    <glyph glyph-name="questiondown" unicode="&#xbf;" horiz-adv-x="747" 
d="M367 750q0 55 39 98q45 41 110 41t109 -37q43 -41 43 -102q0 -60 -39 -96t-115 -36q-147 4 -147 132zM479 272q16 0 17 17v157q0 14 14 15h51q14 -1 14 -15v-409q1 -33 -33 -27t-118 6t-142 -30t-59 -95q0 -106 112 -151t198 -45t126 -35q45 -31 45 -90t-33 -93
q-34 -34 -93 -34q-152 0 -327 180t-175 365q0 113 43 166q56 70 85 78t49 16q35 13 103 22l62 2h61z" />
    <glyph glyph-name="Agrave" unicode="&#xc0;" horiz-adv-x="1484" 
d="M387 1840q0 30 29 69q28 33 76 33t90 -41l266 -277q10 -6 2 -14l-27 -33q-4 -4 -14 0l-348 162q-29 12 -51 39q-23 32 -23 62zM653 1231q-16 0 -24 -27q-140 -364 -203 -561h403l-153 543q-12 45 -23 45zM1145 0l-222 -4l-44 -2h-17q-23 0 -22 26v39q0 18 12 19h57
q39 0 56 16q14 18 6 58q-41 165 -123 409h-449q-117 -307 -117 -395t80 -88h72q23 0 23 -17v-45q0 -23 -19 -22q-20 0 -43 2l-235 4h-115l-108 -6q-14 0 -15 26v39q0 18 15 19h53q80 0 139 90q12 18 104 231q107 266 183 458t155 427q14 47 2 70q-14 16 -14 27t21 18
q63 14 136 46t92 53t28 22q12 0 26 -48t100 -304t134 -402q37 -131 112 -338q72 -213 98 -261t58 -67q33 -23 59 -22h70q14 0 14 -19v-39q0 -27 -18 -26q-20 0 -43 2z" />
    <glyph glyph-name="Aacute" unicode="&#xc1;" horiz-adv-x="1484" 
d="M974 1942q50 0 78 -32q56 -64 5 -124q-18 -25 -53 -43l-345 -166q-10 -4 -14 0l-27 33q-6 6 3 14l266 277q37 41 87 41zM653 1231q-16 0 -24 -27q-140 -364 -203 -561h403l-153 543q-12 45 -23 45zM1145 0l-222 -4l-44 -2h-17q-23 0 -22 26v39q0 18 12 19h57q39 0 56 16
q14 18 6 58q-41 165 -123 409h-449q-117 -307 -117 -395t80 -88h72q23 0 23 -17v-45q0 -23 -19 -22q-20 0 -43 2l-235 4h-115l-108 -6q-14 0 -15 26v39q0 18 15 19h53q80 0 139 90q12 18 104 231q107 266 183 458t155 427q14 47 2 70q-14 16 -14 27t21 18q63 14 136 46
t92 53t28 22q12 0 26 -48t100 -304t134 -402q37 -131 112 -338q72 -213 98 -261t58 -67q33 -23 59 -22h70q14 0 14 -19v-39q0 -27 -18 -26q-20 0 -43 2z" />
    <glyph glyph-name="Acircumflex" unicode="&#xc2;" horiz-adv-x="1484" 
d="M799 1874l270 -260q8 -8 2 -17l-14 -18q-6 -8 -19 -2l-282 111l-264 -111q-14 -6 -21 0l-16 20q-4 8 6 19l272 268q23 18 27 18t39 -28zM653 1231q-16 0 -24 -27q-140 -364 -203 -561h403l-153 543q-12 45 -23 45zM1145 0l-222 -4l-44 -2h-17q-23 0 -22 26v39q0 18 12 19
h57q39 0 56 16q14 18 6 58q-41 165 -123 409h-449q-117 -307 -117 -395t80 -88h72q23 0 23 -17v-45q0 -23 -19 -22q-20 0 -43 2l-235 4h-115l-108 -6q-14 0 -15 26v39q0 18 15 19h53q80 0 139 90q12 18 104 231q107 266 183 458t155 427q14 47 2 70q-14 16 -14 27t21 18
q63 14 136 46t92 53t28 22q12 0 26 -48t100 -304t134 -402q37 -131 112 -338q72 -213 98 -261t58 -67q33 -23 59 -22h70q14 0 14 -19v-39q0 -27 -18 -26q-20 0 -43 2z" />
    <glyph glyph-name="Atilde" unicode="&#xc3;" horiz-adv-x="1484" 
d="M430 1581h-37q-12 0 -8 35q8 96 61 166q55 66 132 65q35 0 260 -55l57 -14q23 -6 37 -6q59 0 74 79q2 12 14 13h35q10 0 6 -58t-49 -129q-48 -67 -112 -67t-210 37t-160 36q-68 0 -86 -92q-4 -10 -14 -10zM653 1231q-16 0 -24 -27q-140 -364 -203 -561h403l-153 543
q-12 45 -23 45zM1145 0l-222 -4l-44 -2h-17q-23 0 -22 26v39q0 18 12 19h57q39 0 56 16q14 18 6 58q-41 165 -123 409h-449q-117 -307 -117 -395t80 -88h72q23 0 23 -17v-45q0 -23 -19 -22q-20 0 -43 2l-235 4h-115l-108 -6q-14 0 -15 26v39q0 18 15 19h53q80 0 139 90
q12 18 104 231q107 266 183 458t155 427q14 47 2 70q-14 16 -14 27t21 18q63 14 136 46t92 53t28 22q12 0 26 -48t100 -304t134 -402q37 -131 112 -338q72 -213 98 -261t58 -67q33 -23 59 -22h70q14 0 14 -19v-39q0 -27 -18 -26q-20 0 -43 2z" />
    <glyph glyph-name="Adieresis" unicode="&#xc4;" horiz-adv-x="1484" 
d="M977 1612q-51 0 -92 28t-41 84t33 94t93 38t95 -33q33 -37 33 -89t-35 -87t-86 -35zM641 1738q0 -52 -35 -89t-85 -37t-91 28t-41 84t33 95q35 37 94 37t92 -34q33 -32 33 -84zM653 1231q-16 0 -24 -27q-140 -364 -203 -561h403l-153 543q-12 45 -23 45zM1145 0l-222 -4
l-44 -2h-17q-23 0 -22 26v39q0 18 12 19h57q39 0 56 16q14 18 6 58q-41 165 -123 409h-449q-117 -307 -117 -395t80 -88h72q23 0 23 -17v-45q0 -23 -19 -22q-20 0 -43 2l-235 4h-115l-108 -6q-14 0 -15 26v39q0 18 15 19h53q80 0 139 90q12 18 104 231q107 266 183 458
t155 427q14 47 2 70q-14 16 -14 27t21 18q63 14 136 46t92 53t28 22q12 0 26 -48t100 -304t134 -402q37 -131 112 -338q72 -213 98 -261t58 -67q33 -23 59 -22h70q14 0 14 -19v-39q0 -27 -18 -26q-20 0 -43 2z" />
    <glyph glyph-name="Aring" unicode="&#xc5;" horiz-adv-x="1484" 
d="M741 1616q100 0 101 117q0 55 -29 84t-73 27t-72 -34q-28 -33 -27 -77q0 -117 100 -117zM653 1231q-16 0 -24 -27q-140 -364 -203 -561h403l-153 543q-12 45 -23 45zM738 1546q-108 0 -185 46q-76 46 -76 131t80 141q84 51 195 51q110 0 182 -48t72 -124q0 -109 -84 -150
q-76 -47 -184 -47zM1145 0l-222 -4l-44 -2h-17q-23 0 -22 26v39q0 18 12 19h57q39 0 56 16q14 18 6 58q-41 165 -123 409h-449q-117 -307 -117 -395t80 -88h72q23 0 23 -17v-45q0 -23 -19 -22q-20 0 -43 2l-235 4h-115l-108 -6q-14 0 -15 26v39q0 18 15 19h53q80 0 139 90
q12 18 104 231q107 266 183 458t155 427q14 47 2 70q-14 16 -14 28t21 15q194 31 204 34t28 11t28 8q20 0 28 -27q0 -1 12 -33t36 -105q26 -73 90 -255t96 -288q31 -107 106 -314q72 -213 98 -261t58 -67q33 -23 59 -22h70q14 0 14 -19v-39q0 -27 -18 -26q-20 0 -43 2z" />
    <glyph glyph-name="AE" unicode="&#xc6;" horiz-adv-x="1961" 
d="M811 729v553q0 29 -14 29q-6 0 -21 -21l-305 -561h340zM1290 0h-329q-78 0 -201 -4l-92 -2q-20 0 -21 22v43q0 18 19 19h96q29 0 41 16q8 21 8 70v483h-387q-88 -150 -203 -432q-14 -37 -14 -75q0 -62 61 -62h56q20 0 20 -17v-45q0 -23 -18 -22q-14 0 -33 2l-197 4
q-55 0 -149 -4l-74 -2q-14 0 -14 31v34q0 18 14 19h59q18 0 42 16t32 29l37 45q25 34 149 250t191 338q66 122 136 241q69 119 89 156t56 98q36 62 22 93t-41 30h-31q-18 0 -18 19v45q0 18 22 18q10 0 29 -2h53q127 -4 236 -4h719q12 0 49 4h20l13 2q12 0 14 -6
q7 -22 19 -73q12 -49 38 -149t31 -113q4 -13 -8 -19l-33 -17q-14 -8 -25 10t-110 111q-102 100 -131 117q-86 53 -156 55l-270 8l-6 -651q160 0 216 13t87 55q47 66 47 127q0 18 16 18l56 -6q20 -4 16 -16q-6 -35 -6 -176t12 -271q4 -12 -16 -16l-49 -11q-8 -4 -9 3
q-4 3 -11 29t-38 89q-35 59 -112 72q-113 10 -209 8v-55q0 -16 4 -201l4 -145q4 -134 50 -154t158 -20t187 7q74 7 150 67t207 219q12 12 20 6l35 -21q12 -6 8 -16l-92 -309q-8 -31 -45 -31q-12 0 -29 2h-233q-62 4 -234 4z" />
    <glyph glyph-name="Ccedilla" unicode="&#xc7;" horiz-adv-x="1540" 
d="M856 1481q254 0 412 -86q37 -18 43 2l16 51q4 12 33 12t35 -5t6 -35t19 -218t28 -223q2 -25 -10 -27l-45 -12q-14 -6 -25 23q-39 145 -164 274q-156 154 -358 154t-314 -166q-106 -168 -104 -410q0 -127 43 -279t139 -255q152 -154 320 -154q168 1 296 65t187 154
q14 27 31 16l35 -30q12 -8 0 -25q-217 -313 -561 -336l-97 -125q95 -14 145 -55t50 -98q0 -93 -119 -145t-307 -52q-51 0 -51 41q1 35 71 35t116 30t46 79q0 71 -127 100l146 190q-158 10 -263 58q-96 39 -202 132t-162 247q-59 150 -60 297q0 332 211 555q205 221 541 221z
" />
    <glyph glyph-name="Egrave" unicode="&#xc8;" horiz-adv-x="1423" 
d="M564 1942q48 0 89 -41l267 -277q10 -6 2 -14l-27 -33q-4 -4 -14 0l-349 162q-29 12 -51 39q-23 32 -23 62t29 69q29 33 77 33zM131 1454l266 -4l719 2l82 4q12 0 14 -6l8 -24q5 -17 29 -125t49 -185q6 -14 -6 -20l-32 -17q-14 -8 -26 10t-110 111q-102 100 -131 117
q-86 53 -155 55l-271 8l-6 -596q160 0 210 12t93 64q47 66 47 127q0 18 17 19l55 -7q20 -4 16 -16q-6 -35 -6 -176t13 -270q4 -12 -17 -17l-49 -10q-6 -2 -9 1t-9 31t-39 89q-35 59 -115 71t-207 13v-123l10 -346q1 -134 49 -154t160 -20t186 7q72 7 148 67t207 219
q12 12 20 6l35 -21q12 -6 8 -16l-92 -309q-10 -31 -45 -31q-8 0 -20 2h-64q-31 2 -124 2t-248 2h-535q-39 -2 -74 -2l-78 -2l-10 -2q-18 0 -18 22v43q0 18 20 19h62q72 0 86 16q16 12 16 70v686q0 381 -6 436q-6 54 -24 70t-60 16h-80q-10 0 -10 21v49q0 14 14 14h4z" />
    <glyph glyph-name="Eacute" unicode="&#xc9;" horiz-adv-x="1423" 
d="M1015 1942q50 0 78 -32q56 -64 5 -124q-18 -25 -54 -43l-344 -166q-10 -4 -14 0l-27 33q-6 6 3 14l266 277q37 41 87 41zM131 1454l266 -4l719 2l82 4q12 0 14 -6l8 -24q5 -17 29 -125t49 -185q6 -14 -6 -20l-32 -17q-14 -8 -26 10t-110 111q-102 100 -131 117
q-86 53 -155 55l-271 8l-6 -596q160 0 210 12t93 64q47 66 47 127q0 18 17 19l55 -7q20 -4 16 -16q-6 -35 -6 -176t13 -270q4 -12 -17 -17l-49 -10q-6 -2 -9 1t-9 31t-39 89q-35 59 -115 71t-207 13v-123l10 -346q1 -134 49 -154t160 -20t186 7q72 7 148 67t207 219
q12 12 20 6l35 -21q12 -6 8 -16l-92 -309q-10 -31 -45 -31q-8 0 -20 2h-64q-31 2 -124 2t-248 2h-535q-39 -2 -74 -2l-78 -2l-10 -2q-18 0 -18 22v43q0 18 20 19h62q72 0 86 16q16 12 16 70v686q0 381 -6 436q-6 54 -24 70t-60 16h-80q-10 0 -10 21v49q0 14 14 14h4z" />
    <glyph glyph-name="Ecircumflex" unicode="&#xca;" horiz-adv-x="1423" 
d="M778 1874l271 -260q8 -8 2 -17l-15 -18q-6 -8 -18 -2l-283 111l-264 -111q-14 -6 -20 0l-17 20q-4 8 6 19l273 268q20 18 25 18t40 -28zM131 1454l266 -4l719 2l82 4q12 0 14 -6l8 -24q5 -17 29 -125t49 -185q6 -14 -6 -20l-32 -17q-14 -8 -26 10t-110 111
q-102 100 -131 117q-86 53 -155 55l-271 8l-6 -596q160 0 210 12t93 64q47 66 47 127q0 18 17 19l55 -7q20 -4 16 -16q-6 -35 -6 -176t13 -270q4 -12 -17 -17l-49 -10q-6 -2 -9 1t-9 31t-39 89q-35 59 -115 71t-207 13v-123l10 -346q1 -134 49 -154t160 -20t186 7
q72 7 148 67t207 219q12 12 20 6l35 -21q12 -6 8 -16l-92 -309q-10 -31 -45 -31q-8 0 -20 2h-64q-31 2 -124 2t-248 2h-535q-39 -2 -74 -2l-78 -2l-10 -2q-18 0 -18 22v43q0 18 20 19h62q72 0 86 16q16 12 16 70v686q0 381 -6 436q-6 54 -24 70t-60 16h-80q-10 0 -10 21v49
q0 14 14 14h4z" />
    <glyph glyph-name="Edieresis" unicode="&#xcb;" horiz-adv-x="1423" 
d="M967 1612q-51 0 -93 28q-40 30 -40 84t30 95q34 37 96 37t95 -34q33 -32 33 -86t-36 -89q-34 -35 -85 -35zM631 1736q0 -50 -35 -87t-85 -37t-91 28t-41 84q0 54 31 95q33 37 93 37t95 -33q33 -37 33 -87zM131 1454l266 -4l719 2l82 4q12 0 14 -6l8 -24q5 -17 29 -125
t49 -185q6 -14 -6 -20l-32 -17q-14 -8 -26 10t-110 111q-102 100 -131 117q-86 53 -155 55l-271 8l-6 -596q160 0 210 12t93 64q47 66 47 127q0 18 17 19l55 -7q20 -4 16 -16q-6 -35 -6 -176t13 -270q4 -12 -17 -17l-49 -10q-6 -2 -9 1t-9 31t-39 89q-35 59 -115 71t-207 13
v-123l10 -346q1 -134 49 -154t160 -20t186 7q72 7 148 67t207 219q12 12 20 6l35 -21q12 -6 8 -16l-92 -309q-10 -31 -45 -31q-8 0 -20 2h-64q-31 2 -124 2t-248 2h-535q-39 -2 -74 -2l-78 -2l-10 -2q-18 0 -18 22v43q0 18 20 19h62q72 0 86 16q16 12 16 70v686
q0 381 -6 436q-6 54 -24 70t-60 16h-80q-10 0 -10 21v49q0 14 14 14h4z" />
    <glyph glyph-name="Igrave" unicode="&#xcc;" horiz-adv-x="849" 
d="M175 1942q48 0 89 -41l266 -277q10 -6 2 -14l-26 -33q-4 -4 -14 0l-349 162q-29 12 -51 39q-22 32 -22 62t28 69q29 33 77 33zM586 1319l-4 -334v-69l-2 -81v-184l2 -84v-161q4 -164 4 -232t16 -82t53 -14h84q16 0 17 -15v-57q0 -12 -18 -12t-42 2l-260 4h-170l-155 -6
q-16 0 -17 16v56q0 12 17 12h59q84 0 92 55q10 86 10 582v143q0 348 -8 445q-6 70 -67 69h-99q-16 0 -16 12v60q0 12 17 12t44 -2l283 -4l262 4q25 2 40 2t15 -18v-52q0 -14 -16 -14h-59q-82 0 -82 -53z" />
    <glyph glyph-name="Iacute" unicode="&#xcd;" horiz-adv-x="849" 
d="M717 1942q49 0 78 -32t29 -66t-25 -58q-16 -25 -51 -43l-345 -166q-10 -4 -14 0l-27 33q-6 6 3 14l266 277q37 41 86 41zM586 1319l-4 -334v-69l-2 -81v-184l2 -84v-161q4 -164 4 -232t16 -82t53 -14h84q16 0 17 -15v-57q0 -12 -18 -12t-42 2l-260 4h-170l-155 -6
q-16 0 -17 16v56q0 12 17 12h59q84 0 92 55q10 86 10 582v143q0 348 -8 445q-6 70 -67 69h-99q-16 0 -16 12v60q0 12 17 12t44 -2l283 -4l262 4q25 2 40 2t15 -18v-52q0 -14 -16 -14h-59q-82 0 -82 -53z" />
    <glyph glyph-name="Icircumflex" unicode="&#xce;" horiz-adv-x="849" 
d="M461 1874l270 -260q8 -8 2 -17l-14 -18q-6 -8 -19 -2l-282 111l-264 -111q-14 -6 -21 0l-16 20q-2 8 6 19l272 268q23 18 27 18t39 -28zM586 1319l-4 -334v-69l-2 -81v-184l2 -84v-161q4 -164 4 -232t16 -82t53 -14h84q16 0 17 -15v-57q0 -12 -18 -12t-42 2l-260 4h-170
l-155 -6q-16 0 -17 16v56q0 12 17 12h59q84 0 92 55q10 86 10 582v143q0 348 -8 445q-6 70 -67 69h-99q-16 0 -16 12v60q0 12 17 12t44 -2l283 -4l262 4q25 2 40 2t15 -18v-52q0 -14 -16 -14h-59q-82 0 -82 -53z" />
    <glyph glyph-name="Idieresis" unicode="&#xcf;" horiz-adv-x="849" 
d="M780 1736q0 -54 -34 -89t-86 -35q-51 0 -93 28q-41 30 -41 84t31 95q33 37 95 37t96 -34q32 -32 32 -86zM324 1736q0 -50 -35 -87t-85 -37t-91 28t-41 84q0 54 30 95q34 37 94 37t95 -33q33 -37 33 -87zM586 1319l-4 -334v-69l-2 -81v-184l2 -84v-161q4 -164 4 -232
t16 -82t53 -14h84q16 0 17 -15v-57q0 -12 -18 -12t-42 2l-260 4h-170l-155 -6q-16 0 -17 16v56q0 12 17 12h59q84 0 92 55q10 86 10 582v143q0 348 -8 445q-6 70 -67 69h-99q-16 0 -16 12v60q0 12 17 12t44 -2l283 -4l262 4q25 2 40 2t15 -18v-52q0 -14 -16 -14h-59
q-82 0 -82 -53z" />
    <glyph glyph-name="Eth" unicode="&#xd0;" horiz-adv-x="1722" 
d="M557 887v-113h299q12 0 12 -14v-70q0 -10 -16 -10h-295v-45q0 -55 4 -395q0 -61 33 -115q35 -47 166 -47q219 0 383 201q145 186 145 466q0 129 -47 244q-85 242 -309 340q-111 49 -207 49t-129 -16t-36 -80t-3 -395zM676 -4l-326 4h-143l-146 -6q-14 0 -14 18v54
q0 12 16 12h107q59 0 66 45q14 72 14 500v57h-170q-8 0 -8 16v66q0 12 12 12h166v166q0 289 -10 375q-6 57 -68 57h-102q-16 0 -17 14v60q1 10 17 10t43 -2l276 -4l226 4l79 2q244 0 404 -40t291 -146q229 -190 229 -520q0 -170 -50 -299t-153 -240q-197 -217 -678 -217h-8z
" />
    <glyph glyph-name="Ntilde" unicode="&#xd1;" horiz-adv-x="1658" 
d="M618 1581h-36q-12 0 -9 35q8 96 62 166q55 66 131 65q35 -1 152 -29q116 -28 136 -34q41 -12 66 -12q59 0 74 79q2 12 14 13h35q10 0 6 -58t-49 -129q-48 -67 -112 -67t-209 37t-160 36q-68 0 -86 -92q-5 -10 -15 -10zM272 0l-141 -4l-47 -2h-17q-9 0 -10 18v54
q0 12 13 12h71q72 0 88 203q18 350 19 669v185q0 98 -51 163q-47 70 -125 74l-52 2q-12 0 -12 15v55q0 12 10 12t25 -2h43q111 -4 213 -4l156 4q35 0 59 -27l475 -581l350 -436h9v186q0 578 -23 686q-10 47 -43 70q-35 20 -68 20h-65q-12 0 -12 19v51q0 14 17 14t36 -2
l205 -4l166 4q14 2 31 2t18 -16v-49q0 -18 -11 -19h-57q-51 0 -64 -120q-12 -120 -28 -409q-16 -288 -16 -450v-350q0 -68 -31 -68q-47 0 -80 33q-74 68 -258 287l-350 416q-12 12 -77 94q-66 82 -166 207t-122 159h-16v-413q0 -150 10 -319t10 -181q6 -180 127 -180h51
q16 0 17 -19v-49q0 -16 -17 -16l-90 2q-123 4 -170 4z" />
    <glyph glyph-name="Ograve" unicode="&#xd2;" horiz-adv-x="1775" 
d="M512 1840q0 30 29 69q29 33 77 33t89 -41l266 -277q10 -6 2 -14l-27 -33q-4 -4 -14 0l-348 162q-29 12 -51 39q-23 32 -23 62zM432 748q0 -160 49 -304t125 -222q150 -156 297 -156q111 0 195 51t128 120t77 160q33 106 36 164q11 57 11 171t-47 251t-123 223
q-157 178 -297 178h-52l-24 -4q-16 -4 -35 -8q-44 -8 -94 -46t-64 -52q-86 -82 -134 -224t-48 -302zM868 -31q-246 0 -462 133q-125 76 -211 238q-90 162 -91 371q0 281 191 510q211 260 596 260q150 0 262 -35q115 -29 243 -131t197 -252q78 -154 78 -356q0 -244 -153 -449
q-112 -139 -258 -214t-392 -75z" />
    <glyph glyph-name="Oacute" unicode="&#xd3;" horiz-adv-x="1775" 
d="M1180 1942q50 0 78 -32t28 -66t-24 -58q-16 -25 -52 -43l-344 -166q-10 -4 -14 0l-27 33q-6 6 2 14l267 277q37 41 86 41zM432 748q0 -160 49 -304t125 -222q150 -156 297 -156q111 0 195 51t128 120t77 160q33 106 36 164q11 57 11 171t-47 251t-123 223
q-157 178 -297 178h-52l-24 -4q-16 -4 -35 -8q-44 -8 -94 -46t-64 -52q-86 -82 -134 -224t-48 -302zM868 -31q-246 0 -462 133q-125 76 -211 238q-90 162 -91 371q0 281 191 510q211 260 596 260q150 0 262 -35q115 -29 243 -131t197 -252q78 -154 78 -356q0 -244 -153 -449
q-112 -139 -258 -214t-392 -75z" />
    <glyph glyph-name="Ocircumflex" unicode="&#xd4;" horiz-adv-x="1775" 
d="M924 1874l270 -260q8 -8 2 -17l-14 -18q-6 -8 -19 -2l-282 111l-265 -111q-14 -6 -20 0l-16 20q-2 8 6 19l272 268q23 18 27 18t39 -28zM432 748q0 -160 49 -304t125 -222q150 -156 297 -156q111 0 195 51t128 120t77 160q33 106 36 164q11 57 11 171t-47 251t-123 223
q-157 178 -297 178h-52l-24 -4q-16 -4 -35 -8q-44 -8 -94 -46t-64 -52q-86 -82 -134 -224t-48 -302zM868 -31q-246 0 -462 133q-125 76 -211 238q-90 162 -91 371q0 281 191 510q211 260 596 260q150 0 262 -35q115 -29 243 -131t197 -252q78 -154 78 -356q0 -244 -153 -449
q-112 -139 -258 -214t-392 -75z" />
    <glyph glyph-name="Otilde" unicode="&#xd5;" horiz-adv-x="1775" 
d="M586 1581h-37q-12 0 -8 35q8 96 61 166q55 66 127 66t192 -36q141 -40 166 -40q59 0 74 79q2 12 15 13h34q10 0 6 -58t-49 -129q-49 -67 -112 -67t-209 37t-160 36q-68 0 -86 -92q-4 -10 -14 -10zM432 748q0 -160 49 -304t125 -222q150 -156 297 -156q111 0 195 51
t128 120t77 160q33 106 36 164q11 57 11 171t-47 251t-123 223q-157 178 -297 178h-52l-24 -4q-16 -4 -35 -8q-44 -8 -94 -46t-64 -52q-86 -82 -134 -224t-48 -302zM868 -31q-246 0 -462 133q-125 76 -211 238q-90 162 -91 371q0 281 191 510q211 260 596 260q150 0 262 -35
q115 -29 243 -131t197 -252q78 -154 78 -356q0 -244 -153 -449q-112 -139 -258 -214t-392 -75z" />
    <glyph glyph-name="Odieresis" unicode="&#xd6;" horiz-adv-x="1775" 
d="M1122 1612q-51 0 -92 28t-41 84q0 54 31 95q33 37 95 37t95 -34q33 -32 33 -86t-35 -89t-86 -35zM667 1612q-50 0 -92 28q-41 30 -41 84t31 95q33 37 93 37t96 -33q32 -37 32 -87t-34 -89q-35 -35 -85 -35zM432 748q0 -160 49 -304t125 -222q150 -156 297 -156
q111 0 195 51t128 120t77 160q33 106 36 164q11 57 11 171t-47 251t-123 223q-157 178 -297 178h-52l-24 -4q-16 -4 -35 -8q-44 -8 -94 -46t-64 -52q-86 -82 -134 -224t-48 -302zM868 -31q-246 0 -462 133q-125 76 -211 238q-90 162 -91 371q0 281 191 510q211 260 596 260
q150 0 262 -35q115 -29 243 -131t197 -252q78 -154 78 -356q0 -244 -153 -449q-112 -139 -258 -214t-392 -75z" />
    <glyph glyph-name="multiply" unicode="&#xd7;" 
d="M915 205l-102 -123l-305 301l-303 -301l-96 123l294 282l-294 285l110 117l297 -297l297 297l102 -117l-294 -280z" />
    <glyph glyph-name="Oslash" unicode="&#xd8;" horiz-adv-x="1775" 
d="M883 1384q-154 0 -252 -96q-99 -96 -149 -235t-50 -310t68 -337l725 739q-72 121 -164 178q-94 61 -178 61zM903 66q131 0 224 68t139 178q81 190 83 379q1 190 -73 360l-729 -746q72 -121 172 -178q100 -61 184 -61zM891 1481q150 0 262 -35q115 -29 238 -127l168 166
q6 6 18 -2l63 -53q12 -8 2 -19l-167 -170q197 -213 196 -534q0 -244 -153 -449q-219 -289 -631 -289q-135 0 -289 46t-223 112l-154 -158q-12 -8 -20 0l-64 62q-11 11 4 16l152 154q-189 205 -189 498t191 522q211 260 596 260z" />
    <glyph glyph-name="Ugrave" unicode="&#xd9;" horiz-adv-x="1495" 
d="M558 1942q48 0 89 -41l266 -277q10 -6 2 -14l-26 -33q-4 -4 -15 0l-348 162q-29 12 -51 39q-23 32 -23 62t29 69q29 33 77 33zM1468 1456q20 0 21 -18v-45q0 -20 -12 -21h-64q-45 0 -74 -33q-8 -21 -13 -51q-5 -31 -5 -342t-10 -459q-19 -254 -169 -386t-358 -132
t-323 51q-164 72 -238 271q-43 108 -43 493v484q0 104 -57 104h-96q-14 0 -15 19v49q0 16 18 16t44 -2l293 -4l258 4q27 2 44 2t17 -16v-54q0 -14 -16 -14h-70q-51 0 -76 -24q-28 -20 -32 -68t-5 -254v-135q0 -70 11 -434q2 -166 65 -244q96 -115 256 -115q61 0 133 29
t109 61q129 117 129 334v316q0 276 -29 444q-6 33 -26 66q-25 25 -50 24h-65q-14 0 -14 17v53q0 14 16 14t39 -2l213 -4l164 4q18 2 30 2z" />
    <glyph glyph-name="Uacute" unicode="&#xda;" horiz-adv-x="1495" 
d="M1090 1942q50 0 78 -32t28 -66t-25 -58q-16 -25 -51 -43l-344 -166q-10 -4 -14 0l-27 33q-6 6 2 14l267 277q37 41 86 41zM1468 1456q20 0 21 -18v-45q0 -20 -12 -21h-64q-45 0 -74 -33q-8 -21 -13 -51q-5 -31 -5 -342t-10 -459q-19 -254 -169 -386t-358 -132t-323 51
q-164 72 -238 271q-43 108 -43 493v484q0 104 -57 104h-96q-14 0 -15 19v49q0 16 18 16t44 -2l293 -4l258 4q27 2 44 2t17 -16v-54q0 -14 -16 -14h-70q-51 0 -76 -24q-28 -20 -32 -68t-5 -254v-135q0 -70 11 -434q2 -166 65 -244q96 -115 256 -115q61 0 133 29t109 61
q129 117 129 334v316q0 276 -29 444q-6 33 -26 66q-25 25 -50 24h-65q-14 0 -14 17v53q0 14 16 14t39 -2l213 -4l164 4q18 2 30 2z" />
    <glyph glyph-name="Ucircumflex" unicode="&#xdb;" horiz-adv-x="1495" 
d="M864 1874l271 -260q8 -8 2 -17l-15 -18q-6 -8 -18 -2l-283 111l-264 -111q-14 -6 -20 0l-17 20q-4 8 6 19l273 268q20 18 25 18t40 -28zM1468 1456q20 0 21 -18v-45q0 -20 -12 -21h-64q-45 0 -74 -33q-8 -21 -13 -51q-5 -31 -5 -342t-10 -459q-19 -254 -169 -386
t-358 -132t-323 51q-164 72 -238 271q-43 108 -43 493v484q0 104 -57 104h-96q-14 0 -15 19v49q0 16 18 16t44 -2l293 -4l258 4q27 2 44 2t17 -16v-54q0 -14 -16 -14h-70q-51 0 -76 -24q-28 -20 -32 -68t-5 -254v-135q0 -70 11 -434q2 -166 65 -244q96 -115 256 -115
q61 0 133 29t109 61q129 117 129 334v316q0 276 -29 444q-6 33 -26 66q-25 25 -50 24h-65q-14 0 -14 17v53q0 14 16 14t39 -2l213 -4l164 4q18 2 30 2z" />
    <glyph glyph-name="Udieresis" unicode="&#xdc;" horiz-adv-x="1495" 
d="M1083 1612q-51 0 -92 28t-41 84t33 94t93 38t95 -33q33 -37 33 -89t-35 -87t-86 -35zM748 1738q0 -52 -35 -89t-85 -37t-91 28t-41 84t32 95q34 37 94 37t93 -34q33 -32 33 -84zM1468 1456q20 0 21 -18v-45q0 -20 -12 -21h-64q-45 0 -74 -33q-8 -21 -13 -51
q-5 -31 -5 -342t-10 -459q-19 -254 -169 -386t-358 -132t-323 51q-164 72 -238 271q-43 108 -43 493v484q0 104 -57 104h-96q-14 0 -15 19v49q0 16 18 16t44 -2l293 -4l258 4q27 2 44 2t17 -16v-54q0 -14 -16 -14h-70q-51 0 -76 -24q-28 -20 -32 -68t-5 -254v-135
q0 -70 11 -434q2 -166 65 -244q96 -115 256 -115q61 0 133 29t109 61q129 117 129 334v316q0 276 -29 444q-6 33 -26 66q-25 25 -50 24h-65q-14 0 -14 17v53q0 14 16 14t39 -2l213 -4l164 4q18 2 30 2z" />
    <glyph glyph-name="Yacute" unicode="&#xdd;" horiz-adv-x="1255" 
d="M1032 1942q49 0 78 -32t29 -66t-25 -58q-16 -25 -51 -43l-344 -166q-10 -4 -14 0l-27 33q-6 6 2 14l266 277q37 41 86 41zM1350 1456q14 0 14 -16v-49q0 -18 -16 -19h-37q-78 0 -110 -40t-205 -326t-232 -398v-227q0 -166 5 -220q5 -55 23 -69t50 -14h59q14 0 14 -15v-51
q0 -18 -16 -18t-39 2l-256 4h-162l-102 -4q-20 -2 -34 -2t-13 20v49q0 14 14 15h72q68 0 72 47q6 86 6 381v88q-68 131 -211 381q-158 291 -201 350q-37 47 -106 47h-31q-14 0 -14 14v58q0 12 15 12t40 -2l256 -4l268 4q23 2 37 2t14 -14v-51q0 -18 -14 -19h-47
q-49 0 -49 -53q0 -31 143 -315q143 -283 156 -310q39 59 116 208q76 149 99 188q92 184 92 211t-25 49t-53 22h-55q-14 0 -15 19v53q0 12 14 12t40 -2l217 -4l178 4q15 2 29 2z" />
    <glyph glyph-name="Thorn" unicode="&#xde;" horiz-adv-x="1320" 
d="M934 762q0 90 -36 161t-87 101q-49 37 -90 49q-35 16 -89 16t-91 -12v-618q49 -21 145 -21t172 94t76 230zM696 1456q18 0 19 -16v-45q0 -23 -21 -23h-96q-45 0 -49 -31q-8 -57 -8 -184q45 4 165 4t222 -21q100 -22 176 -78q145 -108 145 -290t-135 -297
q-137 -111 -364 -110q-143 0 -209 12v-68q0 -92 6 -166q6 -66 71 -65h91q16 0 16 -15v-53q0 -16 -18 -16t-39 2l-267 4h-165l-101 -4q-23 -2 -38 -2t-15 18v51q0 14 12 15h74q37 0 51 12q15 12 21 68t6 559v235q0 322 -4 375q-2 45 -74 45h-86q-14 0 -14 17v53q0 14 13 14
t36 -2l274 -4l262 4q25 2 43 2z" />
    <glyph glyph-name="germandbls" unicode="&#xdf;" horiz-adv-x="1171" 
d="M453 578q0 -438 3 -472t23 -34h25q23 0 22 -17v-41q0 -20 -13 -20t-36 2l-172 4h-102l-152 -6q-16 0 -16 18v45q0 14 20 15h66q57 0 57 69l-6 572l-121 8q-12 0 -12 14v64q0 10 16 14l117 10v95q0 276 150 419q180 172 366 172q111 0 188 -65q76 -64 76 -186t-139 -254
q-86 -80 -86 -154q0 -29 25 -59q52 -51 164 -115t169 -152q53 -96 51 -225t-100 -228q-100 -99 -245 -100q-53 1 -101 13t-63 26q-16 14 -17 19l-18 164q-2 18 8 22l39 10q10 4 20 -10l60 -92q39 -57 98 -62q53 0 84 37q35 37 35 103q0 119 -117 207q-16 14 -69 51
q-54 37 -72 54q-70 65 -96 130q-31 112 14 213q31 61 63 111q33 45 46 75q27 74 27 161t-48 140q-43 53 -106 54q-127 0 -132 -250q0 -74 5 -129l2 -123v-317z" />
    <glyph glyph-name="agrave" unicode="&#xe0;" horiz-adv-x="933" 
d="M352 1356q59 0 103 -70l151 -250q6 -10 0 -16l-28 -23q-6 -6 -15 2l-258 181q-39 26 -44 68t22 75q31 33 69 33zM522 172v291q-14 -4 -35 -21q-47 -18 -94 -61q-12 -17 -25 -31q-14 -14 -22 -43t-8 -87q0 -57 27 -85q23 -33 61 -37q36 2 66 31t30 43zM168 520
q-51 0 -74 21q-27 20 -26 53q0 94 57 143q170 152 393 152q90 0 133 -12q45 -18 76 -48q57 -51 57 -174l4 -407q4 -90 12 -115t41 -25q32 0 54 37q10 16 20 11l29 -17q14 -8 6 -28q-22 -51 -72 -95t-135 -45q-143 0 -194 125h-10q-72 -66 -177 -106q-51 -18 -147 -19
q-53 0 -96 54q-39 55 -39 135q0 164 176 250q219 104 264 135v108q0 84 -29 111t-89 27t-107 -33q-14 -8 -16 -23l10 -98q0 -53 -35 -85t-86 -32z" />
    <glyph glyph-name="aacute" unicode="&#xe1;" horiz-adv-x="933" 
d="M626 1356q63 0 84 -64t-40 -112l-258 -181q-9 -8 -15 -2l-28 23q-6 6 0 16l151 250q43 70 106 70zM522 172v291q-14 -4 -35 -21q-47 -18 -94 -61q-12 -17 -25 -31q-14 -14 -22 -43t-8 -87q0 -57 27 -85q23 -33 61 -37q36 2 66 31t30 43zM168 520q-51 0 -74 21
q-27 20 -26 53q0 94 57 143q170 152 393 152q90 0 133 -12q45 -18 76 -48q57 -51 57 -174l4 -407q4 -90 12 -115t41 -25q32 0 54 37q10 16 20 11l29 -17q14 -8 6 -28q-22 -51 -72 -95t-135 -45q-143 0 -194 125h-10q-72 -66 -177 -106q-51 -18 -147 -19q-53 0 -96 54
q-39 55 -39 135q0 164 176 250q219 104 264 135v108q0 84 -29 111t-89 27t-107 -33q-14 -8 -16 -23l10 -98q0 -53 -35 -85t-86 -32z" />
    <glyph glyph-name="acircumflex" unicode="&#xe2;" horiz-adv-x="933" 
d="M476 1347q10 0 24 -20l225 -289q10 -10 4 -16l-16 -18q-6 -10 -19 -5l-223 131l-207 -126q-12 -8 -18 -3l-19 19q-6 8 6 20l218 289q15 18 25 18zM522 172v291q-14 -4 -35 -21q-47 -18 -94 -61q-12 -17 -25 -31q-14 -14 -22 -43t-8 -87q0 -57 27 -85q23 -33 61 -37
q36 2 66 31t30 43zM168 520q-51 0 -74 21q-27 20 -26 53q0 94 57 143q170 152 393 152q90 0 133 -12q45 -18 76 -48q57 -51 57 -174l4 -407q4 -90 12 -115t41 -25q32 0 54 37q10 16 20 11l29 -17q14 -8 6 -28q-22 -51 -72 -95t-135 -45q-143 0 -194 125h-10
q-72 -66 -177 -106q-51 -18 -147 -19q-53 0 -96 54q-39 55 -39 135q0 164 176 250q219 104 264 135v108q0 84 -29 111t-89 27t-107 -33q-14 -8 -16 -23l10 -98q0 -53 -35 -85t-86 -32z" />
    <glyph glyph-name="atilde" unicode="&#xe3;" horiz-adv-x="933" 
d="M702 1257h35q16 0 3 -55t-55 -109q-42 -55 -102 -55q-59 0 -151 30t-122 30t-50 -21q-23 -18 -31 -55q-4 -10 -14 -10h-37q-16 0 -6 35q16 84 61 140t97 56t167 -31q116 -31 124 -30q53 0 67 63q4 12 14 12zM522 172v291q-14 -4 -35 -21q-47 -18 -94 -61q-12 -17 -25 -31
q-14 -14 -22 -43t-8 -87q0 -57 27 -85q23 -33 61 -37q36 2 66 31t30 43zM168 520q-51 0 -74 21q-27 20 -26 53q0 94 57 143q170 152 393 152q90 0 133 -12q45 -18 76 -48q57 -51 57 -174l4 -407q4 -90 12 -115t41 -25q32 0 54 37q10 16 20 11l29 -17q14 -8 6 -28
q-22 -51 -72 -95t-135 -45q-143 0 -194 125h-10q-72 -66 -177 -106q-51 -18 -147 -19q-53 0 -96 54q-39 55 -39 135q0 164 176 250q219 104 264 135v108q0 84 -29 111t-89 27t-107 -33q-14 -8 -16 -23l10 -98q0 -53 -35 -85t-86 -32z" />
    <glyph glyph-name="adieresis" unicode="&#xe4;" horiz-adv-x="933" 
d="M403 1169q0 -59 -34 -88q-31 -31 -81 -31t-95 29q-39 29 -39 83t30 92t94 38q62 0 91 -35q34 -29 34 -88zM656 1292q60 0 92 -33t32 -90t-34 -88t-82 -31q-49 0 -91 29q-41 29 -41 85t33 89q31 39 91 39zM522 172v291q-14 -4 -35 -21q-47 -18 -94 -61q-12 -17 -25 -31
q-14 -14 -22 -43t-8 -87q0 -57 27 -85q23 -33 61 -37q36 2 66 31t30 43zM168 520q-51 0 -74 21q-27 20 -26 53q0 94 57 143q170 152 393 152q90 0 133 -12q45 -18 76 -48q57 -51 57 -174l4 -407q4 -90 12 -115t41 -25q32 0 54 37q10 16 20 11l29 -17q14 -8 6 -28
q-22 -51 -72 -95t-135 -45q-143 0 -194 125h-10q-72 -66 -177 -106q-51 -18 -147 -19q-53 0 -96 54q-39 55 -39 135q0 164 176 250q219 104 264 135v108q0 84 -29 111t-89 27t-107 -33q-14 -8 -16 -23l10 -98q0 -53 -35 -85t-86 -32z" />
    <glyph glyph-name="aring" unicode="&#xe5;" horiz-adv-x="933" 
d="M387 1190q1 -51 25 -79t65 -28t72 27q25 31 25 81t-25 77q-25 26 -66 26t-67 -28q-29 -25 -29 -76zM472 1014q-105 0 -167 47q-68 45 -63 119q-2 82 68 133t176 51q105 0 170 -46t65 -118q8 -86 -68 -136t-181 -50zM522 172v291q-14 -4 -35 -21q-47 -18 -94 -61
q-12 -17 -25 -31q-14 -14 -22 -43t-8 -87q0 -57 27 -85q23 -33 61 -37q36 2 66 31t30 43zM168 520q-51 0 -74 21q-27 20 -26 53q0 94 57 143q170 152 393 152q90 0 133 -12q45 -18 76 -48q57 -51 57 -174l4 -407q4 -90 12 -115t41 -25q32 0 54 37q10 16 20 11l29 -17
q14 -8 6 -28q-22 -51 -72 -95t-135 -45q-143 0 -194 125h-10q-72 -66 -177 -106q-51 -18 -147 -19q-53 0 -96 54q-39 55 -39 135q0 164 176 250q219 104 264 135v108q0 84 -29 111t-89 27t-107 -33q-14 -8 -16 -23l10 -98q0 -53 -35 -85t-86 -32z" />
    <glyph glyph-name="ae" unicode="&#xe6;" horiz-adv-x="1394" 
d="M1057 629q0 178 -101 178q-139 0 -159 -254l211 25q49 6 49 51zM338 246q0 -147 92 -148q82 0 133 88q-33 111 -33 279q-2 -2 -15 -9t-32 -18l-49 -24q-62 -43 -69 -64q-3 -6 -15 -38t-12 -66zM172 520q-51 0 -74 21q-27 20 -26 53q0 94 57 143q170 152 385 152
q129 0 180 -105q109 104 299 105q80 0 144 -28q109 -48 153 -152q39 -103 39 -168q0 -29 -43 -33l-485 -31v-43q0 -135 79 -216t193 -81q152 0 213 96q14 20 23 17l41 -23q12 -8 2 -30q-44 -86 -142 -156t-238 -70t-214 35t-137 117h-11q-96 -96 -188 -124t-176 -28
q-166 0 -166 179q0 96 44 155t148 111q248 123 260 137v92q0 76 -28 111t-93 35q-64 0 -112 -33q-14 -8 -16 -23l10 -98q0 -53 -35 -85t-86 -32z" />
    <glyph glyph-name="ccedilla" unicode="&#xe7;" horiz-adv-x="892" 
d="M520 889q172 -1 249 -65t77 -134q0 -40 -28 -68t-79 -28q-113 0 -147 108q-35 98 -121 99q-47 0 -90 -60q-45 -57 -45 -149v-125q2 -31 19 -103t46 -120q63 -119 220 -119q69 0 111 15t93 50q16 10 23 3l29 -29q8 -8 -3 -27q-31 -51 -128 -102t-220 -62l-88 -108
q82 -16 128 -56t46 -92q0 -96 -112 -148t-273 -52q-41 0 -41 41q0 28 62 28t109 29q46 29 46 82q0 70 -127 100l138 178q-164 18 -248 121q-104 129 -105 283q0 248 154 389q133 121 305 121z" />
    <glyph glyph-name="egrave" unicode="&#xe8;" horiz-adv-x="923" 
d="M348 1356q59 0 103 -70l151 -250q6 -10 0 -16l-29 -23q-6 -6 -14 2l-258 181q-39 26 -44 68t22 75q31 33 69 33zM526 588q66 0 66 41q0 68 -27 125q-31 53 -73 53q-139 0 -162 -219h196zM797 510h-469v-55q0 -154 76 -236t194 -82q154 0 223 113q6 14 21 6l35 -18
q16 -10 -5 -50q-37 -76 -136 -146t-226 -71q-217 1 -303 93t-114 164t-32 192q0 166 93 301q113 168 356 168q88 0 164 -33q70 -37 104 -80q61 -89 78 -186q4 -41 4 -55q0 -13 -13 -19t-50 -6z" />
    <glyph glyph-name="eacute" unicode="&#xe9;" horiz-adv-x="923" 
d="M652 1356q62 0 84 -64q21 -64 -40 -112l-258 -181q-8 -8 -14 -2l-29 23q-6 6 0 16l152 250q43 70 105 70zM526 588q66 0 66 41q0 68 -27 125q-31 53 -73 53q-139 0 -162 -219h196zM797 510h-469v-55q0 -154 76 -236t194 -82q154 0 223 113q6 14 21 6l35 -18
q16 -10 -5 -50q-37 -76 -136 -146t-226 -71q-217 1 -303 93t-114 164t-32 192q0 166 93 301q113 168 356 168q88 0 164 -33q70 -37 104 -80q61 -89 78 -186q4 -41 4 -55q0 -13 -13 -19t-50 -6z" />
    <glyph glyph-name="ecircumflex" unicode="&#xea;" horiz-adv-x="923" 
d="M500 1347q10 0 24 -20l226 -289q10 -10 4 -16l-17 -18q-6 -10 -18 -5l-223 131l-207 -126q-12 -8 -19 -3l-18 19q-6 8 6 20l217 289q15 18 25 18zM526 588q66 0 66 41q0 68 -27 125q-31 53 -73 53q-139 0 -162 -219h196zM797 510h-469v-55q0 -154 76 -236t194 -82
q154 0 223 113q6 14 21 6l35 -18q16 -10 -5 -50q-37 -76 -136 -146t-226 -71q-217 1 -303 93t-114 164t-32 192q0 166 93 301q113 168 356 168q88 0 164 -33q70 -37 104 -80q61 -89 78 -186q4 -41 4 -55q0 -13 -13 -19t-50 -6z" />
    <glyph glyph-name="edieresis" unicode="&#xeb;" horiz-adv-x="923" 
d="M180 1162q0 56 31 92q31 38 91 38t94 -34t34 -89t-33 -88q-37 -31 -87 -31t-90 28t-40 84zM559 1162q0 54 32 92t91 38t92 -33t33 -90t-33 -88t-83 -31t-91 30q-41 28 -41 82zM526 588q66 0 66 41q0 68 -27 125q-31 53 -73 53q-139 0 -162 -219h196zM797 510h-469v-55
q0 -154 76 -236t194 -82q154 0 223 113q6 14 21 6l35 -18q16 -10 -5 -50q-37 -76 -136 -146t-226 -71q-217 1 -303 93t-114 164t-32 192q0 166 93 301q113 168 356 168q88 0 164 -33q70 -37 104 -80q61 -89 78 -186q4 -41 4 -55q0 -13 -13 -19t-50 -6z" />
    <glyph glyph-name="igrave" unicode="&#xec;" horiz-adv-x="593" 
d="M162 1356q51 0 94 -70l152 -250q6 -10 0 -16l-29 -23q-6 -6 -14 2l-259 181q-39 26 -44 70t24 73q25 33 76 33zM27 14v41q0 16 20 17h76q35 0 39 41q4 82 4 182l-4 287q0 50 -20 78t-79 51q-25 10 -24 28v23q-1 6 22 16l306 99q35 12 57 12t18 -35t-4 -334v-219
q0 -162 2 -176q6 -53 37 -53h74q20 0 20 -19v-39q0 -20 -16 -20t-39 2l-252 4h-100l-121 -6q-16 0 -16 20z" />
    <glyph glyph-name="iacute" unicode="&#xed;" horiz-adv-x="593" 
d="M466 1356q63 0 84 -64t-40 -112l-258 -181q-8 -8 -14 -2l-29 23q-6 6 0 16l151 250q43 70 106 70zM27 14v41q0 16 20 17h76q35 0 39 41q4 82 4 182l-4 287q0 50 -20 78t-79 51q-25 10 -24 28v23q-1 6 22 16l306 99q35 12 57 12t18 -35t-4 -334v-219q0 -162 2 -176
q6 -53 37 -53h74q20 0 20 -19v-39q0 -20 -16 -20t-39 2l-252 4h-100l-121 -6q-16 0 -16 20z" />
    <glyph glyph-name="icircumflex" unicode="&#xee;" horiz-adv-x="593" 
d="M296 1347q10 0 23 -20l226 -289q10 -10 4 -16l-17 -18q-6 -10 -18 -5l-223 131l-207 -126q-12 -8 -18 -3l-19 19q-6 8 6 20l217 289q16 18 26 18zM27 14v41q0 16 20 17h76q35 0 39 41q4 82 4 182l-4 287q0 50 -20 78t-79 51q-25 10 -24 28v23q-1 6 22 16l306 99
q35 12 57 12t18 -35t-4 -334v-219q0 -162 2 -176q6 -53 37 -53h74q20 0 20 -19v-39q0 -20 -16 -20t-39 2l-252 4h-100l-121 -6q-16 0 -16 20z" />
    <glyph glyph-name="idieresis" unicode="&#xef;" horiz-adv-x="593" 
d="M-16 1162q0 56 30 92q30 38 92 38q60 0 94 -34t33 -89q0 -55 -32 -88q-37 -31 -87 -31t-90 28t-40 84zM362 1162q0 54 32 92t92 38t92 -33t32 -90t-32 -88t-83 -31q-50 0 -92 29q-41 29 -41 83zM27 14v41q0 16 20 17h76q35 0 39 41q4 82 4 182l-4 287q0 50 -20 78t-79 51
q-25 10 -24 28v23q-1 6 22 16l306 99q35 12 57 12t18 -35t-4 -334v-219q0 -162 2 -176q6 -53 37 -53h74q20 0 20 -19v-39q0 -20 -16 -20t-39 2l-252 4h-100l-121 -6q-16 0 -16 20z" />
    <glyph glyph-name="eth" unicode="&#xf0;" horiz-adv-x="1036" 
d="M490 -29q-106 -1 -161 15q-54 16 -114 63q-154 119 -154 351t172 376q121 102 302 103q51 0 131 -39q-43 233 -142 352l-268 -148q-18 -8 -27 7l-28 53q-8 14 6 22l258 140q-94 106 -199 161q-14 9 -14 15t4 18l20 39q4 10 11 10q149 -37 323 -170l219 117q23 10 31 -6
l27 -51q10 -16 -8 -27l-189 -100q259 -259 277 -682q8 -179 -56 -332q-66 -172 -229 -248q-86 -39 -192 -39zM541 55q76 0 110 72q37 70 37 170q0 301 -24 373q-43 125 -148 125q-76 0 -125 -60q-55 -72 -55 -241q0 -86 21 -188t53 -156q55 -95 131 -95z" />
    <glyph glyph-name="ntilde" unicode="&#xf1;" horiz-adv-x="1157" 
d="M856 1257h35q14 0 2 -55t-54 -109q-43 -55 -103 -55t-152 30t-120 30q-58 0 -81 -76q-4 -10 -14 -10h-37q-16 0 -6 35q14 84 60 140t98 56t166 -31q116 -31 124 -30q53 0 68 63q2 12 14 12zM70 -6q-12 0 -13 18v41q0 18 21 19h31q57 0 57 41v454q0 80 -82 119l-18 8
q-14 6 -15 23v18q0 10 19 21l262 118q37 14 47 15q23 0 29 -25l22 -88h16q33 39 101 76t155 37q152 -1 212 -59t76 -102t16 -130v-217q0 -109 -9 -238q-4 -72 50 -71h55q23 0 22 -19v-37q0 -23 -16 -22q-10 0 -31 2l-211 4h-108l-107 -6q-16 0 -16 22v37q0 18 27 19h22
q31 0 37 47q12 80 12 213v219q0 207 -149 207q-47 0 -105 -41q-41 -31 -41 -158l-4 -420q0 -20 8 -49q12 -18 25 -18h27q20 0 20 -21v-39q0 -18 -12 -18t-29 2l-178 4h-115l-80 -4q-18 -2 -30 -2z" />
    <glyph glyph-name="ograve" unicode="&#xf2;" horiz-adv-x="1075" 
d="M370 1356q50 0 95 -70l151 -250q6 -10 0 -16l-28 -23q-6 -6 -15 2l-258 181q-39 26 -44 70t24 73q25 33 75 33zM535 57q88 0 128 109q39 109 39 282t-50 264t-123 91t-109 -55q-68 -104 -68 -299q0 -392 183 -392zM526 -29q-121 0 -198 33q-80 29 -158 117
q-109 121 -109 323q0 82 47 180t130 160q133 104 314 104t320 -128q142 -126 142 -316t-134 -332t-354 -141z" />
    <glyph glyph-name="oacute" unicode="&#xf3;" horiz-adv-x="1075" 
d="M748 1356q62 0 84 -64t-39 -112l-258 -181q-9 -8 -15 -2l-28 23q-6 6 0 16l151 250q43 70 105 70zM535 57q88 0 128 109q39 109 39 282t-50 264t-123 91t-109 -55q-68 -104 -68 -299q0 -392 183 -392zM526 -29q-121 0 -198 33q-80 29 -158 117q-109 121 -109 323
q0 82 47 180t130 160q133 104 314 104t320 -128q142 -126 142 -316t-134 -332t-354 -141z" />
    <glyph glyph-name="ocircumflex" unicode="&#xf4;" horiz-adv-x="1075" 
d="M534 1347q10 0 25 -20l225 -289q10 -10 4 -16l-16 -18q-6 -10 -18 -5l-224 131l-206 -126q-12 -8 -19 -3l-18 19q-8 8 6 20l217 289q14 18 24 18zM535 57q88 0 128 109q39 109 39 282t-50 264t-123 91t-109 -55q-68 -104 -68 -299q0 -392 183 -392zM526 -29
q-121 0 -198 33q-80 29 -158 117q-109 121 -109 323q0 82 47 180t130 160q133 104 314 104t320 -128q142 -126 142 -316t-134 -332t-354 -141z" />
    <glyph glyph-name="otilde" unicode="&#xf5;" horiz-adv-x="1075" 
d="M784 1257h35q16 0 3 -55t-55 -109q-43 -55 -103 -55t-151 30t-121 30t-50 -21q-23 -18 -31 -55q-4 -10 -14 -10h-37q-16 0 -6 35q16 84 61 140t97 56t167 -31q116 -31 123 -30q53 0 68 63q4 12 14 12zM535 57q88 0 128 109q39 109 39 282t-50 264t-123 91t-109 -55
q-68 -104 -68 -299q0 -392 183 -392zM526 -29q-121 0 -198 33q-80 29 -158 117q-109 121 -109 323q0 82 47 180t130 160q133 104 314 104t320 -128q142 -126 142 -316t-134 -332t-354 -141z" />
    <glyph glyph-name="odieresis" unicode="&#xf6;" horiz-adv-x="1075" 
d="M225 1162q0 56 31 92q31 38 91 38t94 -34t34 -89t-33 -88q-37 -31 -87 -31t-90 28t-40 84zM604 1162q0 54 32 92t91 38t92 -33t33 -90t-33 -88t-83 -31t-91 30q-41 28 -41 82zM535 57q88 0 128 109q39 109 39 282t-50 264t-123 91t-109 -55q-68 -104 -68 -299
q0 -392 183 -392zM526 -29q-121 0 -198 33q-80 29 -158 117q-109 121 -109 323q0 82 47 180t130 160q133 104 314 104t320 -128q142 -126 142 -316t-134 -332t-354 -141z" />
    <glyph glyph-name="divide" unicode="&#xf7;" 
d="M514 70q-55 0 -91 32t-36 83q0 52 37 89q39 33 90 33t88 -35t37 -87t-37 -83q-33 -32 -88 -32zM514 705q-55 0 -92 32q-35 39 -35 87t37 85q39 33 90 33t88 -35t37 -84t-35 -83t-90 -35zM106 584h814v-156h-814v156z" />
    <glyph glyph-name="oslash" unicode="&#xf8;" horiz-adv-x="1075" 
d="M521 803q-59 0 -93 -49q-82 -106 -82 -320q0 -98 14 -141l314 364q-10 55 -51 101q-43 45 -102 45zM537 889q168 0 286 -86l72 76q12 12 20 4l46 -41q10 -10 4 -19l-74 -75q123 -134 123 -318t-135 -319q-133 -139 -353 -140q-172 0 -293 84l-75 -78q-8 -8 -19 3l-39 38
q-8 8 2 21l70 76q-111 127 -111 338q0 76 41 169t134 164q133 103 301 103zM539 57q76 0 120 111q49 111 50 281q-1 67 -9 110l-317 -362q31 -76 68 -107q33 -33 88 -33z" />
    <glyph glyph-name="ugrave" unicode="&#xf9;" horiz-adv-x="1120" 
d="M385 1356q59 0 102 -70l152 -250q6 -10 0 -16l-29 -23q-6 -6 -14 2l-258 181q-39 26 -44 68t21 75q31 33 70 33zM410 401q-4 -84 4 -139q0 -39 12 -69q6 -31 23 -54q27 -43 92 -43h8q57 0 110 66q33 35 33 74l-2 481q0 66 -88 71q-35 4 -35 15v39q0 14 4 14q2 4 21 4h305
q6 0 35 4h14q6 2 10 2q20 0 19 -20q-12 -111 -12 -279v-151q0 -186 5 -247t36 -60q42 0 66 6t26 -9l6 -38q4 -13 -10 -17l-287 -71q-73 -26 -80 16l-12 110h-13q-33 -57 -110 -94q-74 -41 -148 -41t-90 4q-25 0 -65 25q-54 26 -94 98q-7 18 -17 30t-17 34q-7 23 -7 26l-9 33
q0 16 -4 33v37q-2 16 -2 37v94l2 90q0 174 -2 206q-1 32 -25 50t-56 23t-33 12v41q0 16 22 16h299q8 0 29 4h12q6 2 10 2q27 0 23 -24q-8 -66 -8 -277v-164z" />
    <glyph glyph-name="uacute" unicode="&#xfa;" horiz-adv-x="1120" 
d="M730 1356q62 0 84 -64q21 -64 -40 -112l-258 -181q-8 -8 -14 -2l-29 23q-6 6 0 16l152 250q43 70 105 70zM410 401q-4 -84 4 -139q0 -39 12 -69q6 -31 23 -54q27 -43 92 -43h8q57 0 110 66q33 35 33 74l-2 481q0 66 -88 71q-35 4 -35 15v39q0 14 4 14q2 4 21 4h305
q6 0 35 4h14q6 2 10 2q20 0 19 -20q-12 -111 -12 -279v-151q0 -186 5 -247t36 -60q42 0 66 6t26 -9l6 -38q4 -13 -10 -17l-287 -71q-73 -26 -80 16l-12 110h-13q-33 -57 -110 -94q-74 -41 -148 -41t-90 4q-25 0 -65 25q-54 26 -94 98q-7 18 -17 30t-17 34q-7 23 -7 26l-9 33
q0 16 -4 33v37q-2 16 -2 37v94l2 90q0 174 -2 206q-1 32 -25 50t-56 23t-33 12v41q0 16 22 16h299q8 0 29 4h12q6 2 10 2q27 0 23 -24q-8 -66 -8 -277v-164z" />
    <glyph glyph-name="ucircumflex" unicode="&#xfb;" horiz-adv-x="1120" 
d="M558 1347q10 0 24 -20l225 -289q10 -10 4 -16l-16 -18q-6 -10 -19 -5l-223 131l-207 -126q-12 -8 -18 -3l-19 19q-6 8 6 20l217 289q16 18 26 18zM410 401q-4 -84 4 -139q0 -39 12 -69q6 -31 23 -54q27 -43 92 -43h8q57 0 110 66q33 35 33 74l-2 481q0 66 -88 71
q-35 4 -35 15v39q0 14 4 14q2 4 21 4h305q6 0 35 4h14q6 2 10 2q20 0 19 -20q-12 -111 -12 -279v-151q0 -186 5 -247t36 -60q42 0 66 6t26 -9l6 -38q4 -13 -10 -17l-287 -71q-73 -26 -80 16l-12 110h-13q-33 -57 -110 -94q-74 -41 -148 -41t-90 4q-25 0 -65 25
q-54 26 -94 98q-7 18 -17 30t-17 34q-7 23 -7 26l-9 33q0 16 -4 33v37q-2 16 -2 37v94l2 90q0 174 -2 206q-1 32 -25 50t-56 23t-33 12v41q0 16 22 16h299q8 0 29 4h12q6 2 10 2q27 0 23 -24q-8 -66 -8 -277v-164z" />
    <glyph glyph-name="udieresis" unicode="&#xfc;" horiz-adv-x="1120" 
d="M477 1169q0 -59 -35 -88q-31 -31 -81 -31t-95 29q-39 29 -39 83t31 92t93 38t91 -35q35 -29 35 -88zM729 1292q59 0 92 -33t33 -90t-33 -88t-83 -31t-91 30q-41 28 -41 84t33 89q31 39 90 39zM410 401q-4 -84 4 -139q0 -39 12 -69q6 -31 23 -54q27 -43 92 -43h8
q57 0 110 66q33 35 33 74l-2 481q0 66 -88 71q-35 4 -35 15v39q0 14 4 14q2 4 21 4h305q6 0 35 4h14q6 2 10 2q20 0 19 -20q-12 -111 -12 -279v-151q0 -186 5 -247t36 -60q42 0 66 6t26 -9l6 -38q4 -13 -10 -17l-287 -71q-73 -26 -80 16l-12 110h-13q-33 -57 -110 -94
q-74 -41 -148 -41t-90 4q-25 0 -65 25q-54 26 -94 98q-7 18 -17 30t-17 34q-7 23 -7 26l-9 33q0 16 -4 33v37q-2 16 -2 37v94l2 90q0 174 -2 206q-1 32 -25 50t-56 23t-33 12v41q0 16 22 16h299q8 0 29 4h12q6 2 10 2q27 0 23 -24q-8 -66 -8 -277v-164z" />
    <glyph glyph-name="yacute" unicode="&#xfd;" horiz-adv-x="905" 
d="M744 1356q62 0 84 -64q21 -64 -40 -112l-258 -181q-8 -8 -14 -2l-29 23q-6 6 0 16l152 250q43 70 105 70zM629 864l153 -4l138 4h18l8 2q12 0 12 -20v-39q0 -18 -10 -19h-22q-45 0 -83 -50t-280 -572q-241 -521 -277 -581t-44 -68q-8 -18 -54 -46t-100 -28q-55 0 -88 33
q-37 31 -37 84t31 84q54 65 156 12q39 -23 65 -8q15 8 75 132t77 177q-8 37 -117 315t-170 428q-33 88 -72 88h-33q-16 0 -16 19v45q0 14 14 14t31 -2l217 -4l176 4q21 2 37 2t17 -18v-43q0 -16 -13 -17h-28q-43 0 -37 -47q0 -6 14 -56t57 -201q42 -150 64 -218h10
q8 20 88 214t89 232t-7 54q-12 23 -47 22h-33q-14 0 -14 17v45q0 16 12 16h4z" />
    <glyph glyph-name="thorn" unicode="&#xfe;" horiz-adv-x="1105" 
d="M598 51q170 0 170 285q0 205 -61 319q-51 94 -141 94t-138 -57l-2 -479q0 -78 59 -120t113 -42zM50 -563q-16 0 -17 18v43q0 16 14 17h59q48 0 52 57t4 219l-8 1266q0 127 -64 151l-45 17q-14 6 -14 18v27q0 10 14 12q199 48 265 82t86 34t20 -42l-6 -578l8 -4
q122 115 272 115t244 -105q63 -72 90 -129q20 -61 20 -172q0 -211 -132 -361t-339 -151q-92 0 -149 33l4 -313q4 -121 17 -149t55 -27h51q18 0 18 -21v-39q0 -18 -18 -18q-6 0 -14 2h-78q-20 4 -74 4h-96l-205 -4q-18 -2 -34 -2z" />
    <glyph glyph-name="ydieresis" unicode="&#xff;" horiz-adv-x="905" 
d="M440 1169q0 -59 -34 -88q-31 -31 -81 -31t-96 29q-39 29 -39 83t31 92t93 38t92 -35q34 -29 34 -88zM692 1292q59 0 92 -33t33 -90t-34 -88t-83 -31t-90 30q-41 28 -41 84t33 89q31 39 90 39zM629 864l153 -4l138 4h18l8 2q12 0 12 -20v-39q0 -18 -10 -19h-22
q-45 0 -83 -50t-280 -572q-241 -521 -277 -581t-44 -68q-8 -18 -54 -46t-100 -28q-55 0 -88 33q-37 31 -37 84t31 84q54 65 156 12q39 -23 65 -8q15 8 75 132t77 177q-8 37 -117 315t-170 428q-33 88 -72 88h-33q-16 0 -16 19v45q0 14 14 14t31 -2l217 -4l176 4q21 2 37 2
t17 -18v-43q0 -16 -13 -17h-28q-43 0 -37 -47q0 -6 14 -56t57 -201q42 -150 64 -218h10q8 20 88 214t89 232t-7 54q-12 23 -47 22h-33q-14 0 -14 17v45q0 16 12 16h4z" />
  </font>
</defs>
</svg>
