<?xml version="1.0" standalone="no"?>
<!DOCTYPE svg PUBLIC "-//W3C//DTD SVG 1.1//EN" "http://www.w3.org/Graphics/SVG/1.1/DTD/svg11.dtd" >
<svg xmlns="http://www.w3.org/2000/svg">
<metadata>
Created by FontPrep 20130207 at Tue Jun 10 13:00:10 2014
 By Hans Philip Eide
(c) 1990, 1992, 1996, 2000, 2001 Adobe Systems Incorporated. All rights reserved.
</metadata>
<defs>
<font id="66be995022d6f507f528f15386d1e64f" horiz-adv-x='1024' >
  <font-face 
    font-family="ACaslonPro-Regular"
    font-weight="400"
    font-stretch="normal"
    units-per-em="2048"
    panose-1="2 0 5 3 0 0 0 0 0 0"
    ascent="1505"
    descent="-543"
    x-height="862"
    cap-height="1456"
    bbox="-158 -563 2326 1900.12"
    underline-thickness="102"
    underline-position="-102"
    unicode-range="U+0020-00FF"
  />
<missing-glyph 
 />
    <glyph glyph-name=".notdef" 
 />
    <glyph glyph-name=".null" horiz-adv-x="0" 
 />
    <glyph glyph-name="nonmarkingreturn" horiz-adv-x="681" 
 />
    <glyph glyph-name="space" unicode=" " horiz-adv-x="520" 
 />
    <glyph glyph-name="exclam" unicode="!" horiz-adv-x="520" 
d="M166 1285q0 40 28 77t73 37q44 0 73 -31q31 -27 27 -90q0 -22 -35 -366q-35 -345 -39 -476q0 -14 -14 -14h-37q-14 0 -15 20q-1 106 -31 454t-30 389zM271 -25q-46 0 -91 29q-41 29 -41 78t31 89t88 40t90 -35q35 -31 35 -85t-35 -83q-31 -33 -77 -33z" />
    <glyph glyph-name="quotedbl" unicode="&#x22;" horiz-adv-x="757" 
d="M544 1481q95 0 95 -84q-1 -23 -29 -207t-32 -246h-68q-2 56 -32 240t-29 211q0 86 95 86zM121 1395q0 86 95 86t95 -84q-1 -23 -29 -211t-30 -242h-70q-2 56 -32 240t-29 211z" />
    <glyph glyph-name="numbersign" unicode="#" 
d="M993 856h-215l-67 -317h227q25 0 23 -17l-21 -82q-4 -10 -25 -10h-227l-90 -436q-6 -25 -20 -25h-93q-14 0 -8 23l92 438h-223l-92 -428q-6 -33 -21 -33h-92q-14 0 -8 29l94 432h-231q-18 0 -12 19l20 75q2 14 23 15h223l65 317h-213q-20 0 -24 4q-8 0 -4 10l16 80
q2 14 27 15h221l92 415q4 18 16 19h91q14 0 8 -21l-86 -413h221l86 415q8 18 20 19h91q14 0 10 -23l-86 -411h223l16 -2q4 -8 2 -13l-18 -80q-2 -14 -31 -14zM592 539l65 317h-221l-67 -317h223z" />
    <glyph glyph-name="dollar" unicode="$" 
d="M385 819l8 416q-115 -60 -113 -225q0 -80 42 -140q8 -14 22 -24q8 -10 24 -18t17 -9zM758 342q0 186 -133 252l-13 -477q61 25 105 80q41 59 41 145zM561 768l12 471q-51 27 -108 14l-12 -458q20 -11 108 -27zM449 643l-15 -526q18 -18 111 -15l12 514q-11 2 -47 12
t-61 15zM594 -88h-39q-14 0 -14 20l2 101q-61 -6 -111 8l-4 -111q0 -18 -14 -18h-41q-14 0 -15 20l4 125q-47 16 -102 60q-33 23 -45 23q-13 0 -27 -25q-14 -24 -36 -25q-20 0 -19 27q0 8 3 27q3 18 7 58q5 40 13 132t10 98q0 14 14 14l31 -2q12 0 12 -14q1 -118 49 -190
t93 -97l14 523q-80 25 -135 79q-96 91 -96 237t126 257q49 47 121 70l4 116q0 20 15 21h41q14 0 14 -21l-2 -106q49 6 108 -4l3 110q0 20 14 21h41q14 0 14 -25l-4 -118q37 -7 67 -21t44 -2l20 20q16 12 29 13q16 0 16 -31q0 -158 6 -281q0 -10 -10 -14l-29 -6q-8 0 -12 6
q-23 129 -86 187l-43 36l-16 -456q262 -78 262 -351q0 -123 -77 -228t-204 -134l-2 -109q0 -20 -14 -20z" />
    <glyph glyph-name="percent" unicode="%" horiz-adv-x="1536" 
d="M1188 840q86 0 145 -41q59 -35 94 -108q60 -126 68 -279q-2 -203 -82 -318q-84 -113 -215 -112q-98 0 -160 47q-63 43 -96 116q-51 134 -51 248q0 187 76 317t221 130zM1182 778q-148 0 -148 -350q0 -191 37 -285q23 -49 59 -75t68 -25q90 0 119 84q29 92 29 274
q0 377 -164 377zM372 -31q-7 1 -36 17t-29 24t10 25l832 1347q10 16 17 16t37 -17q30 -18 30 -23t-8 -19l-832 -1343q-14 -27 -21 -27zM338 1399q80 0 145 -39q61 -44 91 -104t53 -142q16 -90 18 -143q-4 -207 -84 -316q-78 -115 -213 -114q-92 0 -160 45q-68 51 -94 119
q-53 119 -53 247q0 186 76 316t221 131zM348 602q90 0 119 84q29 92 29 275q0 377 -164 376q-70 0 -105 -71q-43 -90 -43 -279t37 -285q23 -48 59 -74t68 -26z" />
    <glyph glyph-name="ampersand" unicode="&#x26;" horiz-adv-x="1689" 
d="M762 1158q0 74 -48 146t-119 72t-132 -73q-57 -76 -57 -168t208 -222q82 63 115 117t33 128zM781 158q9 6 26 16t51 45t41 42q5 7 27 31t27 30t9 10t5 8l2 2q-242 338 -451 459q-121 -67 -200 -175q-80 -108 -76 -230t110 -213t222 -91t207 66zM74 342q0 276 403 502
q-102 59 -158 129q-55 72 -55 127q0 118 118 234t220 116t197 -90q86 -90 84 -195q-4 -75 -77 -159t-149 -123q101 -53 225 -167t208 -233q198 270 202 334q4 25 -14 44t-49 20h-35q-14 0 -14 14v45q0 10 22 10t72 -4l119 -2q49 0 82 2l129 4q14 0 14 -14v-43q0 -14 -14 -14
h-35q-76 1 -104 -9t-52 -51q-109 -159 -174 -251t-109 -140q143 -160 156 -172q147 -154 277 -154q80 0 143 62q63 57 82 98q8 10 16 2l31 -18q16 -10 -25 -68q-41 -57 -86 -104q-114 -105 -270 -105q-83 0 -192 56q-102 73 -179 177q-35 46 -47 62l-22 31
q-123 -150 -185 -201q-149 -125 -319 -125q-170 -1 -303 97t-133 276z" />
    <glyph glyph-name="quotesingle" unicode="'" horiz-adv-x="421" 
d="M212 1481q95 0 95 -84q-1 -23 -29 -211t-30 -242h-70q-2 56 -32 240t-29 211q0 86 95 86z" />
    <glyph glyph-name="parenleft" unicode="(" horiz-adv-x="675" 
d="M123 564q0 294 137 583q88 193 270 369q20 14 34 14t30 -9t16 -23t-18 -34q-330 -346 -330 -880t332 -871q16 -23 16 -34t-14 -23q-16 -10 -30 -10t-36 16q-199 186 -288 369q-119 239 -119 533z" />
    <glyph glyph-name="parenright" unicode=")" horiz-adv-x="675" 
d="M553 612q0 -294 -137 -583q-92 -201 -271 -367q-21 -16 -35 -16t-30 10q-14 12 -14 24t18 31q330 346 330 880t-332 871q-16 23 -16 36q0 12 15 22t29 10t35 -14q203 -195 289 -371q119 -239 119 -533z" />
    <glyph glyph-name="asterisk" unicode="*" horiz-adv-x="671" 
d="M336 817q-66 0 -66 72q0 4 60 246h-4q-6 -4 -82 -80t-97 -90q-63 -39 -98 16q-33 55 31 94q12 8 122 41t122 33v4q-10 2 -125 31q-106 31 -129 39q-23 9 -32 31t5 55q31 57 98 20q23 -12 99 -84q84 -74 86 -82l4 4l-31 123q-29 100 -29 123q0 68 66 68t65 -68
q0 -27 -28 -129q-18 -80 -31 -119l4 -4q12 16 93 92t91 82q57 29 91 -22q35 -59 -27 -92q-20 -12 -128 -40t-116 -28v-4q211 -51 250 -72q66 -31 25 -96q-35 -53 -101 -14q-20 12 -98 88t-80 84l-4 -4q12 -39 31 -119q29 -100 28 -127q1 -72 -65 -72z" />
    <glyph glyph-name="plus" unicode="+" 
d="M575 82h-122v352h-338v115h338v352h122v-352h334v-115h-334v-352z" />
    <glyph glyph-name="comma" unicode="," horiz-adv-x="520" 
d="M240 236q55 0 114 -54q60 -54 60 -137q0 -81 -32 -153t-82 -125t-70 -69t-56 -44q-37 -18 -41 -19q-25 0 -24 19q0 14 18 31q145 133 145 258q0 16 -11 36t-36 30q-26 9 -32 16q-21 11 -29 19t-22 20t-17 36q-4 24 -4 51t31 58q33 27 88 27z" />
    <glyph glyph-name="hyphen" unicode="-" horiz-adv-x="827" 
d="M106 498v90q0 14 19 14h573q23 0 23 -22v-78q0 -14 -25 -15h-571q-19 -3 -19 11z" />
    <glyph glyph-name="period" unicode="." horiz-adv-x="520" 
d="M256 211q57 0 91 -34t34 -86t-33 -84t-80 -32t-88 29t-41 79t29 89q31 39 88 39z" />
    <glyph glyph-name="slash" unicode="/" horiz-adv-x="716" 
d="M4 33l610 1440q8 18 27 12l66 -27q18 -6 8 -28l-613 -1442q-10 -27 -26 -17l-70 35q-10 7 -2 27z" />
    <glyph glyph-name="zero" unicode="0" 
d="M524 43q132 0 196 140t64 558q0 240 -76 412t-197 172q-122 0 -187 -123q-82 -158 -82 -553q0 -291 69 -432q82 -174 213 -174zM522 -31q-113 0 -211 64q-94 70 -142 164q-106 208 -106 417q0 350 130 566q127 219 327 219q106 -1 194 -65t136 -162q49 -98 84 -234
q27 -129 27 -242q0 -348 -120 -538t-319 -189z" />
    <glyph glyph-name="one" unicode="1" 
d="M530 0l-216 -4l-73 -2h-29q-15 0 -15 16v51q0 12 28 13h94q96 0 119 16q20 16 23 98q2 19 2 478v358q-4 115 -49 115q-27 0 -82 -17l-144 -47q-16 -4 -20 6l-16 37q-6 16 12 25l424 243q23 12 28 13q14 0 15 -29l-2 -98q-4 -132 -4 -506v-86q0 -88 2 -242v-243
q4 -84 24 -101q18 -20 119 -20h74q20 0 20 -17v-47q0 -16 -18 -16h-19l-139 2q-98 4 -158 4z" />
    <glyph glyph-name="two" unicode="2" 
d="M201 0q-124 0 -160 -8h-6q-15 0 -23 14t6 29l105 96q106 98 184 172q102 102 152 156q260 279 252 512q-2 135 -78 213t-187 76q-61 0 -108 -21q-48 -21 -70 -45t-34 -38t-19 -25q-8 -10 -43 -70q-10 -18 -25 -10l-28 12q-10 6 0 29q127 307 409 307q137 0 248 -105
q111 -100 111 -252t-60 -268q-53 -121 -194 -276q-98 -113 -206 -203q-109 -89 -131 -109t-37 -32t-17 -15h415q100 0 158 62q31 35 40 47t40 63q12 23 37 10t16 -28l-133 -320q-4 -8 -4 -13t-4 -9h-23q-18 1 -28 25t-111 24h-444z" />
    <glyph glyph-name="three" unicode="3" 
d="M379 -31q-164 0 -236 52q-71 51 -71 101t27 80t60 16q33 -15 43 -36q11 -20 11 -26q6 -6 10 -27q41 -84 185 -84t223 84q84 82 84 213t-82 225t-213 125q-4 4 -17 4q-18 16 -20 27q0 23 25 29q106 22 186 100t80 184t-58 172q-59 63 -151 64q-190 0 -272 -223
q-3 -11 -9 -17t-12 -4l-37 8q-8 2 -2 31q25 123 125 227q104 104 257 104t229 -84q76 -85 77 -184q0 -211 -229 -352q117 -29 207 -131q92 -98 92 -227q1 -195 -151 -323t-361 -128z" />
    <glyph glyph-name="four" unicode="4" 
d="M643 508v563q0 27 -12 30t-27 -18l-377 -520q-41 -55 15 -55h401zM768 0h-102q-25 0 -25 23v360h-571q-31 0 -31 25q0 14 20 41l666 917q25 33 45 33q27 0 27 -62v-819h166q25 0 24 -16v-99q0 -20 -33 -20h-157v-354q1 -17 -5 -23t-24 -6z" />
    <glyph glyph-name="five" unicode="5" 
d="M55 84q1 53 53 53q26 0 92 -40t177 -40q111 1 209 93t98 223q0 238 -180 313q-123 55 -266 45q-25 -4 -38 3t-10 24l74 577q4 21 9 27t24 6h438q35 0 58 12q25 18 33 30t34 60q10 16 25 11q29 -16 28 -21v-4l-73 -205q-8 -20 -24 -30t-64 -11h-426l-37 -329q31 2 115 -5
q245 -20 350 -159q84 -96 84 -240q2 -217 -152 -362t-364 -146q-109 0 -189 35q-78 35 -78 80z" />
    <glyph glyph-name="six" unicode="6" 
d="M512 717q-154 0 -203 -101q-45 -82 -45 -223q0 -109 39 -217q23 -64 82 -102q53 -39 147 -39t160 84q68 77 68 285q0 120 -67 216t-181 97zM504 -31q-188 0 -283 113q-131 139 -131 377q0 414 311 719q137 133 301 198q55 23 78 23t23 -22t-19 -31q-158 -72 -301 -240
q-150 -166 -184 -395q106 94 272 94q115 0 207 -64q156 -124 156 -297q0 -133 -34 -211t-93 -141q-115 -123 -303 -123z" />
    <glyph glyph-name="seven" unicode="7" 
d="M399 1368h576q20 0 20 -16t-8 -30t-15 -26q-7 -14 -29 -53t-100 -199q-79 -159 -122 -262q-209 -481 -277 -708q-31 -104 -102 -105q-37 0 -59 21q-20 25 -21 64t59 158q60 118 120 234q61 116 197 378l204 393h-486q-26 1 -32 -1t-22 -4t-30 -9t-24 -11t-22 -16t-17 -18
q-6 -6 -12 -15l-17 -21q0 -2 -13 -22t-25 -32t-29 -2q-17 11 -19 14t2 20l127 330q7 14 29 14t28 -8t2 -30q-3 -22 17 -30t100 -8z" />
    <glyph glyph-name="eight" unicode="8" 
d="M528 1315q-108 0 -178 -76t-69 -184q1 -72 37 -127t78 -85t161 -102q81 51 145 139t69 190q5 104 -65 174t-178 71zM264 282q0 -110 79 -176t187 -67q108 0 170 63q66 59 66 187q0 53 -21 108q-29 53 -69 87t-90 65q-41 29 -117 67q-205 -116 -205 -334zM500 -31
q-184 0 -275 89q-90 89 -90 210q-1 121 63 209t203 178q-281 158 -280 351q0 150 117 272q121 121 321 121q139 0 244 -80q104 -82 104 -184q0 -143 -58 -233t-224 -204q133 -61 211 -148t78 -219t-116 -247q-114 -115 -298 -115z" />
    <glyph glyph-name="nine" unicode="9" 
d="M510 1333q-98 0 -178 -92q-76 -95 -76 -245t74 -245t180 -96q150 0 207 117q31 63 31 203q0 358 -238 358zM489 1399q125 0 193 -34t139 -110q63 -73 87 -165t24 -164q0 -475 -334 -770q-139 -119 -295 -172q-43 -14 -63 -15q-31 0 -31 29q0 18 18 29q164 66 314 235
q152 166 182 402l-2 4q-106 -100 -250 -101q-195 0 -287 120t-92 290q0 59 48 163t104 152q121 107 245 107z" />
    <glyph glyph-name="colon" unicode=":" horiz-adv-x="520" 
d="M256 879q57 0 91 -34t34 -86t-33 -84t-80 -32t-88 29t-41 79t29 89q31 39 88 39zM256 211q57 0 91 -34t34 -86t-33 -84t-80 -32t-88 29t-41 79t29 89q31 39 88 39z" />
    <glyph glyph-name="semicolon" unicode=";" horiz-adv-x="520" 
d="M350 761q0 -54 -32 -86t-80 -32q-47 0 -88 29t-41 78t30 90q31 39 89 39t87 -35q35 -29 35 -83zM240 236q55 0 114 -54q60 -54 60 -137q0 -81 -32 -153t-82 -125t-70 -69t-56 -44q-37 -18 -41 -19q-25 0 -24 19q0 14 18 31q145 133 145 258q0 16 -11 36t-36 30
q-26 9 -32 16q-21 11 -29 19t-22 20t-17 36q-4 24 -4 51t31 58q33 27 88 27z" />
    <glyph glyph-name="less" unicode="&#x3c;" 
d="M809 82l-637 379v65l637 375v-135l-453 -262v-10l453 -273v-139z" />
    <glyph glyph-name="equal" unicode="=" 
d="M115 401h794v-114h-794v114zM115 711h794v-115h-794v115z" />
    <glyph glyph-name="greater" unicode="&#x3e;" 
d="M215 901l637 -379v-65l-637 -375v135l453 262v10l-453 273v139z" />
    <glyph glyph-name="question" unicode="?" horiz-adv-x="757" 
d="M395 85q-1 -44 -33 -77t-80 -33t-81 31t-33 77t31 79t80 33t81 -35q35 -31 35 -75zM311 610q-16 0 -16 -16v-219q0 -14 -14 -15h-39q-14 0 -15 15v387q0 24 28 18q27 -6 99 -6t118 12t85 52q43 39 43 98q0 98 -111 184q-73 62 -121 80t-112 18t-108 30q-42 30 -42 71
q0 34 31 57q31 22 68 23q135 0 308 -177t173 -358q0 -56 -27 -125q-8 -14 -32 -43q-7 -6 -31 -25t-52 -27t-48 -17q-73 -13 -99 -13l-49 -4h-37z" />
    <glyph glyph-name="at" unicode="@" horiz-adv-x="1609" 
d="M700 -31q-293 0 -467 158q-170 160 -170 406q1 245 135 465t347 350q209 133 455 133q246 -1 386 -147q141 -146 142 -400q0 -219 -164 -395q-160 -178 -418 -179q-32 0 -54 22t-22 46q0 59 72 244l-8 4q-80 -115 -201 -215t-227 -101q-43 0 -74 31t-31 88q0 127 95 291
q98 160 233 270q143 109 243 109t136 -72l27 39q8 14 20 14h78q18 0 10 -20q-1 -3 -55 -125q-54 -123 -94 -221q-86 -195 -86 -283q0 -41 59 -41q104 0 219 142q117 139 117 367t-117 343q-118 115 -322 115t-380 -127t-273 -317q-96 -197 -96 -392q0 -244 145 -385
t371 -137q256 0 389 84l27 -51q-51 -47 -178 -78q-121 -35 -269 -35zM956 1090q-80 0 -179 -106t-165 -244q-66 -136 -67 -212q0 -76 49 -75q80 0 219 145q137 144 183 238t46 141t-22 80q-25 33 -64 33z" />
    <glyph glyph-name="A" unicode="A" horiz-adv-x="1521" 
d="M717 1276q-10 0 -23 -31q-205 -539 -219 -602h453q-49 164 -195 604q-12 29 -16 29zM1251 0l-235 -4l-49 -2q-16 0 -17 18v47q0 14 19 15h51q41 0 57 16q14 16 4 62q-31 134 -129 417h-503q-25 -59 -81 -220t-63 -185q-6 -43 -6 -45q0 -45 70 -45h96q20 0 20 -15v-47
q0 -18 -16 -18h-4l-26 2l-203 4h-115l-109 -6q-14 0 -14 16v49q0 14 16 15h72q43 0 70 20q29 27 63 102t208 551t200 537q14 47 2 70q-14 16 -15 26q0 12 19 19q41 10 95 43t75 59q18 19 28 19t28 -60t103 -309q85 -250 128 -385q34 -125 108 -335t100 -265q45 -92 140 -92
h67q16 0 17 -15v-51q0 -14 -21 -14h-4l-24 2z" />
    <glyph glyph-name="B" unicode="B" horiz-adv-x="1351" 
d="M463 963v-152q53 -4 108 -4q180 0 258 53q115 86 115 236t-100 223q-100 72 -281 72q-61 0 -67 -2q-29 -10 -29 -37q-4 -110 -4 -389zM463 741v-409q0 -145 45 -209q49 -63 180 -63t225 76q94 77 95 249q0 119 -56 202t-148 119q-93 36 -276 35h-65zM355 0l-197 -4
l-56 -2q-29 0 -28 12v53q0 14 18 15h98q47 0 60 18q16 16 24 87t9 470v242q1 252 -5 349q-6 96 -30 116t-105 20h-63q-16 0 -17 15v51q0 14 17 14h4l31 -2l211 -4q92 0 153 4l133 2q268 0 363 -55q158 -86 158 -279q0 -139 -56 -200q-49 -61 -194 -138l6 -4
q332 -109 332 -405q0 -84 -46 -175t-112 -132q-121 -74 -391 -74l-174 2q-63 4 -143 4z" />
    <glyph glyph-name="C" unicode="C" horiz-adv-x="1527" 
d="M836 -31q-311 0 -519 189q-106 100 -162 256t-57 317q0 322 209 543q86 94 219 147q131 59 293 60q221 0 414 -113q35 -23 41 0l16 59q4 13 22 13t23 -7q4 -7 4 -42q1 -35 25 -201t26 -182t-8 -19l-30 -8q-14 -2 -21 16q-68 158 -160 254q-154 158 -356 158
q-131 0 -234 -55q-103 -56 -163 -150t-88 -200q-27 -106 -27 -223q0 -119 46 -265t151 -258q92 -104 181 -138t233 -34t277 77q134 77 208 183q8 14 16 6l27 -20q10 -10 4 -19q-237 -344 -610 -344z" />
    <glyph glyph-name="D" unicode="D" horiz-adv-x="1665" 
d="M481 887v-146q0 -162 4 -501q0 -61 35 -115q48 -66 206 -66q158 1 284 59t209 163q150 182 149 460q0 115 -46 242q-148 408 -636 408q-131 0 -166 -22t-37 -87t-2 -395zM381 1450l226 4l79 2q225 0 384 -40t282 -144q227 -197 227 -522q-1 -320 -187 -522
q-156 -168 -358 -208q-130 -26 -295 -26l-202 2q-88 4 -175 4h-143l-145 -6q-14 0 -15 14v53q0 12 17 13h137q59 0 66 49q14 94 14 663v154q0 283 -10 379q-4 37 -25 45q-18 12 -63 12h-113q-16 0 -16 15v55q0 10 16 10t41 -2z" />
    <glyph glyph-name="E" unicode="E" horiz-adv-x="1413" 
d="M161 1454l204 -4h393q135 2 305 2l82 4q12 0 16 -10l105 -330q4 -14 -6 -18l-31 -17q-9 -6 -15 5q-6 12 -88 110t-118 125q-76 51 -156 55l-365 8v-600q285 0 323 38q16 16 30 60t18 105q0 14 14 14l52 -2q16 -1 11 -25t-5 -166t12 -271q0 -12 -12 -17l-45 -6
q-4 -2 -13 2q0 4 -4 16q-2 27 -22 97q-23 72 -88 80q-106 10 -271 10v-127q0 -109 2 -201t3 -149q4 -139 116 -160q66 -14 168 -14t186 9t156 68q12 9 82 99t86 116q12 18 25 13l32 -19q12 -10 5 -28l-109 -301q-10 -31 -45 -31q-8 0 -20 2h-62q-30 2 -116 2t-226 2h-496
q-39 -2 -73 -2l-78 -2l-10 -2q-18 0 -19 14v55q0 10 21 11h82q72 0 86 16q16 12 16 74v686q0 385 -6 441t-27 69q-18 16 -78 16h-73q-16 0 -17 15v55q0 10 15 10z" />
    <glyph glyph-name="F" unicode="F" horiz-adv-x="1224" 
d="M100 63q0 10 15 11h92q35 0 55 8q14 10 20 60t5 628v143l-4 404q0 59 -84 59h-119q-14 0 -14 13v55q0 12 12 12t31 -2h55q127 -4 552 -4t449 8q33 -182 82 -364q4 -10 -4 -15l-37 -14q-6 -1 -22 27t-125 176q-53 74 -137 94t-445 20q0 -84 -2 -245v-420q201 0 253 8
q52 7 72 27t30 52t24 114q2 14 14 14l41 -2q12 0 13 -15q-4 -45 -4 -189t10 -257q0 -14 -15 -16l-39 -9q-10 -4 -14 11v4q-2 27 -22 100q-23 72 -84 80q-94 12 -279 12v-305q2 -128 2 -188q-1 -60 15 -72t65 -12h100q18 0 19 -13v-51q0 -16 -16 -16t-37 2l-242 4h-131
l-137 -6q-12 0 -13 14v55z" />
    <glyph glyph-name="G" unicode="G" horiz-adv-x="1675" 
d="M860 -31q-158 0 -315 60q-158 55 -258 174q-188 213 -189 563q0 142 60 282t172 238q229 195 575 195q119 0 234 -38t170 -81q29 -23 47 2l30 37q18 18 29 18q18 0 19 -24l6 -391q0 -18 -10 -19l-37 -4q-12 0 -17 16q-42 141 -110 225q-150 185 -384 185t-404 -177
t-169 -460q0 -389 195 -573q152 -145 364 -145t332 69q37 23 46 61t9 119v152q0 55 -18 74t-66 20h-86q-14 0 -14 12v51q0 16 12 17l88 -4q59 -2 157 -2t134 2l123 4q16 0 17 -15v-49q0 -16 -15 -16h-80q-63 0 -63 -78v-270l8 -66q0 -20 -33 -33q-256 -131 -559 -131z" />
    <glyph glyph-name="H" unicode="H" horiz-adv-x="1746" 
d="M366 0l-229 -4l-47 -2q-14 0 -14 14v53q0 12 14 13h121q57 0 57 98q6 289 6 547v88l-4 436q0 78 -16 107q-18 27 -74 26h-96q-12 0 -12 17v49q0 14 16 14h4l29 -2l247 -4l220 4h24l31 2h4q20 0 21 -10v-53q0 -16 -17 -17h-104q-51 0 -65 -24t-15 -92l-4 -414v-35
q0 -16 24 -16h758q25 0 33 6t8 24v21q0 10 -4 248l-2 178q0 57 -13 81t-55 23h-106q-14 0 -14 15v53q0 12 12 12l50 -2h50q57 -4 169 -4l219 4h34l10 2q16 0 17 -16v-49q0 -14 -17 -15h-92q-41 0 -53 -22t-12 -86l-4 -451v-69q0 -221 6 -572q0 -57 18 -80t64 -22h90
q18 0 18 -15v-49q0 -16 -16 -16h-13l-75 2q-55 4 -180 4l-238 -4l-57 -2q-12 0 -13 14v51q0 14 17 15h129q37 0 49 33t12 561v28q0 16 -8 21q-16 4 -37 4h-749q-29 0 -29 -21v-43q0 -133 4 -514q2 -70 65 -69h101q16 0 16 -15v-51q0 -14 -16 -14h-10l-78 2q-55 4 -179 4z
" />
    <glyph glyph-name="I" unicode="I" horiz-adv-x="759" 
d="M475 664l4 -346v-72l2 -84v-15q0 -45 23 -59q16 -14 74 -14h84q16 0 16 -15v-53q0 -12 -18 -12t-42 2l-243 4h-158l-147 -6q-16 0 -17 12v55q0 12 17 13h114q82 0 92 59q11 86 11 582v143q0 340 -8 449q-4 41 -25 53q-18 16 -78 16h-119q-16 0 -16 13v55q0 12 17 12
t44 -2l273 -4l235 4q23 2 39 2t17 -14v-51q0 -14 -17 -15h-96q-72 0 -72 -57v-12l-2 -81v-155q-4 -158 -4 -250v-157z" />
    <glyph glyph-name="J" unicode="J" horiz-adv-x="679" 
d="M258 823q0 393 -6 484q-4 39 -25 54t-75 15h-91q-14 0 -14 10v56q0 14 15 14t36 -2l103 -2q45 -2 153 -2l236 4q20 2 38 2t19 -12v-51q0 -16 -16 -17h-103q-41 0 -57 -14t-20 -78t-5 -510v-94q0 -154 -2 -229l-6 -279q0 -215 -74 -339t-172 -203t-210 -79q-40 0 -90 30
t-50 81t31 80q33 27 84 27t97 -31t63 -78q80 25 112 129q15 49 25 185t8 255l-4 451v143z" />
    <glyph glyph-name="K" unicode="K" horiz-adv-x="1458" 
d="M1166 1450l136 4l33 2q14 0 15 -10v-55q0 -14 -17 -15h-43q-61 0 -111 -38q-51 -38 -229 -238t-250 -295l549 -680q39 -51 144 -51h71q14 0 15 -15v-51q1 -14 -15 -14t-39 2l-215 4h-137l-141 -6q-12 0 -12 12v53q0 12 12 13h31q25 0 34 18q8 20 -6 46t-196 270
q-193 252 -207 262q-37 31 -90 30h-39v-147q0 -346 6 -432q2 -45 47 -45h90q16 0 16 -13v-53q0 -14 -14 -14t-33 2l-196 4h-129l-117 -6q-14 0 -14 14v53q0 12 14 13h84q45 0 55 37q6 55 6 645v118l-4 310v61l-2 72v10q0 49 -61 49h-72q-16 0 -16 15v53q0 12 16 12t35 -2
l205 -4l194 4q17 2 35 2t19 -12v-53q0 -14 -15 -15h-86q-31 0 -44 -13t-13 -50v-10l-2 -64v-125q-4 -129 -4 -252v-102h37q43 0 84 28q29 23 223 263q211 268 222 284q11 17 5 31t-26 14h-29q-10 0 -10 15v47q0 14 12 14h4l25 -2z" />
    <glyph glyph-name="L" unicode="L" horiz-adv-x="1355" 
d="M1221 -6q-105 6 -863 6h-104q-41 -2 -71 -2t-42 -2h-28q-6 -2 -17 -2q-16 0 -16 14v51q0 14 14 15h99q88 0 88 55v14l2 100v191q4 197 4 369v115q0 274 -6 385q-4 45 -19 57q-14 16 -57 16h-96q-14 0 -15 21v45q0 14 16 14t37 -2l228 -4l264 4q25 2 41 2t16 -16v-47
q0 -16 -20 -17h-123q-45 0 -58 -15t-13 -59t-3 -104l-4 -381v-176q0 -477 6 -561q39 -2 250 -4t264 5t119 79q100 120 154 264q6 12 16 8l33 -12q6 -4 4 -19q-18 -41 -100 -407z" />
    <glyph glyph-name="M" unicode="M" horiz-adv-x="2009" 
d="M315 1450l135 4h17l20 2h2q38 0 54 -35l454 -1093q17 20 121 260t120 270t32 66t116 249q100 212 105 252q4 25 47 25l326 4q25 2 38 2t13 -14v-47q0 -18 -17 -19h-90q-43 0 -55 -20t-12 -85t-4 -194l-2 -274v-144l2 -262q4 -133 4 -203t14 -96q14 -25 55 -24h121
q14 0 15 -15v-47q0 -18 -19 -18q-12 0 -31 2l-256 4h-149l-145 -6q-16 0 -17 18v47q0 14 17 15h139q29 0 41 13t16 69t4 524v131q0 500 -6 518h-4q-26 -39 -173 -365q-147 -325 -152 -332q-5 -8 -37 -84t-146 -335q-57 -139 -61 -141q-20 -49 -41 -49q-16 0 -31 36l-279 686
q-231 557 -254 578q-12 -43 -12 -541t7 -573q7 -76 25 -106t67 -29h102q14 0 14 -15v-51q0 -14 -16 -14t-35 2l-215 4h-139l-125 -6l-15 2q-4 4 -4 16v49q0 12 13 13h108q55 0 78 32t31 91q30 180 30 622t-2 481l-2 21l-2 12q0 7 -8 25t-72 18h-124q-14 0 -15 15v53
q-1 12 13 12t34 -2z" />
    <glyph glyph-name="N" unicode="N" horiz-adv-x="1628" 
d="M312 0l-160 -4l-48 -2q-10 0 -10 14v53q0 12 12 13h70q45 0 66 24q16 27 25 98t9 640v348q0 88 -38 139q-39 49 -97 51l-84 2q-12 0 -12 15v53q0 12 10 12t23 -2h37q82 -4 145 -4l137 4q35 0 60 -27l430 -557q17 -17 77 -92q60 -76 153 -191t188 -235h8v244
q0 614 -31 700q-25 80 -113 80h-65q-12 0 -12 15v53q0 12 12 12h4l25 -2l192 -4l161 4h18l20 2h4q16 0 16 -14v-51q0 -14 -12 -15h-55q-41 0 -60 -26q-18 -31 -23 -120t-5 -439v-766q0 -49 -11 -50q-25 0 -49 33l-250 316l-305 378q-8 6 -205 248q-53 70 -103 132t-75 94
t-29 36h-12v-454q0 -591 43 -658q12 -27 53 -26h62q16 0 16 -19v-45q0 -16 -16 -16h-12l-74 2q-54 4 -110 4z" />
    <glyph glyph-name="O" unicode="O" horiz-adv-x="1681" 
d="M307 766q0 -142 40 -270q70 -223 241 -346q141 -103 269 -103t226 50q99 50 155 123t100 196t44 278q0 154 -52 293t-136 229t-178 139q-94 48 -180 48q-8 0 -21 2h-31q-12 -4 -43 -6t-63 -13q-99 -35 -166 -104q-100 -96 -152 -235t-53 -281zM840 -31q-223 0 -441 133
q-125 76 -211 238q-90 162 -90 371q0 281 191 510q211 260 555 260q266 0 459 -162q281 -244 280 -612q0 -244 -153 -449q-217 -289 -590 -289z" />
    <glyph glyph-name="P" unicode="P" horiz-adv-x="1243" 
d="M630 705q108 1 186 41q79 40 127 105t48 181t-41 185q-38 69 -104 107q-114 64 -231 65t-154 -13v-653q61 -18 169 -18zM1204 1057q0 -195 -137 -307t-383 -111q-131 0 -223 10v-106q0 -326 5 -398t66 -71h132q16 0 16 -15v-49q0 -16 -18 -16t-39 2l-246 4h-144l-100 -4
q-23 -2 -39 -2t-16 14v51q0 14 12 15h88q56 0 72 13t21 69t5 561v235q0 326 -3 367t-18 49t-62 8h-117q-12 0 -13 17v49q-1 14 13 14t39 -2l252 -4q43 0 100 4l125 2q184 0 272 -22q92 -16 174 -74t124 -137q42 -80 42 -166z" />
    <glyph glyph-name="Q" unicode="Q" horiz-adv-x="1669" 
d="M842 35q121 0 211 51q98 51 151 127q109 143 148 334q14 72 14 135q0 180 -47 328t-129 223q-96 94 -185 134t-194 40q-195 0 -328 -133q-178 -178 -178 -508q1 -186 65 -334t154 -235q168 -162 318 -162zM2102 -268q24 0 40 2h23q70 0 127 45q12 12 18 2l14 -21
q6 -10 -6 -20q-166 -166 -274 -166q-168 0 -528 90t-805 299l-31 8q-83 25 -119 45q-96 40 -170 107q-33 25 -94 86q-199 201 -199 541q0 147 64 291q126 283 424 393q137 51 237 47q336 6 545 -213t203 -523q2 -150 -55 -301q-61 -143 -156 -237q-154 -154 -356 -221v-9
q227 -84 475 -139t331 -70q82 -14 98 -17t58 -7q41 -4 76 -8q36 -4 60 -4z" />
    <glyph glyph-name="R" unicode="R" horiz-adv-x="1427" 
d="M469 1309v-580q35 -8 92 -8q135 0 225 41q88 35 140 98q78 110 79 190q1 79 -27 144q-84 196 -415 197q-43 0 -69 -17q-25 -18 -25 -65zM377 1450l273 4h50l19 2q252 0 383 -125q106 -100 106 -233q0 -188 -87 -276t-292 -134v-4q49 -18 95 -78q50 -58 186 -262
q8 -20 80 -118t100 -117q51 -35 148 -35q16 0 16 -17v-45q0 -18 -14 -18t-29 2l-133 4q-74 0 -166 -6q-14 12 -86 117q-61 100 -94 160t-42 74q-120 194 -188 253q-20 20 -65 38t-93 19q-48 0 -75 -6v-114q0 -299 4 -381q10 -80 51 -80h129q16 0 17 -17v-45q0 -8 -4 -16h-7
q-6 -2 -15 -2t-30 2l-235 4h-141l-115 -6q-16 0 -17 16v47q0 16 11 17h84q80 0 80 69q4 271 4 590v199q0 303 -2 342q-4 102 -78 102h-82q-12 0 -12 15v51q0 14 13 14t32 -2z" />
    <glyph glyph-name="S" unicode="S" horiz-adv-x="1122" 
d="M600 -31q-190 0 -328 107q-33 24 -45 24t-31 -30t-42 -29q-23 0 -17 33q15 150 25 246t10 124q4 12 14 13l31 -2q12 0 12 -17q3 -131 63 -222t134 -126q74 -41 171 -41t185 66q86 67 86 201t-82 212q-90 78 -268 142t-264 151q-102 102 -102 299q0 141 127 262
q103 98 263 98t265 -50q25 -12 39 2l26 24q16 12 27 12q16 0 16 -42q1 -42 15 -170t14 -144t-10 -20l-25 -7q-8 -4 -12 7q-37 131 -123 223t-219 92t-195 -74q-62 -73 -61 -177t69 -172t204 -111q136 -42 161 -54q37 -10 99 -46q184 -108 184 -355q0 -190 -111 -320
q-115 -129 -305 -129z" />
    <glyph glyph-name="T" unicode="T" horiz-adv-x="1437" 
d="M381 14v39q0 20 14 21h140q31 0 48 14t21 54t4 708v526h-51q-244 0 -329 -26t-177 -236q-6 -12 -20 -10l-37 10q-12 2 -8 16q76 272 96 361q2 33 19 33t26 -8l27 -19q43 -31 116 -35q326 -12 387 -12h99q111 0 411 12q68 4 107 29l39 25q14 8 24 8q16 0 19 -33l59 -369
q2 -14 -12 -16l-33 -8q-10 -4 -16 14q-82 200 -151 232t-349 32h-57v-583q0 -614 2 -637q6 -82 69 -82h129q20 0 21 -21v-43q0 -16 -18 -16t-37 2l-252 4h-158l-154 -6q-18 0 -18 20z" />
    <glyph glyph-name="U" unicode="U" horiz-adv-x="1527" 
d="M1325 950q0 -315 -10 -463q-18 -262 -172 -395q-131 -123 -385 -123q-176 0 -277 43q-190 76 -243 275q-33 119 -33 497v488q-1 57 -17 81t-61 23h-96q-14 0 -15 19v45q0 16 18 16t44 -2l237 -4l238 4q25 2 43 2t18 -12v-53q0 -14 -16 -15h-102q-41 0 -70 -24
q-25 -25 -29 -67t-4 -259v-135q0 -70 10 -434q2 -166 66 -260q99 -147 313 -147t320 112q106 113 106 360v439q0 229 -6 297q-10 120 -96 118h-90q-14 0 -15 17v49q1 14 17 14t39 -2l211 -4l194 4q16 2 34 2t17 -14v-45q0 -20 -12 -21h-84q-16 0 -41 -8q-19 -11 -24 -18
q-4 -8 -9 -11q-4 -8 -4 -12q-10 -15 -12 -39t-2 -338z" />
    <glyph glyph-name="V" unicode="V" horiz-adv-x="1445" 
d="M1471 1456q13 0 14 -14v-51q0 -14 -15 -15h-55q-80 0 -145 -80q-41 -51 -252 -571q-2 -8 -36 -90t-147 -364q-114 -283 -116 -285q-13 -27 -29 -27t-35 47q-160 453 -258 729l-20 70q-164 485 -172 504q-29 68 -84 67h-53q-11 1 -11 15v51q1 14 15 14t34 -2l213 -4l242 4
q25 2 43 2t19 -14v-47q0 -18 -17 -19h-98q-86 0 -86 -53q0 -35 8 -70q16 -100 125 -432q94 -301 190 -555h5q151 360 197 497t66 193t44 136q71 198 69 237q0 47 -65 47h-53q-10 0 -11 19v47q1 14 15 14t37 -2l202 -4l191 4q16 2 29 2z" />
    <glyph glyph-name="W" unicode="W" horiz-adv-x="2140" 
d="M454 1456q15 0 15 -12v-51q0 -16 -16 -17h-35q-83 1 -60 -73l330 -1037h4q54 166 116 346t133 401q71 222 73 251q2 28 -28 70t-85 42h-51q-12 0 -12 17v49q0 14 14 14t33 -2l217 -4l233 4q23 2 37 2t14 -14v-51q0 -14 -14 -15h-82q-35 0 -53 -24q-12 -29 -4 -58
l319 -1028h4q319 930 320 1047q0 63 -72 63h-55q-14 0 -14 19v47q0 14 16 14t35 -2l184 -4l162 4q16 2 30 2t13 -14v-51q0 -14 -14 -15h-50q-51 0 -81 -55q0 -2 -134 -359t-231 -622q-97 -264 -121 -328q-25 -53 -43 -53q-31 0 -45 45l-379 1124h-4q-4 -12 -30 -84
t-192 -546t-182 -506q-17 -33 -43 -33t-34 33l-457 1311q-29 74 -88 73h-70q-12 0 -12 17v49q1 14 15 14t32 -2l189 -4l213 4q25 2 40 2z" />
    <glyph glyph-name="X" unicode="X" horiz-adv-x="1427" 
d="M866 59q0 14 13 15h79q29 0 46 10q14 10 6 28t-156 261q-148 244 -184 291q-311 -438 -336 -498q-37 -92 39 -92h80q16 -1 16 -13v-49q0 -18 -15 -18t-38 2l-230 4h-104l-117 -6q-12 0 -12 18v47q0 14 12 15h80q45 0 119 62t258 319q51 67 104 139t75 100t26 35
q-389 578 -424 613t-97 34h-90q-10 0 -10 17v47q0 16 10 16q16 0 41 -2l250 -4l271 4q26 2 40 2t15 -14v-47q0 -18 -19 -19h-71q-63 0 -76 -33q-10 -33 16 -63q205 -342 256 -416q63 82 173 232t132 188t14 65q-9 28 -50 27h-43q-12 0 -13 19v47q0 14 16 14t38 -2l184 -4
l172 4q18 2 34 2t17 -14v-47q0 -18 -12 -19h-86q-47 0 -81 -22t-202 -238q-180 -225 -246 -315q4 -5 102 -157t216 -330t125 -185q61 -55 135 -55h68q16 0 16 -15v-49q0 -16 -14 -16t-35 2l-228 4h-139l-149 -6q-16 0 -17 14v51z" />
    <glyph glyph-name="Y" unicode="Y" horiz-adv-x="1361" 
d="M1394 1456q14 0 15 -12v-49q0 -18 -16 -19h-52q-55 0 -98 -43t-487 -684v-268q0 -155 5 -217t27 -78q23 -12 66 -12h80q14 0 14 -15v-47q0 -18 -15 -18t-40 2l-236 4h-143l-127 -6q-12 0 -12 16v49q0 14 14 15h100q70 0 72 51q6 86 6 381v119q-47 89 -221 377t-211 331
t-100 43h-51q-14 0 -15 15v53q-1 12 15 12t39 -2l200 -4l269 4q22 2 36 2t15 -10v-51q0 -18 -15 -19h-67q-47 0 -57 -14t-6 -46t69 -140q40 -80 145 -268t107 -193q33 47 121 184q106 156 174 268q74 115 76 129q14 27 2 54t-70 26h-55q-14 0 -15 19v49q0 12 16 12t36 -2
l204 -4l160 4q12 2 26 2z" />
    <glyph glyph-name="Z" unicode="Z" horiz-adv-x="1437" 
d="M559 0h-432q-39 0 -39 16q0 27 12 39q76 88 516 697t453 632h-555q-43 0 -82 -32q-27 -24 -120 -136t-130 -169q-6 -10 -18 -3l-27 13q-8 4 -4 18l129 369q10 23 25 22h6l35 -4q94 -12 555 -12h69q24 4 69 5q44 1 119 4t181 3q27 0 27 -14q4 -12 -14 -34t-490 -664
q-481 -664 -488 -676h721q47 29 148 139q100 113 139 164q8 8 18 4l29 -16q10 -6 -3 -32q-12 -26 -68 -159t-70 -182q-6 -23 -27 -23l-29 4q-14 0 -22 4q-184 23 -633 23z" />
    <glyph glyph-name="bracketleft" unicode="[" horiz-adv-x="724" 
d="M207 1530h420q12 0 12 -12v-50q0 -16 -16 -16h-277q-20 0 -20 -22v-1678q0 -29 14 -28h303q16 0 16 -19v-43q0 -16 -18 -16h-432q-23 0 -23 22v1843q1 19 21 19z" />
    <glyph glyph-name="backslash" unicode="\" horiz-adv-x="716" 
d="M709 0l-76 -31q-4 -2 -12 2q-6 6 -13 23l-604 1438q-6 16 4 20l78 33q10 6 20 -10l607 -1450q8 -21 -4 -25z" />
    <glyph glyph-name="bracketright" unicode="]" horiz-adv-x="724" 
d="M516 -354h-432q-18 0 -18 16v43q0 18 16 19h305q12 0 12 24v1682q0 23 -18 22h-279q-16 0 -16 16v50q0 12 12 12h420q20 0 21 -19v-1843q0 -22 -23 -22z" />
    <glyph glyph-name="asciicircum" unicode="^" 
d="M47 532l432 867h66l434 -867h-133l-336 672h-10l-326 -672h-127z" />
    <glyph glyph-name="underscore" unicode="_" 
d="M0 -256v102h1024v-102h-1024z" />
    <glyph glyph-name="grave" unicode="`" horiz-adv-x="684" 
d="M129 1323q47 0 86 -51l197 -244q2 -8 -2 -10l-25 -23q-6 -6 -12 0l-271 193q-52 41 -36 88t63 47z" />
    <glyph glyph-name="a" unicode="a" horiz-adv-x="874" 
d="M539 199v252q-35 -21 -110 -57q-165 -80 -165 -210q0 -55 30 -84q69 -67 185 15q60 47 60 84zM688 244q0 -154 62 -154q49 0 71 31q12 14 21 8l20 -16q12 -12 -2 -37q-51 -100 -160 -101q-53 0 -94 37q-37 37 -51 101h-4q-66 -78 -203 -125q-41 -12 -121 -13
q-43 0 -83 40t-40 130q0 160 205 248q199 88 232 119v131q-8 92 -29 115q-39 45 -124 45t-132 -43q-14 -14 -14 -27q-4 -8 0 -36t4 -31q0 -117 -109 -117q-49 0 -49 58q0 57 41 111t100 89q121 72 239 72q118 -1 168 -51q52 -50 52 -150v-434z" />
    <glyph glyph-name="b" unicode="b" horiz-adv-x="1032" 
d="M295 440q0 -215 31 -297q14 -39 72 -71t122 -31q104 0 193 84q82 86 82 257t-82 285t-215 114t-203 -74v-267zM147 348v756q0 102 -19 137t-77 53l-20 6q-27 8 -27 17v16q0 6 16 17q139 62 193 96t71 34t14 -22t-3 -444v-238q47 43 127 76q84 27 156 27q145 0 260 -117
q114 -118 114 -310t-126 -334t-289 -142t-252 53l-82 -45q-12 -8 -27 -7l-24 7q-10 4 -8 28t3 336z" />
    <glyph glyph-name="c" unicode="c" horiz-adv-x="841" 
d="M467 813q-96 0 -169 -83q-73 -82 -73 -242t105 -304q80 -104 223 -104q78 0 127 20t98 68q8 8 17 0l20 -21q12 -12 0 -26q-47 -57 -139 -101t-191 -45q-205 0 -317 144q-92 123 -92 295t121 319q123 145 317 146q72 0 133 -19q90 -36 129 -102q16 -28 17 -45
q-4 -72 -74 -72q-70 1 -108 71q-37 70 -69 86t-75 15z" />
    <glyph glyph-name="d" unicode="d" horiz-adv-x="1067" 
d="M743 246v352q0 66 -18 100q-57 111 -215 111q-117 0 -186 -74q-94 -100 -94 -267t89 -288q93 -117 181 -117t151 34t77 75t15 74zM891 784v-452q0 -160 20 -187q29 -33 90 -34q39 -4 41 -15l5 -16q4 -16 -15 -23l-231 -77q-20 -6 -27 16l-26 90q-50 -49 -136 -80
t-154 -31t-90 2q-20 1 -68 23t-108 82t-89 134q-28 74 -27 185q0 205 143 349q121 129 305 129q119 0 219 -31v399q0 61 -21 83t-108 38q-14 2 -14 14v35q0 10 16 15q54 12 104 20q128 21 144 27l25 2q12 0 10 -37q-8 -123 -8 -660z" />
    <glyph glyph-name="e" unicode="e" horiz-adv-x="872" 
d="M561 606q55 0 55 29q0 91 -59 143q-37 39 -103 39q-66 -1 -125 -53q-58 -52 -85 -158h317zM741 545h-505q-6 -29 -7 -99q0 -150 84 -249q82 -102 207 -103q88 0 155 41t93 98q6 14 18 11l27 -15q12 -4 0 -30q-35 -76 -121 -154q-86 -70 -205 -70q-219 0 -321 146
q-54 79 -72 147t-18 176q0 197 119 316t303 119q80 0 142 -33t97 -88q60 -108 62 -180q-1 -33 -58 -33z" />
    <glyph glyph-name="f" unicode="f" horiz-adv-x="634" 
d="M51 53q0 14 21 15h98q27 0 37 15t12 56v619h-141q-14 0 -10 22l8 62q2 14 24 14h119v37q0 270 137 426q147 162 336 162q78 0 132 -30t54 -75t-30 -71q-28 -27 -58 -27t-52 12t-58 53q-35 41 -88 41q-94 0 -154 -71q-37 -49 -53 -132t-17 -121t-1 -165v-39h247
q20 0 15 -20l-11 -68q-4 -10 -26 -10h-225v-185q0 -438 2 -455t12 -38q12 -12 41 -12h117q23 0 22 -17v-33q0 -25 -14 -24q-12 0 -31 2l-215 4h-104l-129 -6q-16 0 -17 14v45z" />
    <glyph glyph-name="g" unicode="g" horiz-adv-x="993" 
d="M504 -492q100 0 207 54q104 55 98 157q0 97 -74 153t-223 46l-197 -14q-57 -14 -110 -68t-53 -129q0 -39 24 -80t55 -61q53 -37 111 -45q62 -13 162 -13zM445 293q83 0 128 90t45 211t-55 182q-45 45 -98 45q-88 0 -146 -57q-74 -76 -73 -242q0 -106 65 -178
q51 -51 134 -51zM457 -557q-206 0 -324 65q-104 66 -104 157t65 151q55 61 150 104v8q-58 14 -98 54t-40 98t58 110t127 76v4q-74 33 -132 110q-59 77 -59 196q0 118 96 210t255 92q160 0 258 -118q115 80 192 80q47 0 73 -27t24 -59t-24 -54t-58 -22t-70 31q-28 18 -54 18
t-55 -12q31 -76 31 -156q0 -220 -186 -293q-111 -46 -232 -20q-33 -12 -76 -45q-52 -52 -24 -105q7 -20 43 -29q36 -10 67 -10h54l67 4q242 12 353 -73q94 -70 100 -197q0 -152 -136 -250t-341 -98z" />
    <glyph glyph-name="h" unicode="h" horiz-adv-x="1103" 
d="M53 51q0 16 31 17h43q61 0 68 32q6 40 6 398v618q0 92 -21 121q-16 29 -78 51l-34 12q-14 2 -15 13v18q0 4 25 21l213 112q37 16 47 17q22 0 16 -52t-6 -552v-132h10q51 61 129 99q82 35 152 35q121 0 203 -82q71 -64 86 -189q2 -23 2 -112v-117l4 -281q0 -31 76 -30h34
q23 0 23 -19v-31q0 -25 -16 -24q-12 0 -29 2l-168 4h-88l-104 -6q-18 0 -19 22v35q0 16 14 17h48q76 0 77 38v369q0 99 -13 155t-62 105t-127 49q-113 0 -191 -86q-41 -51 -41 -100v-446q0 -52 9 -68t36 -16h62q23 0 22 -17v-35q0 -23 -16 -22q-14 0 -35 2l-160 4h-90
l-108 -6q-14 0 -15 20v37z" />
    <glyph glyph-name="i" unicode="i" horiz-adv-x="546" 
d="M241 1110q-47 0 -89 33q-39 37 -39 81q-1 44 33 80t92 36t86 -33q28 -39 28 -82t-32 -79t-79 -36zM53 51q0 16 21 17h100q29 0 33 41q2 41 2 186v301q0 53 -21 84q-25 27 -94 39q-18 2 -18 14v19q0 8 14 14q110 40 178 76t82 36t10 -34q-4 -35 -4 -324v-223
q0 -162 2 -176q6 -53 33 -53h94q20 0 21 -19v-35q0 -20 -16 -20t-39 2l-160 4h-103l-118 -6q-16 0 -17 16v41z" />
    <glyph glyph-name="j" unicode="j" horiz-adv-x="503" 
d="M241 1110q-47 0 -89 33q-39 37 -39 81q-1 44 33 80t92 36t86 -33q28 -39 28 -82t-32 -79t-79 -36zM199 150v405q-1 67 -19 93t-82 50l-20 9q-12 2 -12 14v18q0 6 16 17q113 35 221 108q16 14 39 15q18 0 11 -34t-7 -349v-256q0 -303 -31 -461t-126 -247t-222 -89
q-51 0 -85 28q-34 29 -34 61t23 62t51 31q59 0 117 -63q27 -31 47 -31q88 1 100 175t13 444z" />
    <glyph glyph-name="k" unicode="k" horiz-adv-x="1015" 
d="M57 49q0 18 21 19h76q37 0 36 49q5 242 5 381v678q1 70 -19 98t-88 47q-29 10 -29 14v19q0 12 27 20l209 90q39 16 45 17q16 0 12 -35q-10 -109 -10 -645v-324q70 0 98 23q25 16 110 107t107 122q18 35 1 47t-54 12q-16 0 -16 19v39q0 16 12 16t31 -2l162 -4l141 4
q14 2 25 2t12 -20v-37q0 -16 -17 -17h-14q-70 0 -131 -39t-281 -251q387 -387 420 -402q61 -29 107 -28q16 0 16 -19v-37q0 -18 -18 -18q-12 0 -29 2l-141 4h-105l-119 -6q-14 0 -14 20v33q0 16 21 16h14q12 1 19 9t3 23t-124 138q-96 109 -148 158q-29 23 -88 23v-90
q0 -166 3 -211t40 -45h59q18 0 19 -17v-35q0 -23 -17 -22q-10 0 -28 2l-154 4h-94l-102 -6q-10 0 -11 20v35z" />
    <glyph glyph-name="l" unicode="l" horiz-adv-x="524" 
d="M25 14v35q0 18 26 19h99q43 0 45 47t2 538v129q1 304 -5 372t-30 95t-74 41l-41 15q-12 2 -12 10v16q0 8 18 15q197 92 232 113t51 22q20 0 16 -37q-8 -401 -8 -651v-183q0 -436 2 -479q2 -63 53 -63h93q23 0 22 -19v-35q0 -20 -12 -20t-35 2l-197 4h-110l-121 -6
q-14 0 -14 20z" />
    <glyph glyph-name="m" unicode="m" horiz-adv-x="1650" 
d="M641 14v33q0 4 2 10v6q8 4 19 5h59q45 -1 45 34v422q0 164 -61 221q-41 37 -132 37q-123 0 -196 -118q-29 -47 -29 -138v-405q0 -53 41 -53h74q4 0 10 -2h6q4 -8 4 -17v-33q0 -23 -16 -22q-12 0 -29 2l-157 4h-93l-98 -6q-16 0 -16 18v37q0 8 4 17h8q6 2 12 2h70
q29 0 31 51q2 23 2 106v365q0 74 -58 104l-43 23q-14 8 -14 16v17q0 10 12 16l181 92q25 12 41 12t16 -28l8 -119h6q45 63 129 109t172 47q160 0 232 -158h10q51 69 132 113t187 44t166 -61q35 -37 49 -53q13 -16 31 -70t19 -129v-456q0 -41 43 -41h55q23 0 22 -19v-35
q0 -20 -13 -20t-28 2l-143 4h-90l-100 -6q-16 0 -17 20v35q0 18 27 19h51q39 0 41 38q4 61 4 166v303q0 117 -57 162t-154 45q-49 0 -101 -32t-79 -81q-27 -50 -27 -200v-354q0 -47 41 -47h70q23 0 22 -19v-33q0 -23 -14 -22q-10 0 -26 2l-156 4h-94l-99 -6q-14 0 -14 20z
" />
    <glyph glyph-name="n" unicode="n" horiz-adv-x="1089" 
d="M80 12v37q0 18 20 19h60q23 0 33 8q8 12 8 33v479q0 80 -84 121l-17 8q-16 6 -16 18v10q0 12 18 21l177 98q27 14 36 15q12 0 17 -25l14 -125h4q45 57 125 103q81 46 173 47q164 0 235 -138q35 -63 35 -102v-528q0 -43 45 -43h65q23 0 23 -19v-33q0 -23 -17 -22
q-12 0 -28 2l-166 4h-88l-97 -6q-16 0 -16 22v33q0 18 27 19h59q37 0 41 47q4 143 4 172v270q0 91 -15 127q-15 34 -54 64t-135 30t-171 -80q-47 -53 -47 -139v-424q0 -39 8 -55q12 -12 41 -12h52q20 0 20 -21v-35q0 -18 -13 -18t-28 2l-152 4h-88l-94 -6q-14 0 -14 18z" />
    <glyph glyph-name="o" unicode="o" horiz-adv-x="1019" 
d="M512 37q121 0 193 119q71 126 71 286t-89 268t-183 107q-94 0 -154 -64q-60 -65 -86 -135q-24 -70 -24 -169t14 -175q18 -66 63 -131q74 -106 195 -106zM948 434q0 -180 -134 -320t-322 -139q-188 0 -308 142q-70 85 -92 155t-20 168q1 203 176 340q125 98 274 99
q78 0 157 -34t130 -85q139 -146 139 -326z" />
    <glyph glyph-name="p" unicode="p" horiz-adv-x="1052" 
d="M549 784q-142 0 -219 -131v-448q0 -82 43 -109q79 -55 191 -55t182 83q70 82 69 272q0 190 -78 288q-74 100 -188 100zM46 -563q-16 0 -17 18v37q0 18 24 19h80q25 0 31 12q10 12 14 48t4 347v662q0 35 -14 63q-23 27 -59 47l-48 27q-14 6 -14 18v17q0 8 14 14l197 98
q37 16 49 16t12 -40l9 -99h6q106 137 299 138q127 0 233 -101q59 -59 85 -129t26 -190q0 -201 -125 -344q-129 -139 -317 -140q-119 0 -205 35v-432q0 -39 9 -53t36 -14h90q18 0 18 -21v-35q0 -18 -18 -18l-27 2l-184 4l-176 -4q-16 -2 -32 -2z" />
    <glyph glyph-name="q" unicode="q" horiz-adv-x="1040" 
d="M504 813q-121 0 -197 -113q-74 -117 -74 -219q1 -102 21 -170q27 -91 94 -172q68 -80 174 -80q72 0 130 28t87 65v473q-10 98 -84 141q-74 47 -151 47zM596 -563q-16 0 -16 18v41q0 14 22 15h84q43 0 48 42t5 470v51h-4q-131 -98 -293 -99q-130 0 -234 81q-60 46 -96 136
t-36 197t47 217t127 174q115 98 270 99q109 0 244 -45l108 45q12 4 19 -2l18 -15q6 -6 -1 -36q-21 -90 -21 -433v-467q0 -203 10 -356q4 -59 43 -59h64q20 0 20 -13v-45q0 -16 -14 -16t-35 2l-164 4l-184 -4q-15 -2 -31 -2z" />
    <glyph glyph-name="r" unicode="r" horiz-adv-x="698" 
d="M49 14v35q0 18 23 19h80q45 0 45 38q2 45 2 246v193q0 80 -15 102q-14 29 -59 53l-39 21q-16 6 -16 14v13q0 8 16 18l203 104q14 8 28 9q14 0 15 -25l10 -145h8q48 74 114 126t124 52t86 -27q26 -26 26 -66t-26 -69t-55 -29t-61 16t-71 17q-74 0 -120 -86
q-20 -35 -21 -65v-426q0 -48 12 -66t45 -18h97q14 0 14 -19v-37q0 -18 -11 -18t-32 2l-184 4h-109l-117 -6q-12 0 -12 20z" />
    <glyph glyph-name="s" unicode="s" horiz-adv-x="729" 
d="M343 -25q-128 0 -210 60q-8 2 -12 28l-35 195q-4 12 12 16l27 7q12 2 18 -13l52 -100q14 -29 41 -70q46 -57 122 -57t125 37q51 34 51 104t-42 113q-43 43 -156 74q-242 70 -242 260q0 104 85 177t195 73t195 -43q33 -16 37 -37l31 -144q0 -12 -14 -18l-25 -8
q-8 -2 -18 10l-70 94q-53 80 -143 80q-63 0 -111 -35q-47 -37 -47 -98t37 -105q8 -8 49 -30q31 -10 49 -21q6 0 19 -6t43 -10q125 -35 183 -92t62 -170q-4 -125 -92 -198t-216 -73z" />
    <glyph glyph-name="t" unicode="t" horiz-adv-x="653" 
d="M193 164l4 216v46l2 16v45q0 33 4 263h-125q-31 0 -31 24q0 16 37 38t129 114q86 92 104 141q9 20 29 20t21 -30l-11 -201h285q23 0 14 -18l-20 -72q-4 -16 -19 -16h-264q-6 -142 -6 -289v-205q0 -104 35 -141q31 -39 72 -39q96 0 135 26q14 8 24 -4l11 -18
q8 -10 -13 -31t-78 -45q-57 -29 -136 -29q-79 -1 -141 57t-62 132z" />
    <glyph glyph-name="u" unicode="u" horiz-adv-x="1036" 
d="M854 569v-153q0 -184 5 -249t50 -65t69 6t26 -8l6 -26q2 -14 -11 -19l-215 -71q-23 -8 -41 -9q-14 0 -18 25l-16 119h-4q-45 -63 -125 -103t-154 -41q-123 0 -193 95q-57 76 -68 146t-11 255v240q-4 43 -22 59t-60 18q-41 2 -41 15v37q0 16 22 16h183q8 0 28 4h12
q6 2 11 2q25 0 22 -24q-8 -66 -8 -236v-147q0 -29 -3 -78t0 -76q10 -93 48 -154q53 -78 164 -77q41 0 94 32q101 62 103 125v490q-2 37 -23 53q-25 16 -68 17t-43 16v35q0 14 5 14q2 4 20 4h190q6 0 35 4h15q6 2 10 2q20 0 18 -20q-12 -111 -12 -273z" />
    <glyph glyph-name="v" unicode="v" horiz-adv-x="886" 
d="M762 856l126 4h19l6 2l17 -2l2 -16v-35q0 -20 -10 -21h-39q-41 0 -61 -19t-81 -138q-61 -133 -75 -167t-102 -235q-89 -201 -93 -213q-29 -47 -51 -47t-41 43l-160 416q0 16 -59 168t-82 176q-20 16 -47 16h-41q-12 0 -13 21v37q-1 16 17 16t33 -2l145 -4q47 0 125 4
l59 2q20 0 21 -16v-37q0 -20 -15 -21h-40q-37 0 -38 -57t87 -287q88 -231 102 -256h6q177 426 197 513t-37 87h-41q-8 0 -8 21v37q0 16 12 16l8 -2z" />
    <glyph glyph-name="w" unicode="w" horiz-adv-x="1404" 
d="M162 856l147 4l33 2q16 0 16 -16v-41q0 -16 -16 -17h-18q-43 0 -25 -55l162 -545h8l209 502q-6 50 -20 68t-54 18h-31q-14 0 -14 15v43q0 16 19 16q12 0 28 -2l156 -4l131 4q15 2 29 2t14 -14v-43q0 -16 -14 -17h-43q-12 0 -27 -14q-6 -21 -2 -39l156 -500h8l166 453
q20 55 8 82q-6 31 -39 30h-29q-12 0 -12 17v43q0 14 13 14t26 -2l133 -4l124 4h19l7 2q14 0 14 -14v-43q0 -16 -14 -17h-52q-43 0 -61 -28t-316 -764q-7 -27 -35 -27t-40 39l-201 586h-10l-252 -592q-14 -33 -43 -33q-18 0 -35 41l-268 723q-23 55 -86 55h-45q-14 0 -15 19
v39q0 16 13 16h4l19 -2z" />
    <glyph glyph-name="x" unicode="x" horiz-adv-x="897" 
d="M502 12v35q0 20 16 21h31q18 0 24 18q2 20 -12 47l-147 236q-2 -5 -50 -69t-88 -122q-38 -58 -43 -68q-5 -11 0 -28q6 -14 25 -14h43q10 -1 10 -17v-41q0 -16 -14 -16l-53 2q-70 4 -107 4h-80l-77 -6q-18 0 -19 18v37q0 18 16 19h54q59 0 94 35t141 172q106 138 113 145
q-166 258 -242 340q-23 29 -74 28h-57q-14 0 -14 15v41q0 18 14 18t29 -2l141 -4l156 4q20 2 34 2t13 -18v-39q0 -16 -12 -17h-19q-25 0 -24 -22q-2 -18 16 -47l127 -201l156 205q14 18 8 42t-31 23h-25q-12 0 -12 15v43q0 16 10 16l54 -2q70 -4 123 -4l100 4q8 2 16 2
q18 0 19 -20v-37q0 -16 -17 -17h-32q-49 0 -81 -24t-251 -297q193 -281 254 -356q37 -43 90 -43h33q10 0 10 -17v-41q0 -16 -13 -16t-26 2l-133 4h-96l-105 -6q-16 0 -16 18z" />
    <glyph glyph-name="y" unicode="y" horiz-adv-x="892" 
d="M790 856l114 4l26 2q12 0 12 -16v-39q0 -18 -10 -19h-33q-43 0 -77 -42t-278 -596q-244 -556 -259 -582q-14 -26 -23 -37q-2 -6 -26 -36t-52 -41t-77 -11t-79 29q-30 28 -30 68t28 64t67 23t57 -8q18 -8 39 -13t40 11q19 27 81 161t83 189q-6 33 -115 355t-118 351
t-21 50q-12 22 -14 27q-33 38 -72 38h-53q-16 0 -16 19v41q0 14 14 14t29 -2l161 -4l148 4h19l22 2h2q18 0 18 -14v-43q0 -16 -12 -17h-39q-33 0 -29 -39t78 -273t92 -275h9q18 35 109 252t102 258q18 78 -35 77h-33q-14 0 -14 17v41q0 16 12 16h2l20 -2z" />
    <glyph glyph-name="z" unicode="z" horiz-adv-x="888" 
d="M104 0q-37 0 -12 35l526 760h-217q-96 0 -146 -33t-175 -191q-14 -16 -23 -8l-26 12q-10 6 -4 21l135 287q35 -10 98 -19q90 -8 268 -8h283q12 0 20 -8q6 -12 -2 -21l-542 -764h291q117 0 280 220q10 16 27 6l20 -15q12 -10 4 -20l-157 -279q-68 25 -365 25h-283z" />
    <glyph glyph-name="braceleft" unicode="{" horiz-adv-x="724" 
d="M86 611q0 36 27 36q35 0 71 12q31 7 49 49q19 42 19 91t-35 200q-37 139 -37 213q0 140 108 222t253 92q57 4 94 4t37 -29q0 -37 -25 -37q-157 0 -232 -70t-75 -167q0 -98 16 -218t17 -163q0 -100 -58 -158q-31 -39 -49 -49q-18 -19 -18 -31t7 -19l28 -28q27 -27 36 -41
q53 -59 54 -155q-1 -31 -17 -157t-16 -216q0 -213 244 -273q31 -8 73 -8q15 0 15 -33t-15 -32q-109 0 -165 14q-108 14 -209 92q-41 31 -74 92q-29 63 -29 135t37 207q35 152 35 195q0 129 -66 170q-29 20 -73 22q-27 2 -27 38z" />
    <glyph glyph-name="bar" unicode="|" horiz-adv-x="716" 
d="M403 -532h-86q-12 0 -12 20v2054q0 18 12 19h82q14 0 15 -25v-2048q-1 -20 -11 -20z" />
    <glyph glyph-name="braceright" unicode="}" horiz-adv-x="724" 
d="M639 604q0 -35 -31 -35q-30 0 -64 -10t-52 -51t-18 -90t36 -187q35 -150 35 -227q0 -154 -110 -248t-253 -106q-53 -4 -91 -4t-38 30q0 35 25 35q51 0 65 2q106 12 174 87q68 76 68 178t-16 235t-17 158q0 103 69 172q9 8 14 14t19 16q13 9 17 21q6 6 6 16q0 17 -37 45
q-27 27 -37 41q-51 59 -51 156q0 20 16 152t17 192q0 114 -78 180q-77 66 -143 77t-92 11q-18 0 -19 33q0 33 17 33q138 0 237 -35q84 -25 161 -101t77 -184q0 -61 -35 -200q-37 -131 -37 -174q0 -129 66 -170q29 -20 71 -23q29 -4 29 -39z" />
    <glyph glyph-name="asciitilde" unicode="~" 
d="M799 633h108q0 -131 -59 -209t-134 -78t-179 68l-80 55q-70 45 -136 45q-33 0 -65 -39q-29 -45 -29 -125h-108q0 131 59 209t143 78t164 -49l86 -58q7 -2 27 -17t48 -29q78 -41 126 24q29 45 29 125z" />
    <glyph glyph-name="uni00A0" unicode="&#xa0;" horiz-adv-x="520" 
 />
    <glyph glyph-name="exclamdown" unicode="&#xa1;" horiz-adv-x="520" 
d="M367 -443q0 -42 -28 -78t-73 -36q-44 0 -74 30t-26 91q0 15 35 360t39 482q0 14 14 14h37q14 0 14 -21q2 -109 32 -455t30 -387zM271 643q-46 0 -91 29q-41 29 -41 78t31 89t88 40t90 -35q35 -31 35 -85t-35 -83q-31 -33 -77 -33z" />
    <glyph glyph-name="cent" unicode="&#xa2;" 
d="M526 -31h-53q-14 0 -12 33l10 221q-172 21 -271 147t-100 271q0 182 109 315q104 135 301 158l10 203q0 20 15 20h53q12 0 12 -28l-8 -189q153 -7 231 -67q56 -60 58 -97q-4 -66 -73 -66t-109 76q-40 75 -111 81l-33 -725q127 -14 187 11q59 25 114 79q8 8 16 0l21 -21
q12 -12 0 -26q-49 -55 -143 -103q-94 -43 -199 -43l-10 -221q-5 -29 -15 -29zM252 740q0 -126 27 -194t77 -126q50 -60 121 -80l31 707q-106 -5 -181 -93t-75 -214z" />
    <glyph glyph-name="sterling" unicode="&#xa3;" 
d="M57 537h181q19 34 81 229t95 283q51 145 172 249q122 100 236 100t177 -47q63 -48 63 -84t-22 -63q-27 -20 -55 -22q-86 0 -123 75q0 8 -18 46q-28 28 -64 28q-76 0 -125 -74q-51 -65 -88 -209t-111 -312t-98 -199h287q18 0 19 -13v-47q0 -14 -21 -14h-319
q-49 -94 -142 -199l2 -4q146 14 234 -16t180 -135q61 -68 145 -68q33 -1 59 21t35 44t4 28q-5 7 -46 7t-70 22q-29 23 -29 47t25 52q19 27 75 27t99 -37t43 -97q0 -61 -66 -123t-202 -63q-168 0 -285 140q-88 106 -231 100l-15 -29q-4 -6 -27 -48t-46 -66q-51 -66 -105 -66
q-37 0 -37 40t58 109t120 101q18 18 56 94t53 119h-150q-18 0 -18 14v47q0 13 14 13z" />
    <glyph glyph-name="currency" unicode="&#xa4;" 
d="M510 424q108 0 176 73t68 191t-66 192t-178 74t-171 -78q-60 -78 -60 -189t61 -187q62 -76 170 -76zM501 340q-126 0 -208 74l-187 -187q-12 -14 -22 -4l-45 47q-8 12 4 25l188 184q-69 84 -69 214t84 214l-201 191q-8 8 2 20l39 41q10 12 20 2l205 -192q76 69 209 69
t205 -63l199 184q8 12 18 2l39 -41q10 -10 0 -22l-193 -183q82 -82 84 -213q-6 -137 -81 -231l190 -178q14 -14 4 -23l-43 -49q-8 -8 -18 0l-203 185q-94 -66 -220 -66z" />
    <glyph glyph-name="yen" unicode="&#xa5;" 
d="M286 -6q-15 0 -16 16v49q0 14 15 15h96q45 0 45 51v252h-307q-20 0 -21 12v47q0 14 21 15h309v145h-311q-18 0 -19 16v43q0 14 21 15h307q-66 119 -180 313q-123 217 -158 264t-80 47h-43q-14 0 -14 15v51q0 14 14 14t35 -2l164 -4l217 4q19 2 35 2t16 -10v-51
q0 -18 -14 -19h-43q-121 0 -82 -86q23 -47 121 -241q119 -221 127 -234q246 420 264 477q29 84 -62 84h-53q-14 0 -14 19v47q0 14 14 14t33 -2l178 -4q33 0 103 4l51 2q16 0 16 -12v-49q0 -18 -16 -19h-43q-41 0 -72 -39q-31 -45 -76 -125q-51 -82 -135 -224t-143 -236h284
q23 0 23 -15v-47q0 -12 -25 -12h-293v-145h295q23 0 23 -15v-47q0 -12 -21 -12h-294v-244q0 -39 13 -49t50 -10h80q16 0 16 -15v-47q0 -18 -15 -18t-30 2l-71 2q-31 2 -113 2h-115l-76 -4q-16 -2 -31 -2z" />
    <glyph glyph-name="brokenbar" unicode="&#xa6;" horiz-adv-x="716" 
d="M395 666h-78q-12 0 -12 20v678q0 18 12 18h82q14 0 15 -24v-672q-1 -20 -19 -20zM324 358h77q12 0 13 -20v-676q0 -20 -19 -20h-78q-12 0 -12 20v676q1 20 19 20z" />
    <glyph glyph-name="section" unicode="&#xa7;" horiz-adv-x="1105" 
d="M274 781q0 -120 121 -222q63 -51 122 -94t99 -73t69 -50q28 -20 44 -39q37 14 68 66q31 45 30 92q0 141 -143 241q-104 72 -169 114t-122 87q-35 31 -45 45q-74 -47 -74 -167zM652 1481q94 0 154 -38t60 -82q0 -43 -22 -63t-58 -20t-54 14t-57 68t-103 56q-64 1 -126 -52
q-55 -55 -55 -128t18 -104q3 -7 9 -25t31 -44q26 -25 32 -33q31 -39 162 -112q59 -37 70 -44q238 -152 233 -339q2 -197 -174 -283q64 -76 64 -205t-97 -231q-96 -92 -258 -92q-104 0 -174 30q-72 35 -71 86q0 35 21 59t56 23q61 0 105 -62t110 -62t123 38q55 42 55 132
t-34 150t-62 84q-45 38 -120 89q-74 51 -148 108q-180 143 -180 327t153 278q-35 66 -35 172t78 196q59 66 129 88t165 21z" />
    <glyph glyph-name="dieresis" unicode="&#xa8;" horiz-adv-x="665" 
d="M512 1114q-37 0 -71 24q-33 24 -33 64t26 71q26 32 69 32q44 0 75 -27q26 -29 26 -71t-26 -68q-29 -25 -66 -25zM159 1305q43 0 71 -28t28 -70q0 -41 -27 -67t-63 -26t-72 24q-35 24 -35 64t25 72q29 31 73 31z" />
    <glyph glyph-name="copyright" unicode="&#xa9;" horiz-adv-x="1689" 
d="M1487 736q0 126 -42 244q-72 202 -261 327q-170 100 -338 100q-270 0 -457 -193q-184 -195 -184 -489q0 -139 40 -259t107 -196q60 -72 154 -129q162 -98 335 -98q173 1 302 65t201 170t108 218q35 114 35 240zM96 723q0 324 218 541t538 217q322 0 532 -211t211 -539
t-205 -545t-545 -217t-542 215q-207 215 -207 539zM873 274q-220 0 -338 113q-137 137 -137 335t130 335q123 123 322 123q102 0 237 -66q20 -12 27 0l8 33q2 8 24 8t25 -4q3 -6 3 -44t32 -208q0 -12 -6 -12l-24 -6q-10 -4 -17 4q-114 233 -313 233q-145 0 -223 -112
t-78 -244q6 -186 110 -295t240 -109q197 0 315 162q4 4 33 -18q8 -8 -2 -21q-148 -207 -368 -207z" />
    <glyph glyph-name="ordfeminine" unicode="&#xaa;" horiz-adv-x="675" 
d="M203 692q0 -33 18 -54q36 -42 119 1q41 18 59 43v176q-35 -14 -59 -22q-32 -16 -62 -32t-57 -50q-18 -29 -18 -62zM530 971v-211q0 -150 43 -150q29 0 48 35q4 10 14 8l27 -10q8 -1 1 -21t-42 -51t-93 -30q-88 0 -122 84h-3q-88 -74 -151 -80q-33 -4 -74 -4t-81 40
t-40 87q0 106 162 176q63 29 180 69v76q0 43 -28 84q-29 29 -81 29t-93 -35q-8 -8 -13 -20v-25q4 -10 4 -21q0 -57 -86 -57q-29 0 -41 17q-16 14 -16 40q0 61 107 119q98 45 192 45q94 -1 140 -39t46 -155z" />
    <glyph glyph-name="guillemotleft" unicode="&#xab;" horiz-adv-x="843" 
d="M718 774q3 0 9 -6l29 -29q6 -6 6 -11t-8 -13l-187 -281l189 -282q6 -10 6 -14t-6 -11l-31 -29l-6 -4q-4 0 -14 8l-320 320q-8 8 -8 12t10 15l320 317q8 8 11 8zM393 774q4 0 10 -6l29 -29q6 -6 6 -11t-8 -13l-186 -281l188 -282q6 -10 6 -14t-6 -11l-31 -29q-4 -4 -8 -4
t-14 8l-318 320q-8 8 -8 12t10 15l318 317q8 8 12 8z" />
    <glyph glyph-name="logicalnot" unicode="&#xac;" 
d="M115 596v115h794v-461h-123v346h-671z" />
    <glyph glyph-name="uni00AD" unicode="&#xad;" horiz-adv-x="827" 
d="M106 498v90q0 14 19 14h573q23 0 23 -22v-78q0 -14 -25 -15h-571q-19 -3 -19 11z" />
    <glyph glyph-name="registered" unicode="&#xae;" horiz-adv-x="1159" 
d="M555 1020q49 0 84 27q49 43 49 95t-44 82t-90 30t-54 -3v-229q6 -2 55 -2zM887 774v-22q0 -6 -8 -7h-25q-46 6 -80 0h-43q-43 38 -80 109q-37 72 -65 100q-20 31 -54 31h-32v-39q0 -127 2 -135q2 -31 26 -31h33q6 0 6 -6v-22q0 -6 -6 -7h-47q-79 5 -125 0h-41
q-10 0 -10 9v18q0 8 6 8h18q24 0 34 9t10 34v396q-4 37 -46 36h-12q-6 0 -6 7v24q0 6 6 6l101 -4l139 4q106 0 154 -41t46 -101q0 -60 -43 -97q-43 -41 -98 -49v-5q16 -3 47 -41t59 -88t56 -70t53 -20t25 -6zM580 606q199 0 301 123q98 123 98 281q0 110 -39 190
q-68 140 -229 193q-68 23 -131 22q-172 1 -286 -111t-114 -294q0 -111 38 -194t96 -122t132 -67q73 -21 134 -21zM92 1008q0 203 138 338t354 135q215 0 349 -132t134 -337t-133 -338t-355 -134q-223 -1 -355 132t-132 336z" />
    <glyph glyph-name="macron" unicode="&#xaf;" horiz-adv-x="608" 
d="M61 1063v65q0 14 17 15h450q18 0 19 -15v-65q0 -14 -23 -14h-446q-17 0 -17 14z" />
    <glyph glyph-name="degree" unicode="&#xb0;" horiz-adv-x="614" 
d="M308 1415q-52 0 -95 -41t-43 -101q0 -59 42 -103t95 -44t96 43t43 103t-40 104q-46 39 -98 39zM314 1481q104 -1 163 -59t59 -147t-62 -151q-64 -62 -170 -61q-106 0 -165 57q-59 56 -59 148t63 153q67 60 171 60z" />
    <glyph glyph-name="plusminus" unicode="&#xb1;" 
d="M115 133h794v-115h-794v115zM575 301h-122v291h-338v115h338v280h122v-280h334v-115h-334v-291z" />
    <glyph glyph-name="uni00B2" unicode="&#xb2;" horiz-adv-x="686" 
d="M301 1559q-104 0 -182 -99q-10 -16 -23 -10l-26 14q-6 4 -4 15q26 63 96 123t174 61q104 0 172 -55t67 -160q0 -145 -161 -313q-119 -127 -217 -201v-4h227q55 0 88 20q31 23 57 60q10 16 35 6t17 -27l-84 -182q-5 -12 -25 -12t-31 12q-10 16 -65 16h-289l-117 -4
q-10 0 -10 12q-6 14 4 21q180 147 281 260q150 162 149 295q0 76 -41 114t-92 38z" />
    <glyph glyph-name="uni00B3" unicode="&#xb3;" horiz-adv-x="686" 
d="M262 805q-78 0 -131 17t-69 39q-16 23 -15 47q0 24 14 48q33 37 72 11q14 -12 23 -35l8 -23q36 -41 112 -41t127 52t51 120t-48 124q-49 56 -123 69q-29 6 -29 29q2 18 22 22q59 4 105 51q47 43 47 101t-34 96q-34 39 -87 39q-119 0 -162 -119q-6 -16 -20 -14l-27 6
q-10 2 -8 20q16 80 76 140t174 59q112 0 160 -53q51 -49 51 -109q0 -131 -145 -215q74 -16 132 -76t58 -135q0 -123 -96 -194q-90 -76 -238 -76z" />
    <glyph glyph-name="acute" unicode="&#xb4;" horiz-adv-x="675" 
d="M552 1323q46 0 58 -45q16 -47 -39 -90l-268 -193q-6 -6 -12 0l-25 21q-6 6 0 12l197 244q43 51 89 51z" />
    <glyph glyph-name="mu" unicode="&#xb5;" horiz-adv-x="1064" 
d="M866 567v-151q0 -213 2 -242q2 -94 56 -94q43 0 63 19t29 1l12 -22q6 -12 -10 -25q-78 -78 -172 -78t-125 154h-4q-45 -66 -122 -110t-161 -44t-139 84h-4q0 -129 4 -208t7 -159t7 -138q4 -56 4 -64q0 -14 -20 -20l-109 -27q-18 0 -18 12l-2 1118q0 41 -4 156l-2 86
q0 39 26 39h105q29 0 28 -39q0 -14 -2 -33v-82q-2 -37 -2 -110v-127q0 -233 27 -289q49 -104 162 -104q55 0 109 34t87 76q21 22 21 53v441q0 12 -4 82l-4 61q0 37 22 37h103q39 0 38 -27l-6 -139q-2 -39 -2 -121z" />
    <glyph glyph-name="paragraph" unicode="&#xb6;" horiz-adv-x="1177" 
d="M733 -248q0 -29 -14 -28h-51q-14 0 -15 32v727q-551 35 -551 475q0 290 215 398q107 50 241 72t335 22h194q23 0 23 -14v-35q0 -16 -25 -17h-120v-1644q0 -16 -15 -16h-51q-14 0 -14 30v1626q-66 0 -152 -10v-1618z" />
    <glyph glyph-name="periodcentered" unicode="&#xb7;" horiz-adv-x="520" 
d="M381 722q0 -50 -33 -82t-80 -32t-88 29t-41 79t29 91q31 37 86 37t94 -33q33 -39 33 -89z" />
    <glyph glyph-name="cedilla" unicode="&#xb8;" horiz-adv-x="667" 
d="M416 -279q0 -88 -101 -147q-102 -57 -213 -57q-41 0 -41 41q-1 28 61 28t116 31t55 84q0 80 -135 104l159 195h91l-119 -139q49 -15 88 -55t39 -85z" />
    <glyph glyph-name="uni00B9" unicode="&#xb9;" horiz-adv-x="686" 
d="M140 817q-15 0 -15 10v54q0 8 18 8h60q63 0 77 10t15 52q2 42 4 110v207q0 45 -4 172q-4 49 -31 49q-18 0 -53 -12l-80 -33q-16 -10 -20 -2l-23 41q-4 6 8 12l283 154q27 14 37 14q16 -1 16 -21t-2 -61v-143q-2 -56 -2 -154v-323q0 -45 14 -60q18 -12 80 -12h47
q12 0 13 -12v-50q0 -10 -16 -10t-42 2l-170 4l-170 -4q-29 -2 -44 -2z" />
    <glyph glyph-name="ordmasculine" unicode="&#xba;" horiz-adv-x="757" 
d="M379 604q88 0 133 64q49 60 49 174t-53 190q-55 72 -124 72t-116 -37q-78 -61 -78 -168q0 -150 50 -219q51 -76 139 -76zM370 541q-150 0 -251 100q-76 78 -76 216t104 228q99 80 241 80t233 -78q94 -86 94 -228t-99 -228q-96 -90 -246 -90z" />
    <glyph glyph-name="guillemotright" unicode="&#xbb;" horiz-adv-x="843" 
d="M451 94q-4 0 -11 6l-28 27q-6 6 -6 11t8 14l186 282l-188 281q-6 8 -6 13t6 11l30 31q4 4 8 4t15 -10l317 -318q8 -8 8 -12t-10 -14l-317 -318q-8 -8 -12 -8zM125 94q-4 0 -10 6l-27 27q-6 6 -6 11t8 14l186 282l-188 281q-6 8 -6 13t6 11l29 31q4 4 8 4t14 -10l320 -318
q8 -8 8 -12t-10 -14l-320 -318q-8 -8 -12 -8z" />
    <glyph glyph-name="onequarter" unicode="&#xbc;" horiz-adv-x="1519" 
d="M389 1176v-480q0 -49 17 -59q12 -12 77 -12h47q12 0 13 -13v-49q0 -10 -15 -10l-135 4q-35 2 -77 2t-74 -2l-142 -4q-14 0 -14 10v53q0 8 18 9h60q61 0 78 10q12 10 16 57v107q2 68 2 143v62q0 45 -4 172q-2 49 -31 49q-20 0 -53 -13l-80 -32q-16 -10 -20 -2l-23 41
q-4 6 8 12l283 153q27 14 37 15q16 0 16 -19v-61q-4 -46 -4 -143zM382 -31q-7 1 -36 17t-29 24t11 25l831 1347q9 16 17 16t38 -17q30 -18 29 -23q0 -5 -8 -19l-832 -1343q-14 -27 -21 -27zM1186 311v291q0 18 -9 22t-20 -10l-231 -270q-27 -33 8 -33h252zM1290 0h-88
q-16 0 -16 20v195h-395q-19 -1 -19 19t14 34l457 547q25 25 37 25q31 0 31 -47v-482h133q14 0 14 -18v-62q0 -16 -20 -16h-127v-192q-1 -23 -21 -23z" />
    <glyph glyph-name="onehalf" unicode="&#xbd;" horiz-adv-x="1519" 
d="M72 563v53q0 8 18 9h60q61 0 77 10q12 10 17 57q0 37 2 107v205q0 45 -4 172q-4 49 -31 49q-18 0 -53 -13l-80 -32q-16 -10 -21 -2l-22 41q-4 6 8 12l283 153q28 14 40 14t12 -21q0 -22 -1 -58v-143q-2 -58 -2 -156v-324q0 -45 14 -59q18 -12 80 -12h47q12 0 12 -13v-49
q0 -10 -14 -10l-135 4q-35 2 -76 2t-78 -2l-139 -4q-14 0 -14 10zM813 7q0 11 8 18q217 197 281 264q150 162 149 295q0 76 -43 112q-39 39 -90 39q-106 0 -182 -98q-10 -16 -23 -10l-26 14q-6 4 -4 14q25 63 95 123t175 62q104 0 172 -56t68 -159q0 -145 -162 -314
q-119 -127 -217 -200v-5h227q57 0 86 21q33 20 59 59q10 16 35 6t17 -26l-84 -182q-2 -12 -24 -12t-32 14t-65 14h-289l-117 -4q-14 0 -14 11zM337 -31q-7 1 -36 17t-29 24t11 25l831 1347q10 16 17 16t37 -17q30 -18 30 -23t-8 -19l-832 -1343q-14 -27 -21 -27z" />
    <glyph glyph-name="threequarters" unicode="&#xbe;" horiz-adv-x="1519" 
d="M1165 311v291q0 18 -9 22t-19 -10l-232 -270q-27 -33 8 -33h252zM1270 0h-88q-16 0 -17 20v195h-395q-18 -1 -18 19t14 34l457 547q25 25 37 25q31 0 30 -47v-482h133q14 0 15 -18v-62q0 -16 -21 -16h-127v-192q0 -23 -20 -23zM53 646q0 28 17 46q12 20 34 20t35 -12
q10 -6 21 -32l10 -23q35 -41 112 -41t128 51t51 120t-49 125t-123 69q-29 6 -29 28q2 18 23 23q55 2 104 49q47 51 47 105t-35 94q-35 39 -86 39q-119 0 -161 -119q-6 -16 -21 -14l-27 6q-10 2 -8 20q14 78 76 139q64 59 172 59t164 -50q49 -55 49 -111q0 -131 -145 -215
q74 -16 132 -76t58 -135q0 -119 -94 -197q-98 -74 -240 -73q-76 0 -130 17t-70 39q-16 21 -15 49zM378 -31q-7 1 -36 17t-29 24t11 25l831 1347q10 16 17 16t37 -17q30 -18 30 -23t-8 -19l-832 -1343q-14 -27 -21 -27z" />
    <glyph glyph-name="questiondown" unicode="&#xbf;" horiz-adv-x="757" 
d="M481 659q-47 0 -82 31q-33 31 -33 78t31 80q31 31 80 31t82 -35q35 -31 35 -75t-33 -77t-80 -33zM541 -557q-135 0 -309 177t-173 357q0 58 27 125q10 18 33 41q23 19 39 33t51 26t49 15q14 4 48 7q32 3 42 5h49q21 2 37 2t17 17v219q0 14 14 14h39q14 0 14 -14v-387
q0 -25 -28 -19q-28 7 -99 7q-72 0 -118 -12t-87 -53q-41 -40 -41 -97q0 -98 111 -185q74 -61 122 -79t112 -18t108 -30q41 -31 41 -68q-1 -37 -31 -60t-67 -23z" />
    <glyph glyph-name="Agrave" unicode="&#xc0;" horiz-adv-x="1521" 
d="M838 1606l-25 -29q-6 -6 -16 0l-342 168q-59 29 -59 72t22 59q38 55 135 -18l285 -234q10 -10 0 -18zM717 1276q-10 0 -23 -31q-205 -539 -219 -602h453q-49 164 -195 604q-12 29 -16 29zM1251 0l-235 -4l-49 -2q-16 0 -17 18v47q0 14 19 15h51q41 0 57 16q14 16 4 62
q-31 134 -129 417h-503q-25 -59 -81 -220t-63 -185q-6 -43 -6 -45q0 -45 70 -45h96q20 0 20 -15v-47q0 -18 -16 -18h-4l-26 2l-203 4h-115l-109 -6q-14 0 -14 16v49q0 14 16 15h72q43 0 70 20q29 27 63 102t208 551t200 537q14 47 2 70q-14 16 -15 26q0 12 19 19
q41 10 95 43t75 59q18 19 28 19t28 -60t103 -309q85 -250 128 -385q34 -125 108 -335t100 -265q45 -92 140 -92h67q16 0 17 -15v-51q0 -14 -21 -14h-4l-24 2z" />
    <glyph glyph-name="Aacute" unicode="&#xc1;" horiz-adv-x="1521" 
d="M680 1577l-25 33q-8 8 4 16l281 232q87 68 137 18q20 -20 21 -49q0 -53 -60 -82l-344 -168q-8 -6 -14 0zM717 1276q-10 0 -23 -31q-205 -539 -219 -602h453q-49 164 -195 604q-12 29 -16 29zM1251 0l-235 -4l-49 -2q-16 0 -17 18v47q0 14 19 15h51q41 0 57 16q14 16 4 62
q-31 134 -129 417h-503q-25 -59 -81 -220t-63 -185q-6 -43 -6 -45q0 -45 70 -45h96q20 0 20 -15v-47q0 -18 -16 -18h-4l-26 2l-203 4h-115l-109 -6q-14 0 -14 16v49q0 14 16 15h72q43 0 70 20q29 27 63 102t208 551t200 537q14 47 2 70q-14 16 -15 26q0 12 19 19
q41 10 95 43t75 59q18 19 28 19t28 -60t103 -309q85 -250 128 -385q34 -125 108 -335t100 -265q45 -92 140 -92h67q16 0 17 -15v-51q0 -14 -21 -14h-4l-24 2z" />
    <glyph glyph-name="Acircumflex" unicode="&#xc2;" horiz-adv-x="1521" 
d="M1036 1577l-262 117l-244 -117q-14 -6 -20 0l-16 20q-2 8 6 19l252 227q22 19 28 19t27 -19l260 -229q8 -8 2 -17l-14 -18q-7 -8 -19 -2zM717 1276q-10 0 -23 -31q-205 -539 -219 -602h453q-49 164 -195 604q-12 29 -16 29zM1251 0l-235 -4l-49 -2q-16 0 -17 18v47
q0 14 19 15h51q41 0 57 16q14 16 4 62q-31 134 -129 417h-503q-25 -59 -81 -220t-63 -185q-6 -43 -6 -45q0 -45 70 -45h96q20 0 20 -15v-47q0 -18 -16 -18h-4l-26 2l-203 4h-115l-109 -6q-14 0 -14 16v49q0 14 16 15h72q43 0 70 20q29 27 63 102t208 551t200 537q14 47 2 70
q-14 16 -15 26q0 12 19 19q41 10 95 43t75 59q18 19 28 19t28 -60t103 -309q85 -250 128 -385q34 -125 108 -335t100 -265q45 -92 140 -92h67q16 0 17 -15v-51q0 -14 -21 -14h-4l-24 2z" />
    <glyph glyph-name="Atilde" unicode="&#xc3;" horiz-adv-x="1521" 
d="M530 1602h-36q-16 0 -7 34q15 84 61 129t92 45t177 -32q92 -27 140 -27t67 70q4 12 14 12h35q16 1 3 -55t-52 -95q-35 -47 -102 -47q-51 0 -106 18t-64 19q-63 20 -127 21q-25 0 -47 -22t-33 -60q-5 -10 -15 -10zM717 1276q-10 0 -23 -31q-205 -539 -219 -602h453
q-49 164 -195 604q-12 29 -16 29zM1251 0l-235 -4l-49 -2q-16 0 -17 18v47q0 14 19 15h51q41 0 57 16q14 16 4 62q-31 134 -129 417h-503q-25 -59 -81 -220t-63 -185q-6 -43 -6 -45q0 -45 70 -45h96q20 0 20 -15v-47q0 -18 -16 -18h-4l-26 2l-203 4h-115l-109 -6
q-14 0 -14 16v49q0 14 16 15h72q43 0 70 20q29 27 63 102t208 551t200 537q14 47 2 70q-14 16 -15 26q0 12 19 19q41 10 95 43t75 59q18 19 28 19t28 -60t103 -309q85 -250 128 -385q34 -125 108 -335t100 -265q45 -92 140 -92h67q16 0 17 -15v-51q0 -14 -21 -14h-4l-24 2z
" />
    <glyph glyph-name="Adieresis" unicode="&#xc4;" horiz-adv-x="1521" 
d="M975 1802q45 0 74 -26q27 -31 27 -72t-28 -67q-26 -25 -64 -25t-73 24t-35 64q0 41 25 72q29 30 74 30zM666 1704q0 -41 -27 -67q-27 -25 -64 -25t-71 24t-35 65t25 71t71 30t74 -26q27 -31 27 -72zM717 1276q-10 0 -23 -31q-205 -539 -219 -602h453q-49 164 -195 604
q-12 29 -16 29zM1251 0l-235 -4l-49 -2q-16 0 -17 18v47q0 14 19 15h51q41 0 57 16q14 16 4 62q-31 134 -129 417h-503q-25 -59 -81 -220t-63 -185q-6 -43 -6 -45q0 -45 70 -45h96q20 0 20 -15v-47q0 -18 -16 -18h-4l-26 2l-203 4h-115l-109 -6q-14 0 -14 16v49q0 14 16 15
h72q43 0 70 20q29 27 63 102t208 551t200 537q14 47 2 70q-14 16 -15 26q0 12 19 19q41 10 95 43t75 59q18 19 28 19t28 -60t103 -309q85 -250 128 -385q34 -125 108 -335t100 -265q45 -92 140 -92h67q16 0 17 -15v-51q0 -14 -21 -14h-4l-24 2z" />
    <glyph glyph-name="Aring" unicode="&#xc5;" horiz-adv-x="1521" 
d="M766 1597q47 0 70 29q26 25 26 73t-28 76q-28 27 -69 25q-42 -2 -69 -31q-26 -29 -26 -71t24 -72q24 -29 72 -29zM969 1699q1 -73 -65 -113t-145 -40t-141 39q-55 43 -55 111t64 110q59 47 149 47t142 -38q51 -43 51 -116zM715 1276q-8 0 -21 -31q-205 -539 -219 -602
h453q-49 164 -195 604q-10 29 -18 29zM1251 0l-235 -4l-49 -2q-16 0 -17 18v47q0 14 19 15h51q41 0 57 16q14 16 4 62q-31 134 -129 417h-503q-25 -59 -81 -220t-63 -185q-6 -43 -6 -45q0 -45 70 -45h96q20 0 20 -15v-47q0 -18 -16 -18h-4l-26 2l-203 4h-115l-109 -6
q-14 0 -14 16v49q0 14 16 15h72q43 0 70 20q29 27 63 102t208 551t200 537q14 47 2 70q-14 16 -15 26q0 12 19 17q109 16 153 30l50 19q8 4 18 4t44 -104t104 -310q70 -207 96 -301t100 -304t100 -265q45 -92 140 -92h67q16 0 17 -15v-51q0 -14 -21 -14h-4l-24 2z" />
    <glyph glyph-name="AE" unicode="&#xc6;" horiz-adv-x="1892" 
d="M825 725v557q0 33 -17 33t-34 -25l-313 -565h364zM1004 725q199 0 258 9q59 10 76 26t28 65l18 101q0 16 19 14l45 -4l14 -2q4 -8 0 -26t-4 -164q0 -144 12 -267q4 -16 -16 -16l-41 -6q-14 -2 -16 12l-27 100q-16 72 -84 78q-98 6 -282 6v-59l4 -350q0 -82 22 -116
t78 -46t156 -12t172 6q113 2 166 71l159 215q12 20 31 9l25 -15q16 -10 12 -20l-113 -309q-8 -31 -33 -31q-10 0 -20 2h-57q-26 2 -104 2t-212 2h-481q-37 -2 -72 -2l-86 -4q-20 0 -20 18v43q0 18 18 19h117q37 0 49 16q10 20 10 74v487h-407q-164 -313 -223 -442
q-23 -55 -23 -83q0 -52 57 -52h99q20 0 20 -17v-37q0 -27 -18 -26q-14 0 -33 2l-197 4q-55 0 -149 -4l-74 -2q-14 0 -14 26v35q0 18 14 19h70q41 0 110 94q29 33 199 350t358 637q66 117 70 127q43 96 -29 96h-37q-18 0 -18 19v43q0 18 23 18l110 -4q111 -4 156 -4h395
q113 2 198 2t107 2l33 4q12 0 16 -10l103 -332q6 -14 -6 -18l-25 -15q-10 -6 -20 4l-195 232q-47 59 -137 59l-354 6v-659z" />
    <glyph glyph-name="Ccedilla" unicode="&#xc7;" horiz-adv-x="1527" 
d="M889 -279q-1 -90 -105 -147t-219 -57q-41 0 -41 41q0 28 60 28t116 31q51 33 52 84q0 74 -131 104l135 166q-258 18 -439 187q-106 100 -162 256t-57 317q0 322 209 543q86 94 219 147q131 59 293 60q221 0 414 -113q35 -23 41 0l16 59q4 13 22 13t23 -7q4 -7 4 -42
q1 -35 25 -201t26 -182t-8 -19l-30 -8q-14 -2 -21 16q-68 158 -160 254q-154 158 -356 158q-131 0 -234 -55q-103 -56 -163 -150t-88 -200q-27 -106 -27 -223q0 -119 46 -265t151 -258q92 -104 181 -138t233 -34t277 77q134 77 208 183q8 14 16 6l27 -20q10 -11 4 -19
q-238 -338 -602 -344l-92 -108q59 -16 96 -56q41 -39 41 -84z" />
    <glyph glyph-name="Egrave" unicode="&#xc8;" horiz-adv-x="1413" 
d="M844 1606l-25 -29q-6 -6 -16 0l-342 168q-59 29 -60 82q0 29 22 51q23 22 53 20q30 0 83 -40l285 -234q8 -10 0 -18zM161 1454l204 -4h393q135 2 305 2l82 4q12 0 16 -10l105 -330q4 -14 -6 -18l-31 -17q-9 -6 -15 5q-6 12 -88 110t-118 125q-76 51 -156 55l-365 8v-600
q285 0 323 38q16 16 30 60t18 105q0 14 14 14l52 -2q16 -1 11 -25t-5 -166t12 -271q0 -12 -12 -17l-45 -6q-4 -2 -13 2q0 4 -4 16q-2 27 -22 97q-23 72 -88 80q-106 10 -271 10v-127q0 -109 2 -201t3 -149q4 -139 116 -160q66 -14 168 -14t186 9t156 68q12 9 82 99t86 116
q12 18 25 13l32 -19q12 -10 5 -28l-109 -301q-10 -31 -45 -31q-8 0 -20 2h-62q-30 2 -116 2t-226 2h-496q-39 -2 -73 -2l-78 -2l-10 -2q-18 0 -19 14v55q0 10 21 11h82q72 0 86 16q16 12 16 74v686q0 385 -6 441t-27 69q-18 16 -78 16h-73q-16 0 -17 15v55q0 10 15 10z" />
    <glyph glyph-name="Eacute" unicode="&#xc9;" horiz-adv-x="1413" 
d="M1032 1827q0 -53 -59 -82l-344 -168q-9 -6 -15 0l-24 33q-8 8 4 16l280 232q86 67 136 19q22 -21 22 -50zM161 1454l204 -4h393q135 2 305 2l82 4q12 0 16 -10l105 -330q4 -14 -6 -18l-31 -17q-9 -6 -15 5q-6 12 -88 110t-118 125q-76 51 -156 55l-365 8v-600
q285 0 323 38q16 16 30 60t18 105q0 14 14 14l52 -2q16 -1 11 -25t-5 -166t12 -271q0 -12 -12 -17l-45 -6q-4 -2 -13 2q0 4 -4 16q-2 27 -22 97q-23 72 -88 80q-106 10 -271 10v-127q0 -109 2 -201t3 -149q4 -139 116 -160q66 -14 168 -14t186 9t156 68q12 9 82 99t86 116
q12 18 25 13l32 -19q12 -10 5 -28l-109 -301q-10 -31 -45 -31q-8 0 -20 2h-62q-30 2 -116 2t-226 2h-496q-39 -2 -73 -2l-78 -2l-10 -2q-18 0 -19 14v55q0 10 21 11h82q72 0 86 16q16 12 16 74v686q0 385 -6 441t-27 69q-18 16 -78 16h-73q-16 0 -17 15v55q0 10 15 10z" />
    <glyph glyph-name="Ecircumflex" unicode="&#xca;" horiz-adv-x="1413" 
d="M991 1577l-262 117l-244 -117q-14 -6 -20 0l-16 20q-2 8 6 19l252 227q23 19 29 19t26 -19l260 -229q8 -8 2 -17l-14 -18q-7 -8 -19 -2zM161 1454l204 -4h393q135 2 305 2l82 4q12 0 16 -10l105 -330q4 -14 -6 -18l-31 -17q-9 -6 -15 5q-6 12 -88 110t-118 125
q-76 51 -156 55l-365 8v-600q285 0 323 38q16 16 30 60t18 105q0 14 14 14l52 -2q16 -1 11 -25t-5 -166t12 -271q0 -12 -12 -17l-45 -6q-4 -2 -13 2q0 4 -4 16q-2 27 -22 97q-23 72 -88 80q-106 10 -271 10v-127q0 -109 2 -201t3 -149q4 -139 116 -160q66 -14 168 -14t186 9
t156 68q12 9 82 99t86 116q12 18 25 13l32 -19q12 -10 5 -28l-109 -301q-10 -31 -45 -31q-8 0 -20 2h-62q-30 2 -116 2t-226 2h-496q-39 -2 -73 -2l-78 -2l-10 -2q-18 0 -19 14v55q0 10 21 11h82q72 0 86 16q16 12 16 74v686q0 385 -6 441t-27 69q-18 16 -78 16h-73
q-16 0 -17 15v55q0 10 15 10z" />
    <glyph glyph-name="Edieresis" unicode="&#xcb;" horiz-adv-x="1413" 
d="M930 1802q45 0 74 -26q26 -31 26 -72t-26 -67q-26 -25 -65 -25q-38 0 -73 24t-35 64q0 41 25 72q29 30 74 30zM621 1704q0 -41 -27 -67q-27 -25 -64 -25q-38 0 -72 24t-34 65t26 71t70 30q45 0 74 -26q27 -31 27 -72zM161 1454l204 -4h393q135 2 305 2l82 4q12 0 16 -10
l105 -330q4 -14 -6 -18l-31 -17q-9 -6 -15 5q-6 12 -88 110t-118 125q-76 51 -156 55l-365 8v-600q285 0 323 38q16 16 30 60t18 105q0 14 14 14l52 -2q16 -1 11 -25t-5 -166t12 -271q0 -12 -12 -17l-45 -6q-4 -2 -13 2q0 4 -4 16q-2 27 -22 97q-23 72 -88 80
q-106 10 -271 10v-127q0 -109 2 -201t3 -149q4 -139 116 -160q66 -14 168 -14t186 9t156 68q12 9 82 99t86 116q12 18 25 13l32 -19q12 -10 5 -28l-109 -301q-10 -31 -45 -31q-8 0 -20 2h-62q-30 2 -116 2t-226 2h-496q-39 -2 -73 -2l-78 -2l-10 -2q-18 0 -19 14v55
q0 10 21 11h82q72 0 86 16q16 12 16 74v686q0 385 -6 441t-27 69q-18 16 -78 16h-73q-16 0 -17 15v55q0 10 15 10z" />
    <glyph glyph-name="Igrave" unicode="&#xcc;" horiz-adv-x="759" 
d="M35 1827q0 33 22 49q39 56 136 -18l284 -234q10 -10 0 -18l-24 -29q-6 -6 -17 0l-342 168q-59 29 -59 82zM475 664l4 -346v-72l2 -84v-15q0 -45 23 -59q16 -14 74 -14h84q16 0 16 -15v-53q0 -12 -18 -12t-42 2l-243 4h-158l-147 -6q-16 0 -17 12v55q0 12 17 13h114
q82 0 92 59q11 86 11 582v143q0 340 -8 449q-4 41 -25 53q-18 16 -78 16h-119q-16 0 -16 13v55q0 12 17 12t44 -2l273 -4l235 4q23 2 39 2t17 -14v-51q0 -14 -17 -15h-96q-72 0 -72 -57v-12l-2 -81v-155q-4 -158 -4 -250v-157z" />
    <glyph glyph-name="Iacute" unicode="&#xcd;" horiz-adv-x="759" 
d="M309 1577l-24 33q-8 8 4 16l280 232q94 73 136 18q23 -16 22 -49q0 -53 -59 -82l-344 -168q-9 -6 -15 0zM475 664l4 -346v-72l2 -84v-15q0 -45 23 -59q16 -14 74 -14h84q16 0 16 -15v-53q0 -12 -18 -12t-42 2l-243 4h-158l-147 -6q-16 0 -17 12v55q0 12 17 13h114
q82 0 92 59q11 86 11 582v143q0 340 -8 449q-4 41 -25 53q-18 16 -78 16h-119q-16 0 -16 13v55q0 12 17 12t44 -2l273 -4l235 4q23 2 39 2t17 -14v-51q0 -14 -17 -15h-96q-72 0 -72 -57v-12l-2 -81v-155q-4 -158 -4 -250v-157z" />
    <glyph glyph-name="Icircumflex" unicode="&#xce;" horiz-adv-x="759" 
d="M635 1577l-262 117l-244 -117q-14 -6 -20 0l-17 20q-2 8 6 19l252 227q23 19 29 19t27 -19l260 -229q8 -8 2 -17l-15 -18q-6 -8 -18 -2zM475 664l4 -346v-72l2 -84v-15q0 -45 23 -59q16 -14 74 -14h84q16 0 16 -15v-53q0 -12 -18 -12t-42 2l-243 4h-158l-147 -6
q-16 0 -17 12v55q0 12 17 13h114q82 0 92 59q11 86 11 582v143q0 340 -8 449q-4 41 -25 53q-18 16 -78 16h-119q-16 0 -16 13v55q0 12 17 12t44 -2l273 -4l235 4q23 2 39 2t17 -14v-51q0 -14 -17 -15h-96q-72 0 -72 -57v-12l-2 -81v-155q-4 -158 -4 -250v-157z" />
    <glyph glyph-name="Idieresis" unicode="&#xcf;" horiz-adv-x="759" 
d="M584 1802q48 0 74 -26t26 -70q0 -43 -27 -69q-27 -25 -65 -25t-72 24q-35 24 -35 65t26 71t73 30zM175 1802q46 0 73 -26q26 -26 26 -70q0 -43 -26 -69q-26 -25 -64 -25t-72 24t-34 64q0 41 24 72q27 30 73 30zM475 664l4 -346v-72l2 -84v-15q0 -45 23 -59q16 -14 74 -14
h84q16 0 16 -15v-53q0 -12 -18 -12t-42 2l-243 4h-158l-147 -6q-16 0 -17 12v55q0 12 17 13h114q82 0 92 59q11 86 11 582v143q0 340 -8 449q-4 41 -25 53q-18 16 -78 16h-119q-16 0 -16 13v55q0 12 17 12t44 -2l273 -4l235 4q23 2 39 2t17 -14v-51q0 -14 -17 -15h-96
q-72 0 -72 -57v-12l-2 -81v-155q-4 -158 -4 -250v-157z" />
    <glyph glyph-name="Eth" unicode="&#xd0;" horiz-adv-x="1665" 
d="M674 -4l-312 4h-141l-145 -6l-15 2l-2 14v49q0 14 15 15h139q57 0 68 61q12 74 12 502v55h-199q-18 0 -18 19v41q0 18 18 18h199v170q0 283 -10 379q-6 57 -88 57h-117q-12 0 -12 19v45q0 16 16 16t39 -2l260 -4l233 4l72 2q225 0 384 -40t282 -144q227 -197 227 -522
q-1 -320 -187 -522q-156 -168 -358 -208q-130 -26 -295 -26h-10zM481 887v-117h348q18 0 19 -18v-41q0 -18 -19 -19h-348q0 -145 4 -452q0 -61 35 -115q50 -66 208 -66q158 1 284 59t207 163q150 182 149 460q0 115 -46 242q-148 408 -636 408q-131 0 -166 -22t-37 -87
t-2 -395z" />
    <glyph glyph-name="Ntilde" unicode="&#xd1;" horiz-adv-x="1628" 
d="M604 1602h-37q-16 0 -6 34q15 84 61 129t92 45t177 -32q92 -27 140 -27t67 70q4 12 14 12h35q16 1 3 -55t-52 -95q-35 -47 -103 -47q-50 0 -105 18t-65 19q-63 20 -127 21q-26 0 -48 -22t-32 -60q-4 -10 -14 -10zM312 0l-160 -4l-48 -2q-10 0 -10 14v53q0 12 12 13h70
q45 0 66 24q16 27 25 98t9 640v348q0 88 -38 139q-39 49 -97 51l-84 2q-12 0 -12 15v53q0 12 10 12t23 -2h37q82 -4 145 -4l137 4q35 0 60 -27l430 -557q17 -17 77 -92q60 -76 153 -191t188 -235h8v244q0 614 -31 700q-25 80 -113 80h-65q-12 0 -12 15v53q0 12 12 12h4
l25 -2l192 -4l161 4h18l20 2h4q16 0 16 -14v-51q0 -14 -12 -15h-55q-41 0 -60 -26q-18 -31 -23 -120t-5 -439v-766q0 -49 -11 -50q-25 0 -49 33l-250 316l-305 378q-8 6 -205 248q-53 70 -103 132t-75 94t-29 36h-12v-454q0 -591 43 -658q12 -27 53 -26h62q16 0 16 -19v-45
q0 -16 -16 -16h-12l-74 2q-54 4 -110 4z" />
    <glyph glyph-name="Ograve" unicode="&#xd2;" horiz-adv-x="1681" 
d="M516 1827q0 29 22 51t52 20q30 0 84 -40l284 -234q8 -10 0 -18l-24 -29q-6 -6 -16 0l-343 168q-59 29 -59 82zM307 766q0 -142 40 -270q70 -223 241 -346q141 -103 269 -103t226 50q99 50 155 123t100 196t44 278q0 154 -52 293t-136 229t-178 139q-94 48 -180 48
q-8 0 -21 2h-31q-12 -4 -43 -6t-63 -13q-99 -35 -166 -104q-100 -96 -152 -235t-53 -281zM840 -31q-223 0 -441 133q-125 76 -211 238q-90 162 -90 371q0 281 191 510q211 260 555 260q266 0 459 -162q281 -244 280 -612q0 -244 -153 -449q-217 -289 -590 -289z" />
    <glyph glyph-name="Oacute" unicode="&#xd3;" horiz-adv-x="1681" 
d="M729 1577l-24 33q-8 8 4 16l280 232q87 68 137 18q20 -20 21 -49q0 -53 -60 -82l-344 -168q-8 -6 -14 0zM307 766q0 -142 40 -270q70 -223 241 -346q141 -103 269 -103t226 50q99 50 155 123t100 196t44 278q0 154 -52 293t-136 229t-178 139q-94 48 -180 48q-8 0 -21 2
h-31q-12 -4 -43 -6t-63 -13q-99 -35 -166 -104q-100 -96 -152 -235t-53 -281zM840 -31q-223 0 -441 133q-125 76 -211 238q-90 162 -90 371q0 281 191 510q211 260 555 260q266 0 459 -162q281 -244 280 -612q0 -244 -153 -449q-217 -289 -590 -289z" />
    <glyph glyph-name="Ocircumflex" unicode="&#xd4;" horiz-adv-x="1681" 
d="M1096 1577l-262 117l-244 -117q-14 -6 -21 0l-16 20q-4 8 6 19l252 227q21 19 27 19t28 -19l260 -229q8 -8 2 -17l-14 -18q-6 -8 -18 -2zM307 766q0 -142 40 -270q70 -223 241 -346q141 -103 269 -103t226 50q99 50 155 123t100 196t44 278q0 154 -52 293t-136 229
t-178 139q-94 48 -180 48q-8 0 -21 2h-31q-12 -4 -43 -6t-63 -13q-99 -35 -166 -104q-100 -96 -152 -235t-53 -281zM840 -31q-223 0 -441 133q-125 76 -211 238q-90 162 -90 371q0 281 191 510q211 260 555 260q266 0 459 -162q281 -244 280 -612q0 -244 -153 -449
q-217 -289 -590 -289z" />
    <glyph glyph-name="Otilde" unicode="&#xd5;" horiz-adv-x="1681" 
d="M590 1602h-37q-16 0 -6 34q16 84 61 129q46 45 92 45t177 -32q92 -27 140 -27t66 70q2 12 15 12h35q14 1 2 -53q-11 -54 -51 -99t-90 -45t-96 14t-64 17q-18 4 -52 15t-98 12q-23 0 -46 -22t-34 -60q-4 -10 -14 -10zM307 766q0 -142 40 -270q70 -223 241 -346
q141 -103 269 -103t226 50q99 50 155 123t100 196t44 278q0 154 -52 293t-136 229t-178 139q-94 48 -180 48q-8 0 -21 2h-31q-12 -4 -43 -6t-63 -13q-99 -35 -166 -104q-100 -96 -152 -235t-53 -281zM840 -31q-223 0 -441 133q-125 76 -211 238q-90 162 -90 371
q0 281 191 510q211 260 555 260q266 0 459 -162q281 -244 280 -612q0 -244 -153 -449q-217 -289 -590 -289z" />
    <glyph glyph-name="Odieresis" unicode="&#xd6;" horiz-adv-x="1681" 
d="M1045 1802q45 0 73 -26q27 -31 27 -72t-27 -67q-26 -25 -64 -25t-73 24t-35 64q0 41 25 72q29 30 74 30zM635 1802q45 0 74 -26q27 -31 27 -72t-28 -67q-26 -25 -63 -25t-72 24t-35 65t26 71t71 30zM307 766q0 -142 40 -270q70 -223 241 -346q141 -103 269 -103t226 50
q99 50 155 123t100 196t44 278q0 154 -52 293t-136 229t-178 139q-94 48 -180 48q-8 0 -21 2h-31q-12 -4 -43 -6t-63 -13q-99 -35 -166 -104q-100 -96 -152 -235t-53 -281zM840 -31q-223 0 -441 133q-125 76 -211 238q-90 162 -90 371q0 281 191 510q211 260 555 260
q266 0 459 -162q281 -244 280 -612q0 -244 -153 -449q-217 -289 -590 -289z" />
    <glyph glyph-name="multiply" unicode="&#xd7;" 
d="M887 207l-84 -86l-297 299l-297 -299l-72 86l293 289l-291 286l82 84l293 -295l293 295l78 -75l-295 -291z" />
    <glyph glyph-name="Oslash" unicode="&#xd8;" horiz-adv-x="1681" 
d="M836 1403q-6 0 -17 2h-24q-8 -4 -46 -6t-75 -19q-18 -4 -67 -30t-93 -70q-100 -92 -154 -232t-53 -272q1 -244 101 -420l815 826q-77 102 -183 162t-204 59zM878 47q108 0 205 50q99 50 155 123t100 196t44 274q0 224 -102 406l-817 -828q87 -109 197 -165t218 -56z
M1583 707q0 -244 -153 -449q-217 -289 -590 -289q-223 0 -441 133q-20 12 -57 43l-162 -163q-12 -12 -18 -12t-15 10l-41 38q-8 10 -8 14t8 19l164 166q-172 205 -172 490t191 514q211 260 555 260q266 0 459 -162l28 -27l178 181q7 8 11 8t12 -8l51 -41q10 -10 10 -13
l-6 -10l-186 -190q182 -217 182 -512z" />
    <glyph glyph-name="Ugrave" unicode="&#xd9;" horiz-adv-x="1527" 
d="M459 1827q-1 29 21 51q47 47 136 -20l285 -234q8 -10 0 -18l-24 -29q-6 -6 -17 0l-342 168q-59 29 -59 82zM1325 950q0 -315 -10 -463q-18 -262 -172 -395q-131 -123 -385 -123q-176 0 -277 43q-190 76 -243 275q-33 119 -33 497v488q-1 57 -17 81t-61 23h-96
q-14 0 -15 19v45q0 16 18 16t44 -2l237 -4l238 4q25 2 43 2t18 -12v-53q0 -14 -16 -15h-102q-41 0 -70 -24q-25 -25 -29 -67t-4 -259v-135q0 -70 10 -434q2 -166 66 -260q99 -147 313 -147t320 112q106 113 106 360v439q0 229 -6 297q-10 120 -96 118h-90q-14 0 -15 17v49
q1 14 17 14t39 -2l211 -4l194 4q16 2 34 2t17 -14v-45q0 -20 -12 -21h-84q-16 0 -41 -8q-19 -11 -24 -18q-4 -8 -9 -11q-4 -8 -4 -12q-10 -15 -12 -39t-2 -338z" />
    <glyph glyph-name="Uacute" unicode="&#xda;" horiz-adv-x="1527" 
d="M1171 1827q0 -53 -59 -82l-344 -168q-8 -6 -14 0l-25 33q-8 8 4 16l281 232q87 68 137 18q20 -20 20 -49zM1325 950q0 -315 -10 -463q-18 -262 -172 -395q-131 -123 -385 -123q-176 0 -277 43q-190 76 -243 275q-33 119 -33 497v488q-1 57 -17 81t-61 23h-96
q-14 0 -15 19v45q0 16 18 16t44 -2l237 -4l238 4q25 2 43 2t18 -12v-53q0 -14 -16 -15h-102q-41 0 -70 -24q-25 -25 -29 -67t-4 -259v-135q0 -70 10 -434q2 -166 66 -260q99 -147 313 -147t320 112q106 113 106 360v439q0 229 -6 297q-10 120 -96 118h-90q-14 0 -15 17v49
q1 14 17 14t39 -2l211 -4l194 4q16 2 34 2t17 -14v-45q0 -20 -12 -21h-84q-16 0 -41 -8q-19 -11 -24 -18q-4 -8 -9 -11q-4 -8 -4 -12q-10 -15 -12 -39t-2 -338z" />
    <glyph glyph-name="Ucircumflex" unicode="&#xdb;" horiz-adv-x="1527" 
d="M1059 1577l-262 117l-244 -117q-14 -6 -21 0l-16 20q-4 8 6 19l252 227q20 19 26 19t29 -19l261 -229q8 -8 2 -17l-15 -18q-6 -8 -18 -2zM1325 950q0 -315 -10 -463q-18 -262 -172 -395q-131 -123 -385 -123q-176 0 -277 43q-190 76 -243 275q-33 119 -33 497v488
q-1 57 -17 81t-61 23h-96q-14 0 -15 19v45q0 16 18 16t44 -2l237 -4l238 4q25 2 43 2t18 -12v-53q0 -14 -16 -15h-102q-41 0 -70 -24q-25 -25 -29 -67t-4 -259v-135q0 -70 10 -434q2 -166 66 -260q99 -147 313 -147t320 112q106 113 106 360v439q0 229 -6 297
q-10 120 -96 118h-90q-14 0 -15 17v49q1 14 17 14t39 -2l211 -4l194 4q16 2 34 2t17 -14v-45q0 -20 -12 -21h-84q-16 0 -41 -8q-19 -11 -24 -18q-4 -8 -9 -11q-4 -8 -4 -12q-10 -15 -12 -39t-2 -338z" />
    <glyph glyph-name="Udieresis" unicode="&#xdc;" horiz-adv-x="1527" 
d="M987 1802q45 0 74 -26q27 -31 27 -72t-28 -67q-26 -25 -64 -25t-72 24t-35 64q0 41 24 72q29 30 74 30zM481 1701q0 41 26 71t71 30t73 -26q27 -31 27 -72t-27 -66q-56 -56 -135 -2q-35 24 -35 65zM1325 950q0 -315 -10 -463q-18 -262 -172 -395q-131 -123 -385 -123
q-176 0 -277 43q-190 76 -243 275q-33 119 -33 497v488q-1 57 -17 81t-61 23h-96q-14 0 -15 19v45q0 16 18 16t44 -2l237 -4l238 4q25 2 43 2t18 -12v-53q0 -14 -16 -15h-102q-41 0 -70 -24q-25 -25 -29 -67t-4 -259v-135q0 -70 10 -434q2 -166 66 -260q99 -147 313 -147
t320 112q106 113 106 360v439q0 229 -6 297q-10 120 -96 118h-90q-14 0 -15 17v49q1 14 17 14t39 -2l211 -4l194 4q16 2 34 2t17 -14v-45q0 -20 -12 -21h-84q-16 0 -41 -8q-19 -11 -24 -18q-4 -8 -9 -11q-4 -8 -4 -12q-10 -15 -12 -39t-2 -338z" />
    <glyph glyph-name="Yacute" unicode="&#xdd;" horiz-adv-x="1361" 
d="M1141 1827q0 -53 -60 -82l-344 -168q-8 -6 -14 0l-25 33q-8 8 4 16l281 232q95 73 135 18q23 -16 23 -49zM1394 1456q14 0 15 -12v-49q0 -18 -16 -19h-52q-55 0 -98 -43t-487 -684v-268q0 -155 5 -217t27 -78q23 -12 66 -12h80q14 0 14 -15v-47q0 -18 -15 -18t-40 2
l-236 4h-143l-127 -6q-12 0 -12 16v49q0 14 14 15h100q70 0 72 51q6 86 6 381v119q-47 89 -221 377t-211 331t-100 43h-51q-14 0 -15 15v53q-1 12 15 12t39 -2l200 -4l269 4q22 2 36 2t15 -10v-51q0 -18 -15 -19h-67q-47 0 -57 -14t-6 -46t69 -140q40 -80 145 -268t107 -193
q33 47 121 184q106 156 174 268q74 115 76 129q14 27 2 54t-70 26h-55q-14 0 -15 19v49q0 12 16 12t36 -2l204 -4l160 4q12 2 26 2z" />
    <glyph glyph-name="Thorn" unicode="&#xde;" horiz-adv-x="1243" 
d="M971 762q0 94 -41 162q-34 68 -98 104q-113 65 -218 66q-104 1 -153 -11v-630q55 -21 190 -21t228 92q92 94 92 238zM461 309q0 -92 5 -164t71 -71h127q16 0 16 -15v-49q0 -16 -18 -16t-39 2l-246 4h-152l-96 -4q-19 -2 -35 -2t-16 14v51q0 14 12 15h94q50 0 66 13t21 69
t5 561v235q0 326 -4 379q-2 45 -88 45h-106q-14 0 -15 17v49q-1 14 13 14t35 -2l264 -4l243 4q26 2 44 2t18 -16v-41q0 -23 -21 -23h-122q-66 0 -70 -30q-6 -55 -6 -189l131 4q176 1 270 -21t176 -79q146 -103 146 -289t-135 -297q-137 -109 -365 -108q-131 0 -223 10v-68z
" />
    <glyph glyph-name="germandbls" unicode="&#xdf;" horiz-adv-x="1132" 
d="M367 993v-420q0 -439 3 -463t10 -33t34 -9h65q23 0 23 -17v-33q0 -25 -15 -24q-14 0 -34 2l-152 4q-12 0 -139 -4l-94 -2q-16 0 -17 14v45q0 14 21 15h96q29 0 38 15t13 58v586l-121 6q-12 4 -12 17v38q0 10 16 15l117 10v76q0 394 297 549q82 43 165 43t155 -64
q76 -61 75 -164q-1 -153 -115 -285t-114 -225q0 -53 33 -82t46 -37q13 -7 66 -36l62 -33q100 -57 148 -124t45 -181t-86 -194q-83 -81 -222 -81q-43 0 -94 22q-50 22 -66 33t-20 33l-16 130q-2 18 8 22l37 8q6 2 16 -14l25 -57q57 -111 151 -111q57 0 105 39t47 106
q0 158 -150 232q-73 37 -103 55t-69 51q-78 55 -80 166q0 57 25 113q29 55 77 119t50 67q57 88 57 219q0 66 -49 119q-51 51 -132 51t-149 -69q-35 -35 -46 -73t-13 -44l-8 -49q-2 -27 -5 -42q-5 -25 -5 -108z" />
    <glyph glyph-name="agrave" unicode="&#xe0;" horiz-adv-x="874" 
d="M274 1325q47 0 86 -51l197 -244q2 -8 -2 -10l-25 -23q-6 -6 -12 0l-270 193q-53 41 -37 88t63 47zM539 199v252q-35 -21 -110 -57q-165 -80 -165 -210q0 -55 30 -84q69 -67 185 15q60 47 60 84zM688 244q0 -154 62 -154q49 0 71 31q12 14 21 8l20 -16q12 -12 -2 -37
q-51 -100 -160 -101q-53 0 -94 37q-37 37 -51 101h-4q-66 -78 -203 -125q-41 -12 -121 -13q-43 0 -83 40t-40 130q0 160 205 248q199 88 232 119v131q-8 92 -29 115q-39 45 -124 45t-132 -43q-14 -14 -14 -27q-4 -8 0 -36t4 -31q0 -117 -109 -117q-49 0 -49 58q0 57 41 111
t100 89q121 72 239 72q118 -1 168 -51q52 -50 52 -150v-434z" />
    <glyph glyph-name="aacute" unicode="&#xe1;" horiz-adv-x="874" 
d="M613 1325q46 0 59 -47q18 -43 -39 -88l-268 -193q-7 -6 -13 0l-24 21q-6 6 0 12l196 244q43 51 89 51zM539 199v252q-35 -21 -110 -57q-165 -80 -165 -210q0 -55 30 -84q69 -67 185 15q60 47 60 84zM688 244q0 -154 62 -154q49 0 71 31q12 14 21 8l20 -16q12 -12 -2 -37
q-51 -100 -160 -101q-53 0 -94 37q-37 37 -51 101h-4q-66 -78 -203 -125q-41 -12 -121 -13q-43 0 -83 40t-40 130q0 160 205 248q199 88 232 119v131q-8 92 -29 115q-39 45 -124 45t-132 -43q-14 -14 -14 -27q-4 -8 0 -36t4 -31q0 -117 -109 -117q-49 0 -49 58q0 57 41 111
t100 89q121 72 239 72q118 -1 168 -51q52 -50 52 -150v-434z" />
    <glyph glyph-name="acircumflex" unicode="&#xe2;" horiz-adv-x="874" 
d="M426 1325q10 0 25 -20l225 -269q10 -10 4 -16l-16 -19q-7 -10 -19 -2l-223 158l-207 -156q-12 -8 -18 -2l-19 19q-6 6 6 20l215 269q17 18 27 18zM539 199v252q-35 -21 -110 -57q-165 -80 -165 -210q0 -55 30 -84q69 -67 185 15q60 47 60 84zM688 244q0 -154 62 -154
q49 0 71 31q12 14 21 8l20 -16q12 -12 -2 -37q-51 -100 -160 -101q-53 0 -94 37q-37 37 -51 101h-4q-66 -78 -203 -125q-41 -12 -121 -13q-43 0 -83 40t-40 130q0 160 205 248q199 88 232 119v131q-8 92 -29 115q-39 45 -124 45t-132 -43q-14 -14 -14 -27q-4 -8 0 -36t4 -31
q0 -117 -109 -117q-49 0 -49 58q0 57 41 111t100 89q121 72 239 72q118 -1 168 -51q52 -50 52 -150v-434z" />
    <glyph glyph-name="atilde" unicode="&#xe3;" horiz-adv-x="874" 
d="M674 1243h35q16 1 3 -53t-53 -94q-37 -45 -90 -45q-53 1 -141 29t-131 28t-65 -22t-31 -64q-4 -10 -15 -10h-36q-16 0 -7 35q17 81 59 125t98 44t150 -29q94 -30 144 -30q49 0 65 74q5 12 15 12zM539 199v252q-35 -21 -110 -57q-165 -80 -165 -210q0 -55 30 -84
q69 -67 185 15q60 47 60 84zM688 244q0 -154 62 -154q49 0 71 31q12 14 21 8l20 -16q12 -12 -2 -37q-51 -100 -160 -101q-53 0 -94 37q-37 37 -51 101h-4q-66 -78 -203 -125q-41 -12 -121 -13q-43 0 -83 40t-40 130q0 160 205 248q199 88 232 119v131q-8 92 -29 115
q-39 45 -124 45t-132 -43q-14 -14 -14 -27q-4 -8 0 -36t4 -31q0 -117 -109 -117q-49 0 -49 58q0 57 41 111t100 89q121 72 239 72q118 -1 168 -51q52 -50 52 -150v-434z" />
    <glyph glyph-name="adieresis" unicode="&#xe4;" horiz-adv-x="874" 
d="M608 1305q43 0 74 -27q27 -29 27 -71q0 -41 -27 -67t-64 -26q-38 0 -72 24t-34 64t25 72q28 31 71 31zM166 1200q0 41 26 73t68 32q43 0 76 -27q26 -33 26 -71t-26 -68q-31 -25 -68 -25t-67 25q-35 20 -35 61zM539 199v252q-35 -21 -110 -57q-165 -80 -165 -210
q0 -55 30 -84q69 -67 185 15q60 47 60 84zM688 244q0 -154 62 -154q49 0 71 31q12 14 21 8l20 -16q12 -12 -2 -37q-51 -100 -160 -101q-53 0 -94 37q-37 37 -51 101h-4q-66 -78 -203 -125q-41 -12 -121 -13q-43 0 -83 40t-40 130q0 160 205 248q199 88 232 119v131
q-8 92 -29 115q-39 45 -124 45t-132 -43q-14 -14 -14 -27q-4 -8 0 -36t4 -31q0 -117 -109 -117q-49 0 -49 58q0 57 41 111t100 89q121 72 239 72q118 -1 168 -51q52 -50 52 -150v-434z" />
    <glyph glyph-name="aring" unicode="&#xe5;" horiz-adv-x="874" 
d="M420 1063q92 0 92 98q0 39 -25 65t-61 26t-70 -27q-26 -33 -26 -72t24 -65t66 -25zM415 1014q-89 0 -137 40t-48 102t54 104q56 43 144 43t136 -39t48 -103t-55 -104q-53 -43 -142 -43zM539 199v252q-35 -21 -110 -57q-165 -80 -165 -210q0 -55 30 -84q69 -67 185 15
q60 47 60 84zM688 244q0 -154 62 -154q49 0 71 31q12 14 21 8l20 -16q12 -12 -2 -37q-51 -100 -160 -101q-53 0 -94 37q-37 37 -51 101h-4q-66 -78 -203 -125q-41 -12 -121 -13q-43 0 -83 40t-40 130q0 160 205 248q199 88 232 119v131q-8 92 -29 115q-39 45 -124 45
t-132 -43q-14 -14 -14 -27q-4 -8 0 -36t4 -31q0 -117 -109 -117q-49 0 -49 58q0 57 41 111t100 89q121 72 239 72q118 -1 168 -51q52 -50 52 -150v-434z" />
    <glyph glyph-name="ae" unicode="&#xe6;" horiz-adv-x="1300" 
d="M1059 652q0 54 -39 110q-43 55 -117 55q-152 0 -205 -262l291 35q70 8 70 62zM264 193q0 -121 103 -121q49 0 107 38t97 101q-31 88 -30 227q-4 -2 -53 -22t-81 -39q-93 -56 -124 -107q-19 -36 -19 -77zM465 879q175 0 197 -127q62 72 126 100t148 27q84 0 141 -35
q96 -46 140 -178q14 -43 14 -84t-51 -43l-490 -43q-4 -29 -4 -70q0 -127 71 -228t193 -102q158 0 238 123q23 29 31 23l22 -13q8 -6 0 -30q-41 -95 -128 -159t-193 -65q-184 0 -320 166h-8q-98 -119 -219 -153q-49 -12 -135 -13q-54 1 -94 49t-40 132q0 143 209 241
q175 83 202 94q26 11 28 13v133q0 82 -34 124t-117 42t-136 -41q-24 -27 -17 -66t7 -41q0 -106 -101 -106q-57 0 -57 55q0 117 143 205q106 70 234 70z" />
    <glyph glyph-name="ccedilla" unicode="&#xe7;" horiz-adv-x="841" 
d="M467 813q-96 0 -169 -83q-73 -82 -73 -242t105 -304q80 -104 223 -104q78 0 127 20t98 68q8 8 17 0l20 -21q12 -12 0 -26q-33 -43 -105 -83t-143 -54l-104 -123q47 -14 90 -54q37 -43 37 -86q0 -90 -103 -147q-96 -57 -211 -57q-41 0 -40 41q0 28 61 28t117 31
q53 31 53 84q0 80 -135 104l139 170q-190 2 -303 144q-92 123 -92 295t121 319q123 145 317 146q72 0 133 -19q90 -36 129 -102q16 -28 17 -45q-4 -72 -74 -72q-70 1 -108 71q-37 70 -69 86t-75 15z" />
    <glyph glyph-name="egrave" unicode="&#xe8;" horiz-adv-x="872" 
d="M313 1325q47 0 86 -51l197 -244q2 -8 -2 -10l-25 -23q-6 -6 -12 0l-270 193q-53 41 -37 88t63 47zM561 606q55 0 55 29q0 91 -59 143q-37 39 -103 39q-66 -1 -125 -53q-58 -52 -85 -158h317zM741 545h-505q-6 -29 -7 -99q0 -150 84 -249q82 -102 207 -103q88 0 155 41
t93 98q6 14 18 11l27 -15q12 -4 0 -30q-35 -76 -121 -154q-86 -70 -205 -70q-219 0 -321 146q-54 79 -72 147t-18 176q0 197 119 316t303 119q80 0 142 -33t97 -88q60 -108 62 -180q-1 -33 -58 -33z" />
    <glyph glyph-name="eacute" unicode="&#xe9;" horiz-adv-x="872" 
d="M650 1325q44 0 63 -47q12 -45 -41 -88l-269 -193q-6 -6 -12 0l-24 21q-6 6 0 12l196 244q43 51 87 51zM561 606q55 0 55 29q0 91 -59 143q-37 39 -103 39q-66 -1 -125 -53q-58 -52 -85 -158h317zM741 545h-505q-6 -29 -7 -99q0 -150 84 -249q82 -102 207 -103
q88 0 155 41t93 98q6 14 18 11l27 -15q12 -4 0 -30q-35 -76 -121 -154q-86 -70 -205 -70q-219 0 -321 146q-54 79 -72 147t-18 176q0 197 119 316t303 119q80 0 142 -33t97 -88q60 -108 62 -180q-1 -33 -58 -33z" />
    <glyph glyph-name="ecircumflex" unicode="&#xea;" horiz-adv-x="872" 
d="M474 1325q10 0 24 -20l225 -269q10 -10 4 -16l-16 -19q-7 -10 -19 -2l-223 158l-207 -156q-12 -8 -18 -2l-19 19q-8 6 6 20l215 269q18 18 28 18zM561 606q55 0 55 29q0 91 -59 143q-37 39 -103 39q-66 -1 -125 -53q-58 -52 -85 -158h317zM741 545h-505q-6 -29 -7 -99
q0 -150 84 -249q82 -102 207 -103q88 0 155 41t93 98q6 14 18 11l27 -15q12 -4 0 -30q-35 -76 -121 -154q-86 -70 -205 -70q-219 0 -321 146q-54 79 -72 147t-18 176q0 197 119 316t303 119q80 0 142 -33t97 -88q60 -108 62 -180q-1 -33 -58 -33z" />
    <glyph glyph-name="edieresis" unicode="&#xeb;" horiz-adv-x="872" 
d="M551 1202q-1 40 25 71q26 32 70 32t75 -27q27 -29 27 -71t-27 -68q-29 -25 -66 -25t-69 25q-35 23 -35 63zM302 1305q44 0 72 -28t28 -70q0 -41 -28 -67q-26 -26 -63 -26t-71 24t-35 64q0 40 24 72q29 31 73 31zM561 606q55 0 55 29q0 91 -59 143q-37 39 -103 39
q-66 -1 -125 -53q-58 -52 -85 -158h317zM741 545h-505q-6 -29 -7 -99q0 -150 84 -249q82 -102 207 -103q88 0 155 41t93 98q6 14 18 11l27 -15q12 -4 0 -30q-35 -76 -121 -154q-86 -70 -205 -70q-219 0 -321 146q-54 79 -72 147t-18 176q0 197 119 316t303 119q80 0 142 -33
t97 -88q60 -108 62 -180q-1 -33 -58 -33z" />
    <glyph glyph-name="igrave" unicode="&#xec;" horiz-adv-x="546" 
d="M122 1325q48 0 87 -51l197 -244q1 -8 -3 -10l-24 -23q-6 -6 -12 0l-271 193q-53 41 -37 88q15 47 63 47zM53 51q0 16 21 17h100q29 0 33 41q2 41 2 186v301q0 53 -21 84q-25 27 -94 39q-18 2 -18 14v19q0 8 14 14q110 40 178 76t82 36t10 -34q-4 -35 -4 -324v-223
q0 -162 2 -176q6 -53 33 -53h94q20 0 21 -19v-35q0 -20 -16 -20t-39 2l-160 4h-103l-118 -6q-16 0 -17 16v41z" />
    <glyph glyph-name="iacute" unicode="&#xed;" horiz-adv-x="546" 
d="M470 1325q46 0 58 -47q18 -43 -39 -88l-268 -193q-6 -6 -12 0l-25 21q-6 6 0 12l197 244q43 51 89 51zM53 51q0 16 21 17h100q29 0 33 41q2 41 2 186v301q0 53 -21 84q-25 27 -94 39q-18 2 -18 14v19q0 8 14 14q110 40 178 76t82 36t10 -34q-4 -35 -4 -324v-223
q0 -162 2 -176q6 -53 33 -53h94q20 0 21 -19v-35q0 -20 -16 -20t-39 2l-160 4h-103l-118 -6q-16 0 -17 16v41z" />
    <glyph glyph-name="icircumflex" unicode="&#xee;" horiz-adv-x="546" 
d="M282 1325q10 0 23 -20l225 -269q10 -10 5 -16l-17 -19q-6 -10 -18 -2l-224 158l-206 -156q-12 -8 -19 -2l-18 19q-8 6 6 20l215 269q18 18 28 18zM53 51q0 16 21 17h100q29 0 33 41q2 41 2 186v301q0 53 -21 84q-25 27 -94 39q-18 2 -18 14v19q0 8 14 14q110 40 178 76
t82 36t10 -34q-4 -35 -4 -324v-223q0 -162 2 -176q6 -53 33 -53h94q20 0 21 -19v-35q0 -20 -16 -20t-39 2l-160 4h-103l-118 -6q-16 0 -17 16v41z" />
    <glyph glyph-name="idieresis" unicode="&#xef;" horiz-adv-x="546" 
d="M445 1305q43 0 73 -27q27 -29 27 -71q0 -41 -27 -67q-28 -26 -64 -26t-71 24t-35 64t25 72q29 31 72 31zM2 1200q0 41 26 73t68 32q43 0 76 -27q27 -33 27 -71t-27 -68q-31 -25 -68 -25t-67 25q-35 20 -35 61zM53 51q0 16 21 17h100q29 0 33 41q2 41 2 186v301
q0 53 -21 84q-25 27 -94 39q-18 2 -18 14v19q0 8 14 14q110 40 178 76t82 36t10 -34q-4 -35 -4 -324v-223q0 -162 2 -176q6 -53 33 -53h94q20 0 21 -19v-35q0 -20 -16 -20t-39 2l-160 4h-103l-118 -6q-16 0 -17 16v41z" />
    <glyph glyph-name="eth" unicode="&#xf0;" horiz-adv-x="999" 
d="M235 1481q10 0 15 -2q125 -45 287 -158l219 125q18 8 24 -2l27 -47q8 -16 -6 -25l-199 -108q49 -41 121 -138q162 -211 174 -559q8 -231 -94 -403q-47 -84 -137 -136t-221 -52t-218 67q-152 115 -151 363q0 94 45 197t131 173q131 102 274 103q98 0 181 -64l4 4
q-53 188 -146 301q-23 39 -67 84l-242 -141q-12 -6 -23 6l-28 47q-6 13 6 21l223 123q-102 96 -203 135q-33 12 -32 22q0 8 6 19l18 37q2 8 12 8zM475 37q99 0 161 73t81 166q23 88 22 218q0 190 -60 257q-59 67 -161 67t-184 -77q-53 -49 -76 -133q-29 -84 -29 -208
t70 -248q35 -55 83 -85t93 -30z" />
    <glyph glyph-name="ntilde" unicode="&#xf1;" horiz-adv-x="1089" 
d="M791 1243h34q14 0 3 -50t-50 -97q-43 -45 -94 -45q-52 1 -140 29t-131 28t-64 -22t-32 -64q-4 -10 -14 -10h-37q-16 0 -6 35q16 81 58 125t98 44t150 -29q96 -30 146 -30t64 74q3 12 15 12zM80 12v37q0 18 20 19h60q23 0 33 8q8 12 8 33v479q0 80 -84 121l-17 8
q-16 6 -16 18v10q0 12 18 21l177 98q27 14 36 15q12 0 17 -25l14 -125h4q45 57 125 103q81 46 173 47q164 0 235 -138q35 -63 35 -102v-528q0 -43 45 -43h65q23 0 23 -19v-33q0 -23 -17 -22q-12 0 -28 2l-166 4h-88l-97 -6q-16 0 -16 22v33q0 18 27 19h59q37 0 41 47
q4 143 4 172v270q0 91 -15 127q-15 34 -54 64t-135 30t-171 -80q-47 -53 -47 -139v-424q0 -39 8 -55q12 -12 41 -12h52q20 0 20 -21v-35q0 -18 -13 -18t-28 2l-152 4h-88l-94 -6q-14 0 -14 18z" />
    <glyph glyph-name="ograve" unicode="&#xf2;" horiz-adv-x="1019" 
d="M346 1325q47 0 86 -51l197 -244q2 -8 -2 -10l-25 -23q-6 -6 -12 0l-271 193q-53 41 -37 88t64 47zM512 37q121 0 193 119q71 126 71 286t-89 268t-183 107q-94 0 -154 -64q-60 -65 -86 -135q-24 -70 -24 -169t14 -175q18 -66 63 -131q74 -106 195 -106zM948 434
q0 -180 -134 -320t-322 -139q-188 0 -308 142q-70 85 -92 155t-20 168q1 203 176 340q125 98 274 99q78 0 157 -34t130 -85q139 -146 139 -326z" />
    <glyph glyph-name="oacute" unicode="&#xf3;" horiz-adv-x="1019" 
d="M724 1325q44 0 62 -47q12 -45 -41 -88l-268 -193q-6 -6 -12 0l-25 21q-6 6 0 12l197 244q43 51 87 51zM512 37q121 0 193 119q71 126 71 286t-89 268t-183 107q-94 0 -154 -64q-60 -65 -86 -135q-24 -70 -24 -169t14 -175q18 -66 63 -131q74 -106 195 -106zM948 434
q0 -180 -134 -320t-322 -139q-188 0 -308 142q-70 85 -92 155t-20 168q1 203 176 340q125 98 274 99q78 0 157 -34t130 -85q139 -146 139 -326z" />
    <glyph glyph-name="ocircumflex" unicode="&#xf4;" horiz-adv-x="1019" 
d="M506 1325q10 0 24 -20l226 -269q10 -10 4 -16l-17 -19q-6 -10 -18 -2l-223 158l-207 -156q-12 -8 -19 -2l-18 19q-8 6 6 20l215 269q17 18 27 18zM512 37q121 0 193 119q71 126 71 286t-89 268t-183 107q-94 0 -154 -64q-60 -65 -86 -135q-24 -70 -24 -169t14 -175
q18 -66 63 -131q74 -106 195 -106zM948 434q0 -180 -134 -320t-322 -139q-188 0 -308 142q-70 85 -92 155t-20 168q1 203 176 340q125 98 274 99q78 0 157 -34t130 -85q139 -146 139 -326z" />
    <glyph glyph-name="otilde" unicode="&#xf5;" horiz-adv-x="1019" 
d="M756 1243h35q16 1 3 -53t-53 -94q-37 -45 -90 -45q-53 1 -141 29t-132 28q-43 0 -64 -22t-31 -64q-4 -10 -15 -10h-37q-16 0 -6 35q17 81 59 125t98 44t150 -29q94 -30 144 -30q49 0 65 74q5 12 15 12zM512 37q121 0 193 119q71 126 71 286t-89 268t-183 107
q-94 0 -154 -64q-60 -65 -86 -135q-24 -70 -24 -169t14 -175q18 -66 63 -131q74 -106 195 -106zM948 434q0 -180 -134 -320t-322 -139q-188 0 -308 142q-70 85 -92 155t-20 168q1 203 176 340q125 98 274 99q78 0 157 -34t130 -85q139 -146 139 -326z" />
    <glyph glyph-name="odieresis" unicode="&#xf6;" horiz-adv-x="1019" 
d="M688 1114q-37 0 -71 24q-33 24 -33 64t26 71q26 32 69 32q44 0 75 -27q26 -29 26 -71t-26 -68q-29 -25 -66 -25zM335 1305q44 0 72 -28q27 -28 27 -70q0 -41 -26 -67t-64 -26q-37 0 -72 24q-34 24 -34 64t24 72q29 31 73 31zM512 37q121 0 193 119q71 126 71 286t-89 268
t-183 107q-94 0 -154 -64q-60 -65 -86 -135q-24 -70 -24 -169t14 -175q18 -66 63 -131q74 -106 195 -106zM948 434q0 -180 -134 -320t-322 -139q-188 0 -308 142q-70 85 -92 155t-20 168q1 203 176 340q125 98 274 99q78 0 157 -34t130 -85q139 -146 139 -326z" />
    <glyph glyph-name="divide" unicode="&#xf7;" 
d="M514 68q-47 0 -82 30q-33 31 -33 76t33 76q35 29 81 29t81 -29q33 -31 33 -76q0 -46 -33 -76t-80 -30zM514 705q-47 0 -82 30q-33 31 -33 77t34 75t81 29t80 -30q33 -28 33 -74t-33 -76t-80 -31zM115 549h794v-115h-794v115z" />
    <glyph glyph-name="oslash" unicode="&#xf8;" horiz-adv-x="1019" 
d="M506 817q-92 0 -158 -65q-59 -64 -84 -134t-25 -188t29 -197l430 459q-39 57 -94 90q-49 35 -98 35zM513 37q122 0 194 119q70 121 69 290q0 95 -37 175l-436 -461l10 -19q78 -104 200 -104zM507 -25q-173 0 -286 101l-84 -90q-16 -16 -26 -4l-27 28q-10 10 -10 16t18 25
l78 82q-58 76 -78 144t-20 165q0 207 178 334q131 102 272 103q68 0 139 -28t113 -71l96 90q13 13 21 4l39 -34q6 -6 6 -10t-4 -9l-98 -98q114 -125 114 -297t-134 -312t-307 -139z" />
    <glyph glyph-name="ugrave" unicode="&#xf9;" horiz-adv-x="1036" 
d="M294 1325q48 0 87 -51l197 -244q1 -8 -3 -10l-24 -23q-6 -6 -12 0l-271 193q-53 41 -37 88q15 47 63 47zM854 569v-153q0 -184 5 -249t50 -65t69 6t26 -8l6 -26q2 -14 -11 -19l-215 -71q-23 -8 -41 -9q-14 0 -18 25l-16 119h-4q-45 -63 -125 -103t-154 -41
q-123 0 -193 95q-57 76 -68 146t-11 255v240q-4 43 -22 59t-60 18q-41 2 -41 15v37q0 16 22 16h183q8 0 28 4h12q6 2 11 2q25 0 22 -24q-8 -66 -8 -236v-147q0 -29 -3 -78t0 -76q10 -93 48 -154q53 -78 164 -77q41 0 94 32q101 62 103 125v490q-2 37 -23 53q-25 16 -68 17
t-43 16v35q0 14 5 14q2 4 20 4h190q6 0 35 4h15q6 2 10 2q20 0 18 -20q-12 -111 -12 -273z" />
    <glyph glyph-name="uacute" unicode="&#xfa;" horiz-adv-x="1036" 
d="M691 1325q44 0 63 -47q12 -45 -41 -88l-269 -193q-6 -6 -12 0l-24 21q-6 6 0 12l196 244q43 51 87 51zM854 569v-153q0 -184 5 -249t50 -65t69 6t26 -8l6 -26q2 -14 -11 -19l-215 -71q-23 -8 -41 -9q-14 0 -18 25l-16 119h-4q-45 -63 -125 -103t-154 -41q-123 0 -193 95
q-57 76 -68 146t-11 255v240q-4 43 -22 59t-60 18q-41 2 -41 15v37q0 16 22 16h183q8 0 28 4h12q6 2 11 2q25 0 22 -24q-8 -66 -8 -236v-147q0 -29 -3 -78t0 -76q10 -93 48 -154q53 -78 164 -77q41 0 94 32q101 62 103 125v490q-2 37 -23 53q-25 16 -68 17t-43 16v35
q0 14 5 14q2 4 20 4h190q6 0 35 4h15q6 2 10 2q20 0 18 -20q-12 -111 -12 -273z" />
    <glyph glyph-name="ucircumflex" unicode="&#xfb;" horiz-adv-x="1036" 
d="M514 1325q10 0 25 -20l225 -269q10 -10 4 -16l-16 -19q-7 -10 -19 -2l-223 158l-207 -156q-12 -8 -18 -2l-19 19q-8 6 6 20l215 269q17 18 27 18zM854 569v-153q0 -184 5 -249t50 -65t69 6t26 -8l6 -26q2 -14 -11 -19l-215 -71q-23 -8 -41 -9q-14 0 -18 25l-16 119h-4
q-45 -63 -125 -103t-154 -41q-123 0 -193 95q-57 76 -68 146t-11 255v240q-4 43 -22 59t-60 18q-41 2 -41 15v37q0 16 22 16h183q8 0 28 4h12q6 2 11 2q25 0 22 -24q-8 -66 -8 -236v-147q0 -29 -3 -78t0 -76q10 -93 48 -154q53 -78 164 -77q41 0 94 32q101 62 103 125v490
q-2 37 -23 53q-25 16 -68 17t-43 16v35q0 14 5 14q2 4 20 4h190q6 0 35 4h15q6 2 10 2q20 0 18 -20q-12 -111 -12 -273z" />
    <glyph glyph-name="udieresis" unicode="&#xfc;" horiz-adv-x="1036" 
d="M592 1202q0 40 26 71q26 32 69 32q44 0 75 -27q26 -29 26 -71t-26 -68q-29 -25 -66 -25t-69 25q-35 23 -35 63zM343 1305q44 0 72 -28q27 -28 27 -70q0 -41 -26 -67t-64 -26t-72 24t-34 64t24 72q29 31 73 31zM854 569v-153q0 -184 5 -249t50 -65t69 6t26 -8l6 -26
q2 -14 -11 -19l-215 -71q-23 -8 -41 -9q-14 0 -18 25l-16 119h-4q-45 -63 -125 -103t-154 -41q-123 0 -193 95q-57 76 -68 146t-11 255v240q-4 43 -22 59t-60 18q-41 2 -41 15v37q0 16 22 16h183q8 0 28 4h12q6 2 11 2q25 0 22 -24q-8 -66 -8 -236v-147q0 -29 -3 -78t0 -76
q10 -93 48 -154q53 -78 164 -77q41 0 94 32q101 62 103 125v490q-2 37 -23 53q-25 16 -68 17t-43 16v35q0 14 5 14q2 4 20 4h190q6 0 35 4h15q6 2 10 2q20 0 18 -20q-12 -111 -12 -273z" />
    <glyph glyph-name="yacute" unicode="&#xfd;" horiz-adv-x="892" 
d="M744 1325q46 0 59 -47q18 -43 -39 -88l-268 -193q-7 -6 -13 0l-24 21q-6 6 0 12l196 244q43 51 89 51zM790 856l114 4l26 2q12 0 12 -16v-39q0 -18 -10 -19h-33q-43 0 -77 -42t-278 -596q-244 -556 -259 -582q-14 -26 -23 -37q-2 -6 -26 -36t-52 -41t-77 -11t-79 29
q-30 28 -30 68t28 64t67 23t57 -8q18 -8 39 -13t40 11q19 27 81 161t83 189q-6 33 -115 355t-118 351t-21 50q-12 22 -14 27q-33 38 -72 38h-53q-16 0 -16 19v41q0 14 14 14t29 -2l161 -4l148 4h19l22 2h2q18 0 18 -14v-43q0 -16 -12 -17h-39q-33 0 -29 -39t78 -273t92 -275
h9q18 35 109 252t102 258q18 78 -35 77h-33q-14 0 -14 17v41q0 16 12 16h2l20 -2z" />
    <glyph glyph-name="thorn" unicode="&#xfe;" horiz-adv-x="1050" 
d="M330 209q0 -88 43 -113q93 -55 197 -55t176 84t71 260q1 176 -67 288q-68 111 -204 111t-216 -135v-440zM47 -563q-18 0 -18 18v37q0 16 24 16h70q29 0 40 10t15 58q4 47 4 342v389l-4 699q2 199 -84 223l-35 10q-12 2 -12 16v15q0 8 14 14l205 98q43 16 47 17
q18 0 19 -41l-2 -621h4q114 142 289 142q82 0 135 -23q55 -18 112 -84l19 -18l16 -21q27 -27 31 -45l12 -26q10 -20 10 -37q11 -38 17 -97v-65q0 -213 -123 -352q-125 -135 -311 -136q-133 0 -211 39v-446q0 -59 51 -60h84q18 0 18 -20v-33q0 -18 -18 -18q-12 0 -31 2
l-180 4l-178 -4q-16 -2 -29 -2z" />
    <glyph glyph-name="ydieresis" unicode="&#xff;" horiz-adv-x="892" 
d="M658 1305q43 0 73 -27q27 -29 27 -71q0 -41 -27 -67t-63 -26t-72 24q-35 24 -35 64t25 72q29 31 72 31zM215 1200q-1 41 25 73t69 32t76 -27q27 -33 27 -71t-27 -68q-31 -25 -68 -25t-67 25q-35 20 -35 61zM790 856l114 4l26 2q12 0 12 -16v-39q0 -18 -10 -19h-33
q-43 0 -77 -42t-278 -596q-244 -556 -259 -582q-14 -26 -23 -37q-2 -6 -26 -36t-52 -41t-77 -11t-79 29q-30 28 -30 68t28 64t67 23t57 -8q18 -8 39 -13t40 11q19 27 81 161t83 189q-6 33 -115 355t-118 351t-21 50q-12 22 -14 27q-33 38 -72 38h-53q-16 0 -16 19v41
q0 14 14 14t29 -2l161 -4l148 4h19l22 2h2q18 0 18 -14v-43q0 -16 -12 -17h-39q-33 0 -29 -39t78 -273t92 -275h9q18 35 109 252t102 258q18 78 -35 77h-33q-14 0 -14 17v41q0 16 12 16h2l20 -2z" />
  </font>
</defs>
</svg>
